<?xml version="1.0" standalone="no"?>
<!DOCTYPE svg PUBLIC "-//W3C//DTD SVG 1.1//EN" "http://www.w3.org/Graphics/SVG/1.1/DTD/svg11.dtd" >
<svg xmlns="http://www.w3.org/2000/svg" xmlns:xlink="http://www.w3.org/1999/xlink" version="1.1">
<metadata>
Created by FontForge 20160407 at Tue May 24 05:13:14 2016
 By Jimmy Wärting
Copyright (c) 2011, Sorkin Type Co (www.sorkintype.com)with Reserved Font Name "Sarina".
</metadata>
<defs>
<font id="Sarina-Regular" horiz-adv-x="1190" >
  <font-face 
    font-family="Sarina"
    font-weight="400"
    font-stretch="normal"
    units-per-em="2048"
    panose-1="2 0 0 0 0 0 0 0 0 0"
    ascent="1638"
    descent="-410"
    x-height="932"
    cap-height="1357"
    bbox="-527.947 -644 3726 1916"
    underline-thickness="102"
    underline-position="-205"
    unicode-range="U+0001-FB02"
  />
<missing-glyph horiz-adv-x="2896" 
d="M2074 -362l-274 4q-53 0 -189 -14l-230 -22q-372 -36 -513 -36q-250 0 -326 38q-131 69 -180 646q-21 238 -21 419t2.5 271.5t8 172t13 151t17.5 123.5q21 115 47 139q83 78 328 78q127 0 279 -15q284 -28 335 -28q90 0 198 12t201 21q239 23 341.5 23t156.5 -3.5
t99 -12.5q97 -19 136 -58q50 -50 50 -317q0 -228 -19 -425l-24 -247q-4 -46 -4 -107.5t4 -135.5t8 -149l9 -146q4 -72 4 -122q0 -91 -9.5 -135t-51.5 -67.5t-104 -36.5q-101 -21 -292 -21zM931 237q-44 -37 -42 -71t12 -49.5t24 -25.5q27 -19 58 -18q48 2 108 57l290 259
l152 -203q99 -143 193 -137q88 3 240 93q113 66 113 125q0 26 -21 41t-47.5 15t-40.5 -7q-30 -15 -64 -15q-80 0 -132 59q-8 7 -24 27l-152 193l281 250l155 131q22 18 30 23q19 15 18 44.5t-18.5 51.5t-43.5 38q-53 35 -86.5 34.5t-55 -10.5t-45 -26t-47.5 -37l-48 -43
l-279 -275l-207 273q-44 59 -71 74q-48 27 -90 24.5t-86.5 -13t-80.5 -25.5q-56 -22 -118 -69q-20 -15 -20 -41t4 -40.5t12 -25.5q17 -26 47.5 -24t55 7.5t42.5 5.5q36 0 64 -28q6 -6 29 -35l216 -284z" />
    <glyph glyph-name=".notdef" horiz-adv-x="2896" 
d="M2074 -362l-274 4q-53 0 -189 -14l-230 -22q-372 -36 -513 -36q-250 0 -326 38q-131 69 -180 646q-21 238 -21 419t2.5 271.5t8 172t13 151t17.5 123.5q21 115 47 139q83 78 328 78q127 0 279 -15q284 -28 335 -28q90 0 198 12t201 21q239 23 341.5 23t156.5 -3.5
t99 -12.5q97 -19 136 -58q50 -50 50 -317q0 -228 -19 -425l-24 -247q-4 -46 -4 -107.5t4 -135.5t8 -149l9 -146q4 -72 4 -122q0 -91 -9.5 -135t-51.5 -67.5t-104 -36.5q-101 -21 -292 -21zM931 237q-44 -37 -42 -71t12 -49.5t24 -25.5q27 -19 58 -18q48 2 108 57l290 259
l152 -203q99 -143 193 -137q88 3 240 93q113 66 113 125q0 26 -21 41t-47.5 15t-40.5 -7q-30 -15 -64 -15q-80 0 -132 59q-8 7 -24 27l-152 193l281 250l155 131q22 18 30 23q19 15 18 44.5t-18.5 51.5t-43.5 38q-53 35 -86.5 34.5t-55 -10.5t-45 -26t-47.5 -37l-48 -43
l-279 -275l-207 273q-44 59 -71 74q-48 27 -90 24.5t-86.5 -13t-80.5 -25.5q-56 -22 -118 -69q-20 -15 -20 -41t4 -40.5t12 -25.5q17 -26 47.5 -24t55 7.5t42.5 5.5q36 0 64 -28q6 -6 29 -35l216 -284z" />
    <glyph glyph-name=".null" horiz-adv-x="0" 
 />
    <glyph glyph-name="nonmarkingreturn" horiz-adv-x="0" 
 />
    <glyph glyph-name="uni0001" horiz-adv-x="0" 
 />
    <glyph glyph-name="uni0002" horiz-adv-x="0" 
 />
    <glyph glyph-name="uni0003" horiz-adv-x="0" 
 />
    <glyph glyph-name="uni0004" horiz-adv-x="0" 
 />
    <glyph glyph-name="uni0005" horiz-adv-x="0" 
 />
    <glyph glyph-name="uni0006" horiz-adv-x="0" 
 />
    <glyph glyph-name="uni0007" horiz-adv-x="0" 
 />
    <glyph glyph-name="uni0008" horiz-adv-x="0" 
 />
    <glyph glyph-name="uni0009" unicode="&#x9;" horiz-adv-x="0" 
 />
    <glyph glyph-name="uni0010" horiz-adv-x="0" 
 />
    <glyph glyph-name="uni0011" horiz-adv-x="0" 
 />
    <glyph glyph-name="uni0012" horiz-adv-x="0" 
 />
    <glyph glyph-name="uni0013" horiz-adv-x="0" 
 />
    <glyph glyph-name="uni0014" horiz-adv-x="0" 
 />
    <glyph glyph-name="uni0015" horiz-adv-x="0" 
 />
    <glyph glyph-name="uni0016" horiz-adv-x="0" 
 />
    <glyph glyph-name="uni0017" horiz-adv-x="0" 
 />
    <glyph glyph-name="uni0018" horiz-adv-x="0" 
 />
    <glyph glyph-name="uni0019" horiz-adv-x="0" 
 />
    <glyph glyph-name="space" unicode=" " horiz-adv-x="851" 
 />
    <glyph glyph-name="exclam" unicode="!" horiz-adv-x="1359" 
d="M382 420q-14 -2 -23 -1t-17 5q-19 8 -19 25.5t6 31.5l240 535l61 126q64 127 82.5 150t29 34t24.5 20q32 19 66 19t76 -8.5t82 -22.5q96 -36 96 -76q0 -66 -144 -331q-151 -275 -260 -373q-119 -107 -300 -134zM177 137q7 18 22.5 41.5t40 50t60.5 47.5q83 51 188 51
q120 0 165 -51q17 -20 17 -57.5t-31 -81t-80 -77.5q-110 -76 -227 -76q-98 0 -139 56q-23 30 -23 54.5t7 42.5z" />
    <glyph glyph-name="quotedbl" unicode="&#x22;" horiz-adv-x="1698" 
d="M1204.5 738.5q-12.5 -29.5 -34 -46t-57 -16.5t-63.5 33q-14 26 -14 102t3 131.5t8.5 112.5t14 113t19.5 104q24 106 50 135q47 54 129 54q84 0 130 -57q16 -19 22.5 -44t-3.5 -62t-28 -83l-40 -99q-22 -53 -41 -108l-68 -198q-15 -42 -27.5 -71.5zM701.5 738.5
q-12.5 -29.5 -34 -46t-57 -16.5t-63.5 33q-14 26 -14 102t3 131.5t8.5 112.5t14 113t19.5 104q24 106 50 135q47 54 129 54q84 0 131 -57q15 -19 21.5 -44t-3.5 -62t-28 -83l-40 -99q-22 -53 -42 -108l-68 -198q-14 -42 -26.5 -71.5z" />
    <glyph glyph-name="numbersign" unicode="#" horiz-adv-x="1703" 
d="M386 640q-60 0 -60 39q0 25 22 44q37 32 82 32h222l109 195l39 66q17 27 27.5 38.5t30.5 11.5t45.5 -19t44.5 -45q46 -63 27 -95.5t-47 -70.5l-62 -81h232l109 195l39 66q17 27 27.5 38.5t30.5 11.5t45.5 -19t44.5 -45q46 -63 27 -95.5t-47 -70.5l-62 -81h107
q39 0 55.5 -14.5t16.5 -30t-5.5 -27.5t-15.5 -22q-22 -22 -54 -22h-190q-39 -51 -59 -83l-54 -86h143q39 0 55.5 -14.5t16.5 -30t-5.5 -27.5t-15.5 -22q-22 -22 -54 -22h-209q-144 -253 -164.5 -296.5t-35 -52t-29.5 -8.5t-28 6t-22 17q-25 33 2 94l119 240l-287 1
q-114 -200 -139 -247l-38 -75q-17 -36 -54 -36q-31 0 -44 17q-26 33 -16 67q2 8 13 33l120 241h-218q-60 0 -60 39q0 25 21 44q38 32 83 32h233l90 170h-204zM946 470l90 169l-256 1q-36 -47 -58 -82l-55 -88h279z" />
    <glyph glyph-name="dollar" unicode="$" horiz-adv-x="2044" 
d="M1516 1331q114 7 185 7t97 -7.5t46 -20.5q43 -28 43 -70.5t-14.5 -78t-39 -64t-56 -50t-64.5 -35.5q-68 -28 -113 -28t-71 6.5t-46 22.5q-40 31 -58 110l-157 -350l137 -34q240 -62 357 -142q44 -32 70.5 -86t26.5 -99q0 -81 -36 -128t-95 -86t-134 -71t-162.5 -57.5
t-178.5 -45.5q-173 -36 -359 -54l-47 -96q-19 -36 -28.5 -48.5t-29.5 -22.5t-40 -15q-41 -11 -63 -6q-33 8 -33 43q0 16 5 28l45 104q-13 -1 -25 -1h-23q-288 0 -457 71q-58 39 -97 209q-21 85 -22.5 128t5 50t34.5 0t73 -24l110 -41q261 -95 529 -97l101 235l-270 58
q-138 31 -262 67q-132 44 -167 182q-10 39 -10 81q0 97 52 134q338 230 1008 303l42 97q18 42 23.5 58t24.5 29.5t45 23.5q54 23 95.5 23t59.5 -9.5t14 -27t-23 -62.5zM879 962q-29 -26 -28.5 -45t17 -31t45.5 -24q51 -19 159 -44l56 132q8 26 25 66l36 86
q-220 -59 -310 -140zM1031 258q270 15 376 57q38 15 38 34t-68 38.5t-128 32.5l-130 29z" />
    <glyph glyph-name="percent" unicode="%" horiz-adv-x="1869" 
d="M668 1184q18 6 41.5 6t58.5 -8t68 -26q83 -44 83 -121t-42.5 -142.5t-113.5 -114.5q-152 -103 -352 -103q-180 0 -212 113q-10 36 -10 74t24.5 78t63.5 79.5t86.5 77t92.5 65.5q100 63 144 63q12 0 37.5 -18t30.5 -23zM349 -14q-19 18 -19 43t33 69l296 372l385 462
q202 237 225 255.5t45.5 9t41.5 -32.5q46 -55 46 -111q0 -23 -13 -39t-50 -54q-420 -420 -455 -457q-335 -376 -379 -428.5t-59 -72.5q-25 -34 -51.5 -34t-45.5 18zM384.5 816q15.5 -11 64 -11t105 21t100.5 54q98 72 98 153q0 32 -30 47q-18 9 -36 9q-38 0 -65 -5
q-157 -80 -228 -174q-24 -31 -24 -57t15.5 -37zM1365 583q18 6 41.5 6t58.5 -8t69 -26q82 -44 82 -121t-42.5 -142.5t-113.5 -113.5q-152 -104 -352 -104q-180 0 -212 114q-10 35 -10 73t24.5 78t63.5 79.5t86.5 77t93.5 66.5q99 62 143 62q12 0 37.5 -18t30.5 -23z
M1090 310q-24 -32 -24 -58t15.5 -37t64 -11t105 21t101.5 54q97 72 97 153q0 32 -30 47q-18 9 -36 9q-37 0 -65 -5q-157 -80 -228 -173z" />
    <glyph glyph-name="ampersand" unicode="&#x26;" horiz-adv-x="2382" 
d="M1195 -5q-219 -43 -402.5 -43t-296 27.5t-190.5 74.5q-157 96 -157 247q0 285 620 495q20 276 221 441q187 153 425 153q169 0 268 -62q91 -58 91 -131.5t-48.5 -138t-130.5 -126.5q-151 -113 -414 -223q87 -241 303 -409q190 63 275 186q0 1 0.5 1t0.5 3t-18 7l-46 9
q-125 25 -166 70q-18 21 -18 52.5t22 58t58 46t81.5 33.5t92.5 23q89 17 151.5 17t112 -6t90.5 -21q92 -34 92 -107q0 -91 -133 -232q-146 -153 -380 -272q232 -110 466 -110q52 0 98.5 8.5t53.5 8.5q32 0 32 -34q0 -19 -10 -26.5t-32 -28t-58 -47.5t-85 -57.5t-108 -55.5
q-139 -60 -273 -60q-314 0 -588 229zM1429 1146q0 77 -94 77q-141 0 -192 -119q-16 -37 -16 -74q0 -48 5 -111q206 85 274 171q23 29 23 56zM804 545q-164 -89 -164 -165q0 -49 58 -94q74 -57 198 -57h40q19 0 38 1q-115 155 -170 315z" />
    <glyph glyph-name="quotesingle" unicode="'" horiz-adv-x="1021" 
d="M664.5 738.5q-12.5 -29.5 -34 -46t-57 -16.5t-63.5 33q-14 26 -14 102t3 131.5t8.5 112.5t14 113t19.5 104q24 106 50 135q47 54 129 54q84 0 130 -57q16 -19 22.5 -44t-3.5 -62t-28 -83l-40 -99q-22 -53 -41 -108l-68 -198q-15 -42 -27.5 -71.5z" />
    <glyph glyph-name="parenleft" unicode="(" horiz-adv-x="1525" 
d="M321.5 189.5q-20.5 64.5 -20.5 136t30 151.5t79.5 166t112.5 173.5t129 168.5q163 193 227 262l96 99q31 31 35 36q12 14 34.5 14t41.5 -15.5t19 -38.5t-13.5 -40t-40.5 -54q-361 -515 -445 -846q-19 -78 -19 -127.5t4 -88t16 -80.5q27 -97 94 -180q31 -36 31 -65
q0 -51 -76 -51q-38 0 -48.5 11t-36 30t-59 50t-71 74t-68.5 96.5t-51.5 118z" />
    <glyph glyph-name="parenright" unicode=")" horiz-adv-x="1525" 
d="M448 -159.5q-19 15.5 -19 38.5t13.5 40t40.5 54q361 515 445 847q19 77 19 126.5t-4 88t-16 81.5q-27 96 -94 179q-31 36 -31 65q0 51 76 51q38 0 52 -14q7 -7 32.5 -26.5t59 -50.5t71 -74t68.5 -96q72 -125 72 -259q0 -222 -351 -655q-163 -193 -227 -262l-128 -132
q-15 -17 -37.5 -17t-41.5 15.5z" />
    <glyph glyph-name="asterisk" unicode="*" horiz-adv-x="1531" 
d="M1161 1063q55 0 55 -40q0 -16 -13 -42q-12 -12 -76 -36q-130 -50 -179 -79q5 -26 23 -62l38 -73q49 -90 44 -106t-23.5 -33t-40.5 -31q-50 -32 -71 -32q-17 7 -61 49l-129 124q-33 -14 -78 -53l-122 -113q-56 -50 -71 -51.5t-26 2.5t-18 11q-11 11 -14 31q3 21 55 94
q120 171 143 206q-17 17 -51 45l-69 56q-86 70 -92 87.5t4 36.5t26 36q25 29 54 50q11 3 38 -4l64 -18q101 -30 159 -37q21 67 29 93l36 104q18 49 30 61q13 10 26 10t23.5 -4.5t19.5 -10.5q14 -11 24 -24q11 -18 11 -76l-6 -196q21 0 52 4l64 8q92 13 122 13z" />
    <glyph glyph-name="plus" unicode="+" horiz-adv-x="2209" 
d="M542 676h469v494h153v-494h469v-153h-469v-503h-153v503h-469v153z" />
    <glyph glyph-name="comma" unicode="," horiz-adv-x="1021" 
d="M548 262q19 -26 19 -76t-26 -104.5t-67.5 -100.5t-94.5 -84t-107 -66q-184 -97 -263 -61q-11 5 -18 12l-19 19q-11 12 -11 23q0 21 25 33l50 23q118 56 170 108q-90 10 -126 61q-21 28 -21 68q0 80 90.5 145.5t219 65.5t179.5 -66z" />
    <glyph glyph-name="hyphen" unicode="-" horiz-adv-x="1694" 
d="M437 300q-35 0 -35 41q0 39 22.5 79t42.5 56.5t43 29.5q50 26 88 26h579q16 0 30 -11.5t14 -31.5q0 -40 -26.5 -84.5t-63 -75t-74.5 -30.5z" />
    <glyph glyph-name="period" unicode="." horiz-adv-x="1021" 
d="M610 268q20 -27 20 -73.5t-29 -88t-75 -70.5q-94 -61 -213 -61q-115 0 -163 59q-26 33 -26 78q0 89 91 158t217.5 69t177.5 -71z" />
    <glyph glyph-name="slash" unicode="/" horiz-adv-x="1531" 
d="M78 -219q-19 18 -19 37.5t6 33t41 58.5l218 272l650 784l233 270q39 44 54.5 56.5t38 3t42.5 -33.5q45 -54 45 -110q0 -23 -11.5 -36.5t-39.5 -43.5l-537 -530q-34 -35 -53 -56l-388 -460q-159 -199 -179 -224q-29 -39 -55.5 -39t-45.5 18z" />
    <glyph glyph-name="zero" unicode="0" horiz-adv-x="2039" 
d="M1360 1158q38 15 86.5 15t94.5 -7.5t96 -23.5t99 -42t88 -63q89 -83 89 -197q0 -122 -64.5 -245.5t-156 -217.5t-211.5 -170.5t-259 -130.5q-289 -113 -594 -113q-382 0 -456 215q-23 67 -23 118q0 60 5.5 117.5t46 125.5t104.5 138.5t145.5 141t170 134.5t177.5 119.5
t168 95.5q169 87 242 87q25 0 83.5 -43t68.5 -54zM587 452q-33 -50 -36.5 -86.5t2.5 -58.5t23 -35q34 -26 127 -26t191 24t188.5 66t169 97.5t138.5 118.5q126 136 140 263q10 94 -94 125q-29 8 -52.5 8t-42.5 -1.5t-39 -3.5q-39 -4 -67 -11q-238 -114 -442 -273
q-141 -110 -206 -207z" />
    <glyph glyph-name="one" unicode="1" horiz-adv-x="1022" 
d="M194 712q-48 0 -48 63q0 84 81 165q35 58 285 180l99 47q167 75 214 75q9 0 26 0.5t37 -3.5q49 -10 70 -37.5t25 -42.5t-3.5 -45t-27.5 -88t-46 -128q-77 -191 -118 -286q-188 -424 -227 -497t-62.5 -100t-45.5 -41q-35 -21 -67.5 -21t-67.5 1.5t-72 5.5q-109 12 -143 44
q-8 7 -8 23q0 32 19 75l341 740l-161 -94q-64 -36 -100 -36z" />
    <glyph glyph-name="two" unicode="2" horiz-adv-x="1700" 
d="M570 -23q-197 0 -453 16q-70 6 -98 46t-22 97.5t33 94t80 58t140 59.5q236 108 352 166q368 186 500 273q73 48 77 109q6 51 -33 94q-37 41 -77 41t-76 -7t-75 -18q-77 -24 -148 -58q-34 -78 -134 -142t-210 -78q-65 -8 -118 24t-76 66.5t-18.5 79.5t59 86.5t144 80
t206.5 72.5t247 59q276 55 523 55q127 0 202 -84q68 -76 68 -189q0 -151 -114 -243q-157 -122 -461 -246l-166 -65q-189 -70 -389 -128q19 2 76 5t135 8t168.5 12.5t176.5 18.5q202 28 273 63q52 27 82.5 27t45 -7t23.5 -18q31 -37 7 -71q-7 -9 -26 -35q-149 -203 -184 -239
t-47 -40q-143 -43 -693 -43z" />
    <glyph glyph-name="three" unicode="3" horiz-adv-x="1703" 
d="M-61 85q-23 53 -23 99t23 70t54 14q9 -4 58 -13q200 -37 262 -37t153 11.5t172.5 30.5t149.5 44t116 52q102 57 88 102q-21 54 -62.5 73t-95.5 19q-120 0 -195 -25q-3 -1 -12 -1t-20.5 7.5t-19.5 18.5q-29 42 -4 88q8 14 25 21l215 91q206 91 256.5 132.5t47 60t-9.5 29
t-17 16.5q-21 13 -59 11t-86 -6.5t-106.5 -13t-122.5 -21.5t-124 -30q-137 -41 -188 -90q-20 -20 -47 -20t-46 15t-16.5 35.5t14 36.5t26.5 42l63 113q60 107 78.5 117t52.5 18t80 16.5t100 16.5t107 14q125 14 193.5 14t140.5 -3.5t136 -12.5q139 -20 195 -54
q94 -57 84 -173q-9 -69 -44 -106.5t-79.5 -65.5t-100.5 -53q-95 -44 -257 -97q273 0 338 -117q19 -34 14 -83q-9 -92 -142 -201q-185 -152 -508 -272q-319 -118 -543 -118q-145 0 -257 113q-33 34 -57 72z" />
    <glyph glyph-name="four" unicode="4" horiz-adv-x="2039" 
d="M810 209q-286 -9 -394 -9q-174 0 -198.5 3.5t-50.5 28.5t-50 60q-59 88 -59 154q0 41 24 61q533 474 1366 740q57 21 73 20.5t32.5 -10.5t32.5 -25q33 -28 56 -65q112 -2 165 -67q28 -28 -39 -95q-195 -215 -348 -494l261 8q25 0 35 -15t10 -26t-7.5 -20t-26.5 -38
l-40 -64q-57 -87 -81 -101q-19 -11 -292 -25q-91 -188 -145 -247q-51 -57 -166 -75q-35 -6 -68 -6q-149 0 -149 110q0 75 59 197zM625 486l236 12h50q31 0 70 1q131 188 189 266l175 225q-315 -147 -577 -344q-119 -90 -178 -159q8 -1 17 -1h18z" />
    <glyph glyph-name="five" unicode="5" horiz-adv-x="1700" 
d="M1285 980l-197 1q-236 0 -271 -14l-198 -196q165 53 510 72q55 3 104.5 3t100.5 -13.5t92 -46.5q89 -71 89 -220q0 -26 -4 -64t-41 -96.5t-102.5 -119t-158 -118.5t-207.5 -104q-256 -100 -547 -100q-180 0 -283 84q-88 71 -88 161q0 45 27 76.5t69 31.5q84 0 178 -70
q42 -23 103 -23t127 16t132 42t127.5 59t109.5 67q151 105 98 168q-27 32 -75.5 37t-75.5 5l-53 -1q-115 0 -437 -77q-34 -8 -48 -14q-29 -13 -73 -13q-70 0 -95 39q-8 13 -8 30q0 45 37 95q83 110 129 165l271 315q19 22 24 30.5t19.5 18.5t33.5 18q41 15 90 15h867
q23 0 31 -16t-6 -34q-90 -116 -152 -150q-106 -59 -249 -59z" />
    <glyph glyph-name="six" unicode="6" horiz-adv-x="1702" 
d="M673 163q82 0 251 99q115 66 172 148q30 43 34 80t-11.5 52.5t-38.5 23.5q-35 14 -97 14t-115 -24.5t-78 -24.5t-43.5 15.5t-18.5 35.5q0 42 50 77t112.5 70t133.5 61q157 58 302 58q106 0 172 -84q65 -82 65 -195q0 -129 -81 -220t-191.5 -166t-240.5 -131
q-279 -121 -544 -121q-333 0 -411 188q-24 58 -24 104t5.5 98.5t45.5 139t103 173t145 171t175 160.5t192.5 140.5t197.5 111.5q209 100 361 100q51 0 78 -23q63 -55 33 -89q-13 -15 -33 -18t-38.5 -9t-63.5 -28.5t-102 -57.5t-122.5 -81.5t-131 -102t-127 -118.5
t-110.5 -132q-125 -174 -125 -334.5t119 -160.5z" />
    <glyph glyph-name="seven" unicode="7" horiz-adv-x="1530" 
d="M307 803q-50 0 -50 44q0 37 45.5 88.5t79.5 86.5l111 107q55 48 101.5 60.5t85 18.5t84 11t95 9t95.5 6q81 5 145 5h43q297 0 382 -27q69 -23 96 -100q25 -72 -6 -109q-48 -56 -110.5 -77t-115.5 -58.5t-109 -89t-113 -114t-110.5 -128.5t-100 -132t-82.5 -124
q-76 -123 -81 -172.5t-34.5 -79t-72 -48.5t-93 -28.5t-98.5 -13.5q-60 -5 -111 -5t-69 3t-34 12q-69 41 8 201q108 223 482 519l361 277q-42 13 -130 13t-155 -8.5t-132.5 -22t-126 -29.5t-109.5 -32q-96 -30 -115 -43q-30 -20 -56 -20z" />
    <glyph glyph-name="eight" unicode="8" horiz-adv-x="1702" 
d="M1372 1267q53 0 57 -75q0 -10 -3 -23q143 -4 208 -64q22 -21 25 -50t3 -67q0 -94 -44 -132q-50 -57 -290 -160l-132 -57l176 -127q91 -69 91 -172q0 -53 -23.5 -99.5t-69.5 -86t-134.5 -78.5t-193.5 -66q-210 -53 -392 -53t-273 9t-149 22q-92 22 -141 63q-53 46 -53 150
q0 78 35 142q49 72 351 203l164 69l-96 76q-42 35 -52.5 55t-10.5 64t23 102t76 107q139 147 510 217q167 31 338 31zM1007 791q231 102 258 129q24 22 24 54.5t-4.5 54.5t-7.5 42q-369 -45 -378 -119q-5 -57 108 -161zM446 261q-1 -20 18.5 -38.5t51.5 -30.5
q67 -26 125 -26t99.5 5.5t77.5 18.5q87 32 92 92q3 55 -133 177l-121 -54q-206 -95 -210 -144z" />
    <glyph glyph-name="nine" unicode="9" horiz-adv-x="1701" 
d="M1062 1028q-82 0 -252 -98q-113 -66 -172 -149q-30 -43 -34 -80t12 -52.5t38 -24.5q36 -13 97 -13t115 24.5t79 24.5t43.5 -16t18.5 -36q0 -41 -50.5 -76.5t-113 -70t-132.5 -60.5q-156 -58 -302 -58q-106 0 -173 85q-64 81 -64 194q0 129 81 220t191.5 166t239.5 131
q279 121 544 121q334 0 412 -188q24 -58 24 -104.5t-5.5 -99t-47 -140.5t-107.5 -177.5t-151 -178t-181.5 -168.5t-199.5 -148.5t-204 -118.5q-215 -107 -366 -107q-49 0 -70 34q-44 73 62 143q16 11 34.5 20.5t62.5 34t99.5 59.5t118.5 80t125.5 98t121 113t105.5 126
q120 169 120 329.5t-119 160.5z" />
    <glyph glyph-name="colon" unicode=":" horiz-adv-x="1187" 
d="M812 739q19 -27 19 -73.5t-29 -88t-75 -71.5q-94 -60 -213 -60q-115 0 -162 59q-27 33 -27 78q0 89 91 158t217.5 69t178.5 -71zM666 268q19 -27 19 -73.5t-29 -88t-75 -70.5q-94 -61 -213 -61q-115 0 -162 59q-27 33 -27 78q0 89 91 158t217.5 69t178.5 -71z" />
    <glyph glyph-name="semicolon" unicode=";" horiz-adv-x="1187" 
d="M808 739q20 -27 20 -73.5t-29 -88t-75 -71.5q-94 -60 -213 -60q-115 0 -163 59q-26 33 -26 78q0 89 91 158t217.5 69t177.5 -71zM24 -199q-11 12 -11 28t25 28l50 23q118 56 170 108q-90 10 -126 61q-21 28 -21 67.5t25 78t66 68.5q90 65 208 65q139 0 190 -66
q19 -26 19 -76t-26 -104.5t-67.5 -100.5t-94.5 -84t-107 -66q-184 -97 -263 -61q-11 5 -18 12z" />
    <glyph glyph-name="less" unicode="&#x3c;" horiz-adv-x="2209" 
d="M417 620l1013 460l62 -135l-793 -360l-93 -29l96 -30l790 -358l-62 -135l-1013 460v127z" />
    <glyph glyph-name="equal" unicode="=" horiz-adv-x="2038" 
d="M576 841h849v-153h-849v153zM576 323h849v-153h-849v153z" />
    <glyph glyph-name="greater" unicode="&#x3e;" horiz-adv-x="2209" 
d="M176 168l790 358l96 30l-93 29l-793 360l62 135l1013 -460v-127l-1013 -460z" />
    <glyph glyph-name="question" unicode="?" horiz-adv-x="1698" 
d="M396.5 643q22.5 41 59 80.5t83 77t95 70.5t95.5 61l142 83q22 13 22 18.5t-20 14t-55 16.5q-82 17 -147 17t-102 -7.5t-72 -17.5q-56 -14 -110 -36q-32 -13 -55 6q-42 36 -19 66q27 34 64 67l68 61q121 101 194 130q71 30 202.5 30t220.5 -17.5t161 -52.5
q163 -79 163 -210q0 -91 -173 -226q-49 -39 -100 -75l-188 -129q-85 -58 -85 -79.5t18.5 -35.5t46.5 -21q49 -14 113 -14q51 0 120.5 9.5t73.5 9.5q16 0 27 -8q24 -17 12 -34l-20 -30q-70 -106 -444 -106q-320 0 -394 133q-19 34 -19 71t22.5 78zM388 96q0 20 16.5 51.5
t52.5 60.5q90 73 235 73q133 0 186 -50q20 -19 20 -50.5t-21 -68.5t-56 -68q-82 -73 -178 -73q-137 0 -196 31.5t-59 93.5z" />
    <glyph glyph-name="at" unicode="@" horiz-adv-x="2891" 
d="M1399 546q-39 -38 -39 -65.5t44 -27.5t202 92l68 41q158 97 267 97q92 0 121 -81l14 -43q25 -80 41 -80t48.5 17.5t72.5 47.5t82.5 71t77.5 88q79 108 79 203t-35.5 160.5t-96.5 104.5q-113 72 -314 72q-345 0 -717 -139q-249 -94 -439 -238q-196 -150 -273 -342
q-40 -97 -40 -176.5t8.5 -128t38.5 -86.5t70.5 -70.5t85 -61.5t82.5 -57q87 -62 87 -114q0 -69 -45 -120q-53 -61 -149 -61q-123 0 -247 83q-165 112 -241 297q-36 90 -36 208.5t50 246t138 237t206.5 200.5t256.5 164.5t288 128t300 90.5q302 74 561 74q529 0 687 -254
q56 -90 56 -220q0 -262 -536 -618l-79 -50q-137 -84 -227 -81q-88 2 -129 155l-20 72l-176 -108l-102 -58q-186 -100 -260 -100t-124 25t-86 65q-74 85 -74 199q0 119 89 198q141 123 406 225q258 100 412 100q33 0 43.5 -18t10.5 -45q0 -51 -58 -76l-118 -51
q-237 -101 -332 -192z" />
    <glyph glyph-name="A" unicode="A" horiz-adv-x="2551" 
d="M257 -67q-52 0 -98.5 24.5t-84.5 69.5q-85 103 -85 247q0 59 46.5 118.5t152.5 107.5q238 107 695 107l837 649q42 33 50 40q13 14 33.5 14t40 -4t35.5 -11q35 -15 35 -35q0 -14 -7 -22l-572 -628h244q16 36 53 100l92 150q54 86 106 162l101 140q155 207 224 207
q7 0 54.5 -18.5t80.5 -36.5q80 -42 80 -79q0 -35 -31 -73.5t-65.5 -90.5t-74 -117.5t-79.5 -139t-72 -142.5q-73 -157 -73 -212.5t8.5 -80.5t20.5 -37q19 -19 61 -19t85.5 15.5t85 39t81.5 51t78 51.5q88 54 130 54t56.5 -19.5t14.5 -50.5t-26 -83.5t-73 -108.5t-111 -110.5
t-140 -97.5q-171 -95 -335 -95q-148 0 -261 104q-126 115 -126 297v18t1 19l-419 -53q-177 -174 -428 -298q-252 -123 -421 -123z" />
    <glyph glyph-name="B" unicode="B" horiz-adv-x="2041" 
d="M188 114.5q-19 45.5 -19 79t18 79.5t49 106.5t72 132t88 144.5l94 145q49 71 96 132q-200 -64 -296.5 -124.5t-148.5 -88.5t-86 -28q-56 0 -56 70q0 100 104 246q108 151 223.5 187t258 68.5t296.5 56.5q334 52 621 52q328 0 419 -62q81 -55 110 -152q14 -47 14 -101
t-52.5 -112.5t-139.5 -110.5q-164 -100 -430 -180q151 -29 209.5 -66.5t82.5 -75t24 -95t-50 -118.5t-138.5 -114t-209 -96t-261.5 -73q-294 -64 -612 -64q-138 0 -223 81q-38 36 -57 81.5zM802 784q-150 -260 -150 -360q0 -46 48 -86q45 -38 94 -38t108 4.5t121 12.5
t122 19t107 25q104 31 104 63q0 58 -161 96q-131 30 -250 30q-46 0 -66 18.5t-20 43t24.5 51t66.5 43.5q340 85 568 191q112 52 112 79q0 39 -23 63q-41 43 -91 43t-114 -4t-138 -12q-163 -16 -323 -46q-23 -47 -61 -106z" />
    <glyph glyph-name="C" unicode="C" horiz-adv-x="1639" 
d="M538 470q0 -167 333 -167q225 0 565 170l102 54q232 118 262 51q8 -18 8 -41.5t-19.5 -48t-52.5 -54t-77 -62t-93 -64.5l-98 -61q-50 -30 -108 -59l-146 -72q-343 -160 -647 -160q-266 0 -409 105q-128 93 -128 240q0 203 183 409q158 177 433 336q240 139 512 228
q257 85 417 85q34 0 57 -22q42 -39 42 -77q0 -148 -123 -239q-105 -77 -245 -77t-210 28q-261 -101 -424 -271q-68 -71 -101 -133t-33 -98z" />
    <glyph glyph-name="D" unicode="D" horiz-adv-x="2214" 
d="M268 201q0 39 25 86.5t61 108.5l176 285l197 305q-232 -61 -385 -151q-53 -31 -88 -64q-66 -51 -107 -51q-75 0 -75 67q0 30 11.5 54t30 57t43 72.5t54.5 82t64 81.5q76 89 131 115t119.5 45.5t151.5 35.5q201 37 436 37q509 0 800 -147q242 -123 242 -342
q0 -47 -13.5 -113t-63 -166t-134.5 -193t-206.5 -174.5t-283.5 -142.5q-346 -131 -818 -131q-184 0 -285 82q-83 66 -83 161zM780 476.5q-13 -36.5 -13 -57.5t12.5 -42.5t37.5 -38.5q57 -37 169 -37t229.5 18t215.5 48t175 68.5t132 78.5q110 83 123 153q3 16 3 34
q0 205 -438 291q-168 34 -363 38q-192 -347 -231 -432t-52 -121.5z" />
    <glyph glyph-name="E" unicode="E" horiz-adv-x="1867" 
d="M101.5 112q-43.5 51 -57.5 96q-22 67 -22 115t31.5 110t104.5 123q160 133 491 228q-106 45 -121 143q-15 112 96 199q205 161 788 218q180 17 261.5 17t116 -26t41 -77.5t-19.5 -86.5t-74 -56q-89 -39 -243 -39q-113 0 -206 34q-25 10 -39 21q-200 -62 -227 -139
q-8 -20 -6 -37q9 -61 80 -90t216 -37q48 -4 71.5 -26t27 -46t-3.5 -37.5t-21 -22.5q-24 -16 -95 -27t-165 -30.5t-179 -41.5t-157.5 -45t-125.5 -44q-112 -47 -108 -75.5t23 -49.5t51 -37q60 -28 146.5 -35.5t168 -7.5t175 13.5t175 34.5t150 44.5t119.5 44.5l82 34
q32 14 58 14q69 0 78 -73q12 -99 -222 -223q-313 -167 -692 -218q-88 -12 -211.5 -12t-240.5 16t-194 49.5t-120.5 84.5z" />
    <glyph glyph-name="F" unicode="F" horiz-adv-x="1700" 
d="M1852 1400q67 0 67 -46q0 -61 -93 -186q-75 -100 -215 -134q-42 -11 -76.5 -11t-74.5 5q-103 13 -258 17q-122 -216 -180 -330l155 4q47 -2 115 5l100 9l40 4q41 4 51 -11q19 -27 19 -63t-5 -61.5t-14 -48.5q-20 -51 -45 -71q-54 -43 -180 -43q-24 0 -46 2l-305 24
q-77 -183 -121 -357q-34 -132 -257 -132q-184 0 -235 86q-17 29 -13 55t19.5 58.5t41.5 80.5l142 243q-4 0 -26.5 2t-33.5 5q-27 9 -44 33t-17 50q0 51 30 77t62.5 30t70.5 5l84 2q154 239 223 338q-248 -18 -431 -117q-51 -28 -82.5 -55t-53.5 -27t-37.5 6.5t-28.5 17.5
q-28 25 -28 54.5t16 54.5q191 295 426 361q83 23 182 23q412 0 654.5 10t264.5 13l93 14q23 4 44 4z" />
    <glyph glyph-name="G" unicode="G" horiz-adv-x="2371" 
d="M700 457q0 -92 207 -92q280 0 537 99q81 31 165 68l113 66q183 104 260 104q33 0 52 -10q50 -16 80 -51q55 -64 55 -97.5t-17 -86t-46 -114t-67 -127.5t-81 -126q-96 -137 -171 -198q-28 -35 -69 -78t-112.5 -91.5t-149 -86t-158 -65t-154.5 -45.5q-142 -35 -218.5 -35
t-111 30.5t-34.5 77t32.5 92.5t88 89t129 82.5t154.5 74.5q147 64 327 115q102 140 182 286l-49 -28q-25 -13 -49 -24q-181 -109 -457 -194q-328 -101 -625 -101q-167 0 -265 111q-89 101 -89 256q0 164 221 353q194 166 525 323q300 144 621 236q317 92 512 92
q115 0 156 -78q16 -29 16 -82.5t-40 -95.5t-104 -66q-115 -44 -282 -44t-302 20q-190 -62 -387 -182q-165 -100 -285 -216q-110 -106 -110 -161z" />
    <glyph glyph-name="H" unicode="H" horiz-adv-x="2038" 
d="M1871 555q-56 14 -239 14q-149 -310 -209 -553q-34 -132 -257 -132q-184 0 -234 86q-18 29 -14 56.5t26 72t60 110.5l88 150l108 177l-403 -33q-140 -242 -310 -456q-83 -101 -244 -101q-122 0 -215 52q-56 31 -54 56q1 35 40 70q160 140 319 342l-153 -12
q-115 -3 -144 50q-23 43 -23 98q0 38 18 63t40 31t51 7l416 51q247 398 279 446.5t63 81.5q77 78 157 78q56 0 105 -45q22 -20 22 -46q0 -51 -56 -166l-146 -297l448 56q188 272 259 363q145 185 202 213q108 54 157 54t61 -27t7.5 -56t-29 -73.5t-63.5 -109.5l-199 -332
q66 -6 91 -34q44 -48 44 -152q0 -75 -19 -140q-8 -13 -50 -13z" />
    <glyph glyph-name="I" unicode="I" horiz-adv-x="1531" 
d="M1112 1034q0 68 -50.5 68t-125 -18t-159.5 -56q-194 -87 -351 -240q-21 -18 -56.5 -18t-59.5 17.5t-24 45.5t12 59.5t25 75t27 86.5q36 103 67 136q57 47 305 104q275 63 538 63q110 0 182 -81q62 -70 62 -147q0 -66 -98 -313q-155 -394 -317 -616q-45 -62 -89 -101
q-64 -50 -168 -84q-176 -59 -228.5 -59t-103.5 13.5t-98.5 35t-88.5 49t-72 54.5q-66 59 -66 96q0 35 85 113q87 80 143 80q38 0 92 -29l77 -44q25 -13 44.5 -13t54.5 28.5t75 75.5t82.5 108t83 125.5t77 128.5t63.5 117q60 115 60 140z" />
    <glyph glyph-name="J" unicode="J" horiz-adv-x="1879" 
d="M222 282q-18 -8 -40.5 -8t-50 32t-49.5 80q-48 108 -48 211q0 65 25 103l93 102q44 50 95 88q590 430 1195 462q85 5 132 5t76.5 -13.5t56.5 -35t51 -48t42 -52.5q38 -53 38 -75t-9 -51.5t-21 -64t-26 -68.5l-22 -58q-149 -385 -354 -723q-68 -113 -113.5 -174.5
t-76 -98.5t-65.5 -73t-75 -68.5t-82 -57.5q-92 -54 -182 -54q-60 0 -136 63q-80 67 -80 136q0 112 219 327q115 113 209 183.5t136 95.5q157 297 193 372l56 119q42 93 42 111q0 45 -48 45t-123 -23t-161 -62.5t-178.5 -92t-181 -111t-169 -120.5t-142.5 -120
q-137 -127 -150 -196q-13 -62 -76 -87z" />
    <glyph glyph-name="K" unicode="K" horiz-adv-x="1871" 
d="M1554 1360q147 0 147 -81q0 -70 -111 -205q-14 -17 -60 -58l-114 -102l-340 -283q25 -45 85 -108t107 -103q102 -90 124.5 -90t57 17t77.5 44.5t91 62.5l252 191q36 28 72 28q75 0 75 -62q0 -81 -79 -189q-24 -32 -46 -54l-63 -58q-274 -251 -487 -332q-66 -26 -118 -26
t-100 18t-95 48t-91.5 69.5t-84.5 83.5q-73 80 -136 176l-184 -137q-294 -214 -359 -214q-70 0 -135 40q-19 11 -26 24q-37 37 -37 152t18.5 205.5t49.5 183t72 183.5t86 174t92 154.5t90 123.5q90 112 135.5 112t91.5 -8t83 -24q84 -38 84 -103q0 -39 -31 -84t-69 -106
q-102 -171 -142 -243l-67 -126q-59 -116 -59 -143q0 -23 38 -23q15 0 110 82l168 146l525 480q38 35 44 41q61 62 130.5 92.5t128.5 30.5z" />
    <glyph glyph-name="L" unicode="L" horiz-adv-x="1870" 
d="M760 796q-151 -24 -247.5 -24t-160.5 14t-120 43q-127 66 -147 183q-8 61 33 75q12 4 28.5 4t34.5 -8q65 -47 226 -71q37 -5 59 -5t58 2t76 8q97 14 156.5 46.5t108.5 71.5t92 77l83 74q84 75 153 98t108 23t73.5 -11.5t69.5 -31.5q88 -50 88 -104q0 -72 -80 -160
q-83 -90 -201 -145q-364 -436 -417 -505l142 -52q265 -100 398 -100q70 0 168 57q31 18 56 45q49 53 95 53t67.5 -27t14 -65t-30.5 -81.5t-58.5 -91t-82 -95t-99.5 -85.5q-121 -84 -230 -84q-72 0 -227 47l-369 109q-72 21 -136 36q-128 -110 -277 -134q-54 -8 -114 -8
t-94 15.5t-52 40.5q-29 42 -29 130q0 51 80 139q139 151 308 209q60 21 104.5 21t95.5 -7q175 213 196 274zM1195 932q-4 -5 -2 -4t9 6z" />
    <glyph glyph-name="M" unicode="M" horiz-adv-x="2725" 
d="M1808 243l2 68q2 64 12 140l16 118q5 42 10 76q-95 -104 -153 -162l-115 -112q-386 -361 -460 -361q-109 0 -229 47q-65 26 -74 54q-14 35 -14 95.5t4 111.5t10 101.5t12.5 97t10.5 81.5q10 79 4 79l-372 -457q-263 -309 -299 -342q-77 -70 -170 -70q-46 0 -76 23t-30 57
q0 68 57 142l888 1129l104 125q186 219 244 219q81 0 154 -41q65 -36 74 -70q4 -13 -17 -121l-35 -189q-59 -316 -59 -407.5t21 -91.5q68 0 262 223l324 388q107 123 142 140q10 5 29 5t42.5 -5t48 -13t47.5 -19t41 -23q39 -26 38.5 -42.5t-8.5 -71t-20 -132.5
q-83 -517 -86.5 -600t17 -104t60.5 -21q73 0 212 87q94 59 155.5 59t61.5 -59q0 -61 -66 -148q-95 -126 -284 -228q-159 -85 -302 -85q-234 0 -234 309z" />
    <glyph glyph-name="N" unicode="N" horiz-adv-x="2041" 
d="M213 42q-62 -79 -101.5 -87.5t-65.5 -1.5t-46 23q-42 36 -42 96q0 44 27 88q583 927 634 1004q120 178 139 200l25 30q112 129 291 129q139 0 190 -61q12 -13 12.5 -50t3.5 -118l5 -172q3 -91 7 -186l6 -186q8 -180 14 -310q39 69 79 161l85 194q116 260 224 411
q68 97 224 97q115 0 206 -50q55 -30 54 -53q0 -21 -15 -40l-21 -29q-71 -99 -140 -206l-134 -213q-282 -466 -327 -535t-68.5 -96.5t-61 -46.5t-85.5 -34q-104 -33 -173 -33q-116 0 -157 33q-44 40 -124 464l-34 188q-16 96 -29 191q-33 -51 -85 -121l-294 -392z" />
    <glyph glyph-name="O" unicode="O" horiz-adv-x="2214" 
d="M1463 1382q49 17 109.5 17t122 -9t129.5 -29t136 -51t122 -74q121 -96 121 -228q0 -156 -165 -342q-236 -266 -676 -474q-277 -130 -556 -184q-138 -26 -268.5 -26t-225 35.5t-154 88.5t-86.5 114t-27 129t40.5 159t105 180.5t145 174t160.5 156.5q138 123 265.5 211.5
t215.5 139.5t147 78q100 47 122 47t49.5 -13t60.5 -31q82 -46 107 -69zM532 276q18 -1 67 -1t142 25t190 67.5t194.5 99t186.5 118.5t166.5 126.5t134.5 124.5q122 127 122 193q0 68 -82 101q-55 23 -118 23q-105 0 -173 -18q-292 -137 -569 -358q-198 -158 -283 -299
q-44 -73 -44 -135.5t66 -66.5z" />
    <glyph glyph-name="P" unicode="P" horiz-adv-x="1870" 
d="M192 62q-17 29 -12.5 56.5t26.5 72t60 111.5l88 150l108 178l122 192l128 192q-241 -60 -368 -143q-21 -14 -36 -29l-34 -34q-31 -31 -61 -31t-46.5 7.5t-26.5 19.5q-25 29 -9 64q43 138 123 282q44 80 70 92q190 82 792 119q196 12 412 12q141 0 268 -101
q142 -115 142 -288q0 -226 -388 -428q-215 -113 -404 -158q-49 -11 -75.5 -11t-60 7t-60.5 20q-64 32 -64 77q0 64 123 130l215 116q191 102 236 148t45 75.5t-11.5 54.5t-31.5 45q-43 43 -92 43q-102 0 -246 -16l-122 -215q-234 -425 -318 -764q-34 -132 -257 -132
q-184 0 -235 86z" />
    <glyph glyph-name="Q" unicode="Q" horiz-adv-x="2552" 
d="M1831 289q204 -95 292 -95q12 0 35 5l50 11q27 7 57.5 15t58.5 14q109 23 129 -13q10 -18 10 -36q0 -56 -29.5 -97t-66 -75t-85 -67.5t-105.5 -60.5q-127 -60 -249 -60q-148 0 -411 182l-131 88q-147 94 -214.5 94t-115.5 -25.5t-92 -57.5q42 -6 72 -8.5t46.5 -5.5
t29.5 -22.5t13 -39t-5 -34t-16 -25.5q-23 -26 -61.5 -26t-96.5 4.5t-128 15t-147 28t-151 44.5t-141.5 64t-118.5 86q-112 108 -112 252q0 269 342 509q320 225 795 337q313 73 613 73q221 0 328 -48q155 -70 155 -283q0 -196 -146 -404q-156 -222 -404 -339zM1588 409
q230 148 318 357q32 75 32 168q0 189 -240 189q-192 0 -490 -157q-305 -161 -469 -362q-121 -148 -121 -273q0 -96 120 -156q85 111 292 225q203 110 278.5 110t279.5 -101z" />
    <glyph glyph-name="R" unicode="R" horiz-adv-x="2038" 
d="M126 843q-64 0 -64 61q0 28 29 101.5t50 114.5q48 96 98 133q80 59 625 107q237 20 345 20t153.5 -3t94.5 -10.5t98 -19t93 -28.5q95 -37 133 -92q119 -173 119 -282q0 -122 -186 -239q-56 -36 -120 -72q-233 -126 -273 -149q84 -163 329 -337q29 -20 46 -30
q75 -44 177 14q28 17 57 17t51 -21.5t22 -47.5q0 -119 -159 -256q-118 -102 -213 -102q-77 0 -335 226q-146 128 -237 229t-125 150.5t-34 85.5t17.5 64t47.5 54q47 40 134 85.5t142 86.5t95 85q88 93 88 168q0 49 -30 82q-55 59 -102 59q-81 0 -198 -11l-122 -216
q-233 -423 -318 -762q-34 -132 -257 -132q-184 0 -235 86q-17 29 -12.5 56.5t26.5 72t60 111.5l89 152l109 179l123 193l128 192q-349 -75 -509 -162q-24 -13 -50 -13z" />
    <glyph glyph-name="S" unicode="S" horiz-adv-x="2044" 
d="M1640 1006q-99 0 -138 94q-144 0 -316 -70q-107 -44 -144 -81t-39.5 -58t20.5 -35.5t64.5 -27.5t96.5 -26q288 -67 365 -93q153 -51 229 -112q72 -61 72 -166q0 -87 -53.5 -147t-141.5 -107t-196.5 -83.5t-229 -62.5t-237.5 -43q-229 -32 -391 -32q-295 0 -455 71
q-60 27 -98 135q-30 89 -30 146.5t10 63.5t41 0.5t81 -18.5l120 -32q279 -70 590 -70q229 0 388 41q94 25 100 56q4 27 -148 67q-69 19 -160 40q-441 107 -532 138t-118.5 55t-45.5 53q-33 57 -33 108.5t5.5 79.5t15.5 52q21 49 53 67q257 144 755 253q443 98 729 98
q58 0 87 -20q50 -37 44 -79t-25.5 -77.5t-48.5 -64t-64.5 -50t-73.5 -35.5q-76 -28 -148 -28z" />
    <glyph glyph-name="T" unicode="T" horiz-adv-x="1868" 
d="M1822 1382q67 0 67 -47q0 -60 -93 -171l-19 -22q-82 -100 -208 -137q-44 -13 -72 -13q-36 0 -56 2t-58 5l-85 7q-108 7 -216 13q-199 -195 -338 -425q-51 -85 -51 -105q0 -96 64.5 -136t174 -40t187 11.5t146 29t127 39t103 40.5t73.5 34l39 20q31 8 58 -7q48 -29 48 -66
t-43 -74q-347 -299 -789 -363q-144 -21 -273 -21t-201.5 13.5t-121 36.5t-76.5 53.5t-42 64.5q-21 51 -21 119.5t19.5 112.5t48.5 85t63.5 81t56 70t48.5 60q154 160 207 212l172 164q-158 0 -219.5 -16.5t-105 -30.5t-88.5 -30t-82 -31q-85 -34 -100 -46.5t-37 -12.5
t-40.5 7.5t-33.5 21.5q-33 29 -33 64.5t23.5 69.5t72.5 77.5t101 84.5l95 75q44 35 59 57q44 64 211 86q48 7 98.5 7t138 -8t209.5 -17q326 -26 479.5 -26t175.5 4l45 7q65 11 92 11z" />
    <glyph glyph-name="U" unicode="U" horiz-adv-x="2039" 
d="M1578 473q0 -101 63 -101q28 0 97 44q136 91 188 128l80 59q28 21 55.5 43t67.5 38.5t65 16.5t32 -18t7 -44t-10.5 -52.5t-27.5 -56.5q-48 -83 -98 -131t-87 -79l-83 -68q-233 -182 -397 -237q-45 -15 -105.5 -15t-116.5 29t-89 75q-59 84 -59 228q0 61 10 119
q-219 -235 -377 -335q-209 -132 -438 -132q-134 0 -244 91q-117 97 -117 233q0 259 340 730l97 130q100 125 157 179q13 10 35 10q73 0 165 -74q99 -79 90 -148q-8 -82 -104 -205q-42 -53 -89.5 -107.5t-90.5 -110.5q-99 -130 -111 -227q-7 -53 41 -79q14 -8 55 -8
t112.5 26.5t145 70t146 98.5t138 112t120.5 111l95 97q296 328 330 363q74 76 91 76t38.5 -9t46 -24t49 -34t45.5 -41q45 -47 49 -83q6 -22 -28.5 -87.5t-74.5 -111.5l-88 -102q-181 -208 -208 -321q-8 -34 -8 -66z" />
    <glyph glyph-name="V" unicode="V" horiz-adv-x="1703" 
d="M345.5 -26q-37.5 20 -87 73.5t-92.5 138.5q-102 198 -102 463q0 280 150 497q94 134 210 186q59 26 122.5 26t112 -23.5t79.5 -56t45.5 -65.5t14.5 -69.5t-24 -79.5t-58.5 -79t-74.5 -68.5t-71 -66.5q-72 -149 -72 -290q0 -148 77 -225q24 -24 54 -35q114 37 331 283
q162 194 229 284l113 157q161 232 330 308q65 30 124.5 29t95 -14.5t58.5 -35.5q44 -44 44 -100q0 -103 -70 -184q-210 -230 -320 -342l-208 -203l-190 -174q-439 -385 -610 -385q-100 0 -136.5 15.5t-74 35.5z" />
    <glyph glyph-name="W" unicode="W" horiz-adv-x="2547" 
d="M2506 1398q197 0 197 -162q0 -100 -59 -203t-126.5 -195.5t-145 -183t-163 -176t-172 -161.5t-171 -139t-160.5 -108q-160 -97 -248 -97q-163 0 -288 129q-106 110 -101 308q-148 -160 -361 -287q-207 -124 -324 -124q-99 0 -194 113q-92 108 -92 195.5t26.5 175.5
t71 180t102.5 184.5t120 180t124 165.5l113 141q23 27 59.5 27t76.5 -21t73 -54q77 -75 75 -143q-5 -84 -185 -323l-88 -120q-95 -136 -97 -188q-2 -30 17 -52q34 -38 58 -38q146 0 404 248l156 156q144 276 302 455q69 79 94 79q93 0 160 -70q58 -59 56 -102t-20 -81
t-46.5 -78.5t-63.5 -82.5l-72 -86q-117 -140 -140 -206q-25 -73 -26 -114t17 -68.5t47 -44.5q58 -33 141 -33q50 0 149 86q163 142 284 354q41 73 60.5 124t38 92t43.5 87t56 92.5t66 84.5q80 84 156 84z" />
    <glyph glyph-name="X" unicode="X" horiz-adv-x="1867" 
d="M171 -7.5q-13 21.5 -13 56.5t17.5 58.5t45.5 46.5l451 391l-191 373q-20 37 -32 52q-25 31 -62 31t-73.5 -8t-76.5 -10t-54 19.5t-14 51.5q0 71 46.5 101t85.5 50t85 34q89 27 242 37q62 3 118 -54q15 -16 23 -29l220 -373l464 402q168 143 259 143q65 0 139 -52
q81 -57 81 -123q0 -42 -32 -62q-6 -3 -23 -15l-242 -180l-487 -381q158 -259 182 -289q53 -80 158 -80q48 0 87 15t71 15t55 -15.5t23 -40.5q0 -54 -91 -125q-87 -65 -303 -144q-114 -41 -168 -44t-88 13t-60 43q-44 43 -84 128l-127 255l-366 -286q-38 -30 -75 -50
t-68.5 -20t-52 7.5t-39 22t-31.5 36z" />
    <glyph glyph-name="Y" unicode="Y" horiz-adv-x="1869" 
d="M369 104q-57 0 -109 25.5t-89 68.5q-117 134 -42 336q73 193 269 462q101 138 180 223q131 141 162.5 141t70 -20t72.5 -50q78 -72 74 -138q-3 -53 -99 -179l-88 -113q-286 -356 -131 -356q34 0 70 17q392 179 729 517l149 154q64 67 106.5 107.5t67.5 40.5t53 -17
t49 -41q47 -52 45 -92q-18 -248 -317 -840q-62 -124 -130 -246q-179 -310 -252 -420.5t-126 -179.5q-114 -147 -158 -147q-49 0 -166 97q-124 101 -124 162q0 19 72 111l260 327q199 256 271 358q157 224 231 376q-253 -210 -346 -281l-172 -127q-391 -276 -582 -276z" />
    <glyph glyph-name="Z" unicode="Z" horiz-adv-x="1871" 
d="M702 402q39 17 92 17t88 -8t79 -21q134 -43 189 -63l187 -67q81 -29 93 -29q63 0 138 36.5t134.5 77.5t81.5 48t46 7t41.5 -15.5t14.5 -44t-16.5 -60.5t-34.5 -66q-45 -71 -88 -110l-90 -77q-186 -156 -392 -156q-56 0 -187 42l-309 100q-199 66 -256.5 66t-112.5 -18.5
t-111 -40t-114.5 -40t-102 -18.5t-65 12.5t-38.5 32.5q-43 48 -39 85.5t32 71.5t69 69t89.5 69.5t93.5 63.5l129 80q13 8 56 36l524 358q243 172 243 180q0 7 -38 7h-241.5t-156.5 -1h-109q-181 -2 -204 -10.5t-54 -31.5l-64 -44q-78 -53 -130 -53q-65 0 -83 53
q-17 50 16 95.5t70.5 80t84 66.5t92.5 56q102 54 149 54t111.5 3t146 7.5t175.5 11.5l188 12q95 6 185 12.5t165 11.5l130 7q54 3 71.5 3t41 -17t45.5 -45q58 -73 51 -142q-5 -57 -301 -256l-180 -118l-368 -228z" />
    <glyph glyph-name="bracketleft" unicode="[" horiz-adv-x="1359" 
d="M712 -34q44 0 44 -55q0 -65 -49 -96q-16 -10 -35 -10l-420 1q-53 0 -53 92q0 193 209 656q200 441 412 749q53 79 105 91q18 5 38 5h360q63 0 63 -45q0 -37 -26 -65q-49 -51 -84 -51h-223q-337 -456 -539 -946q-68 -166 -110 -326h308z" />
    <glyph glyph-name="backslash" unicode="\" horiz-adv-x="1703" 
d="M872 401l-48 84q-17 28 -52 80l-344 487q-32 45 -40.5 60t-2 37t21.5 45.5t36 46t43 37.5q50 35 72 11q8 -9 34 -53l151 -270q444 -844 485 -928l62 -128q20 -45 22.5 -59t-4 -31t-18.5 -30q-28 -27 -52 -27q-38 0 -50 27q-11 27 -38 80q-233 451 -278 531z" />
    <glyph glyph-name="bracketright" unicode="]" horiz-adv-x="1531" 
d="M127 -195q-63 0 -63 45q0 37 26 65q49 51 84 51h223q337 456 539 946q68 166 110 326h-308q-44 0 -44 55q0 65 48 96q16 10 36 10l420 -1q53 0 53 -92q0 -193 -209 -656q-200 -441 -412 -749q-53 -79 -105 -91q-18 -5 -38 -5h-360z" />
    <glyph glyph-name="asciicircum" unicode="^" horiz-adv-x="1876" 
d="M874 1190h127l460 -1013l-135 -62l-360 793l-29 93l-30 -96l-358 -790l-135 62z" />
    <glyph glyph-name="underscore" unicode="_" horiz-adv-x="1532" 
d="M1566 -208v-132h-1606v132h1606z" />
    <glyph glyph-name="grave" unicode="`" horiz-adv-x="849" 
d="M669 1072q-33 -10 -120 45t-145 99.5t-108 91.5q-113 106 -126 174q-11 50 15 97q49 88 113 88q40 0 64.5 -28t46.5 -61l48 -72q25 -38 57 -78l131 -154q64 -76 67.5 -97.5t3.5 -39.5q0 -60 -47 -65z" />
    <glyph glyph-name="a" unicode="a" horiz-adv-x="1530" 
d="M1737 751q32 0 32 -54q0 -93 -130 -241l-57 -58q-259 -259 -488 -345q-142 -53 -204 5q-51 49 -81 158l-24 87l-213 -131l-123 -70q-220 -120 -330 -120q-141 0 -235 109q-90 103 -90 239q0 134 107 239q153 150 483 275q312 117 504 117q65 0 65 -64q0 -44 -17 -66
t-70 -45l-126 -54q-280 -117 -410 -243q-37 -35 -37 -68t53 -33q52 0 242 112l83 49q193 116 323 116q110 0 146 -97q9 -26 17 -52.5t16 -47.5q18 -49 32.5 -49t41.5 14.5t59.5 37t67.5 49.5l121 97q161 134 242 134z" />
    <glyph glyph-name="b" unicode="b" horiz-adv-x="1360" 
d="M904 638q-42 0 -92 -16t-110 -42t-125 -59t-125 -67q-129 -73 -175.5 -111.5t-76 -67.5t-58.5 -53q-68 -56 -103 -56t-63 11.5t-51 32.5q-54 51 -54 121q0 124 219 487q94 156 182 274.5t169 202t155 141.5q152 119 242 119q26 0 43 -19t17 -41q0 -50 -31.5 -103.5
t-83.5 -134.5l-213 -323q-100 -154 -104.5 -172.5t-4.5 -26.5t11 -8t62 23l128 58q289 126 467 126q101 0 169 -93q63 -87 63 -188t-31 -174t-91.5 -115t-120.5 -78l-128 -76q-363 -203 -527 -203q-227 0 -227 118q0 64 62 95q571 309 596 325q52 33 52 63t-42 30z" />
    <glyph glyph-name="c" unicode="c" 
d="M1423 645q0 -47 -123 -182q-126 -137 -247 -223q-234 -174 -519 -238q-108 -25 -204.5 -25t-160 16.5t-114 44t-87.5 63.5t-62 76q-49 78 -49 144t14.5 116t40.5 95q91 164 366 290q217 101 414 131q85 13 121 13t60.5 -7.5t42.5 -20.5q40 -29 40 -79t-26 -94.5
t-66 -74.5q-78 -58 -174 -58q-131 0 -216 34q-59 -21 -100 -77q-34 -46 -34 -82.5t16.5 -71t46.5 -61.5q66 -58 159 -58q216 0 503 229l91 71q144 110 205.5 110t61.5 -81z" />
    <glyph glyph-name="d" unicode="d" horiz-adv-x="1530" 
d="M1705 739q45 0 45 -46q0 -73 -96 -206q-67 -93 -276 -258q-249 -195 -400 -195q-114 0 -172 96q-35 58 -57 170l-89 -64q-367 -254 -548 -254q-151 0 -242 110q-80 99 -80 237q0 152 104 240q212 178 527 293q128 47 162 47t62.5 -11.5t56.5 -29.5q66 -45 66 -87
q0 -34 -42 -55q-13 -7 -44 -19t-76 -33q-121 -57 -236 -138q-82 -70 -82 -111.5t58 -41.5q48 0 192 85l85 52q91 57 146 104l46 150q85 268 189 443q184 353 370 353q68 0 108 -25q72 -45 72 -99.5t-20 -115.5t-52.5 -121t-74.5 -119l-171 -226q-43 -55 -76 -107
q-58 -125 -58 -214q0 -128 93 -128q53 0 191 111l118 100q83 74 164 104q23 9 37 9z" />
    <glyph glyph-name="e" unicode="e" 
d="M1383 735q48 0 48 -54q0 -36 -24.5 -90.5t-70.5 -102t-105.5 -98.5t-139 -107t-175.5 -111t-204 -99q-239 -98 -463 -98q-171 0 -299 89q-134 93 -134 226q0 209 225 397q194 162 457 251q160 54 271 54q90 0 152 -44q66 -48 66 -129q0 -127 -201 -281q-32 -25 -58 -42
l-36 -24q-100 -70 -304 -157q63 -33 117.5 -33t98 13t98.5 37t117.5 57.5t126.5 73.5q143 89 248 182q55 51 140 81q28 9 49 9zM280 454l55 28q27 14 48 26q202 116 230 143t28 37.5t-6 24.5t-16 25q-24 28 -51 28t-59.5 -10t-65.5 -27.5t-63.5 -42t-53.5 -52.5
q-53 -63 -53 -109t7 -71z" />
    <glyph glyph-name="f" unicode="f" horiz-adv-x="850" 
d="M388.5 74.5q-98.5 -31.5 -184.5 -31.5t-194 78q-16 -87 -29.5 -173.5t-32.5 -165.5t-47.5 -147t-74.5 -117q-101 -107 -281 -107q-28 0 -46 21q-32 38 -26 86.5t38 138.5t81 198.5t110 230.5l129 246q-22 52 -22 93t14 82t39 77q57 85 127 85q13 0 27 -3q262 444 301 506
l55 86q154 227 292 272q47 15 96 15t80.5 -34t31.5 -108q0 -211 -236 -485l-260 -288q-69 -75 -132 -154q33 -38 61 -65.5t46.5 -27.5t54.5 12.5t82.5 33.5t99.5 48.5t103 56.5q110 64 158 105q84 71 132 71q35 0 51 -16q26 -26 26 -61.5t-38.5 -99t-104 -130t-151.5 -131.5
t-181.5 -115.5t-194 -82z" />
    <glyph glyph-name="g" unicode="g" horiz-adv-x="1530" 
d="M445 587q-61 -43 -108 -88t-47 -78t53 -33q37 0 108 36l217 115q60 31 107 73l71 62q76 69 159 69q43 0 86 -48t43 -98q0 -115 -94 -340l160 131l330 257q53 40 88 40q76 0 76 -73q0 -75 -98 -193q-46 -56 -128 -121l-554 -420q-55 -44 -87 -73q-132 -213 -254 -309
q-177 -140 -328 -140q-68 0 -111 38q-39 33 -39 77q0 41 22 88.5t59 95.5t84 95t100 91q140 111 199 153l98 71q58 123 100 266q-193 -170 -411 -267q-109 -49 -181 -49t-132 30t-103 79q-89 103 -89 239q0 142 107 239q161 146 456 254q284 105 481 105q65 0 65 -64
q0 -44 -16.5 -67.5t-79 -45.5t-138 -52t-143 -66t-128.5 -79z" />
    <glyph glyph-name="h" unicode="h" horiz-adv-x="1531" 
d="M415 647q0 -36 27 -36q33 0 85 44l87 75q138 119 263 119q81 0 144 -135q55 -116 99 -346q8 -38 13.5 -38t29 18t57.5 46q245 209 283.5 233.5t53.5 33t31 15.5q40 15 63 15q44 0 44 -46q0 -70 -92 -204q-103 -150 -273 -299q-198 -175 -346 -175q-156 0 -210 210
q-14 54 -22 101l-15 78q-6 31 -15.5 31t-39.5 -30l-74 -75q-124 -126 -208 -184q-169 -118 -296 -118q-152 0 -179 154q-8 46 -8 116.5t20 172.5t55 204q76 218 189 372l89 118q323 422 540 422q49 0 71 -48q7 -15 7 -45t-26 -77.5t-64 -98.5t-81.5 -103.5t-79.5 -103.5
l-75 -109q-147 -221 -147 -307z" />
    <glyph glyph-name="i" unicode="i" horiz-adv-x="1021" 
d="M806 1116.5q-34 -15.5 -76 -15.5t-81 14t-68 39q-63 54 -63 138q0 129 216 192q73 22 120 22t70.5 -10.5t38.5 -27.5q30 -34 30 -69.5t-8.5 -64.5t-24.5 -60t-39 -62t-52 -55.5t-63 -40zM469 -7.5q-72 -23.5 -141.5 -23.5t-144 33.5t-132.5 89.5q-129 125 -129 278
q0 141 84 286q77 131 196 220t221 89q146 0 156 -82q3 -25 3 -58t-15.5 -75.5t-40 -85t-54 -83t-56.5 -73.5q-52 -63 -83 -91q0 -34 51 -70q48 -34 81.5 -34t79 16t94 43t99 62t99.5 72l183 143q109 79 177 79q27 0 41.5 -19.5t14.5 -45.5t-26 -71.5t-71.5 -100.5
t-106.5 -115t-132 -118t-147.5 -110.5t-152.5 -92t-148 -63z" />
    <glyph glyph-name="j" unicode="j" horiz-adv-x="850" 
d="M611 1116q-34 -16 -69.5 -16t-73.5 14t-69 39q-71 57 -71 138q0 140 234 201q86 23 133.5 23t67 -10t33.5 -25q27 -29 27 -59.5t-11 -64.5t-31 -69.5t-46.5 -69t-58 -59.5t-65.5 -42zM-94 91q65 121 110 243l64 172q12 39 12 60.5t-6 35.5l-14 30q-19 42 -19 85.5
t20.5 75.5t53.5 57t75 43t86 29q85 23 132.5 23t67 -10t32.5 -25q28 -31 28 -65.5t-11.5 -85.5t-32 -112.5t-48.5 -132.5l-59 -146q-19 -44 -44 -97l169 132l271 201q47 33 61 44q36 28 74 28q69 0 84 -49q18 -63 -87 -197q-33 -42 -65.5 -70.5t-69.5 -56.5
q-562 -407 -608.5 -443.5t-71.5 -58.5q-61 -102 -116 -171q-85 -120 -193 -185q-82 -49 -159.5 -49t-120 38t-42.5 101t21.5 119.5t57 109.5t80.5 100.5t92.5 89.5t93.5 76z" />
    <glyph glyph-name="k" unicode="k" horiz-adv-x="1531" 
d="M900 -48q-205 0 -404 262l-116 -86q-185 -132 -246 -132q-69 0 -128 52q-17 15 -25 32q-37 37 -37 193.5t35 293.5t91 254q88 184 273 404q104 150 255 246q128 81 214 81q47 0 79.5 -21t32.5 -57t-28 -79q-329 -480 -380 -560t-72 -123t-31 -65.5t-19 -46.5
q-21 -56 -21 -81t38 -25q35 0 183 181l134 166q74 93 153.5 128t138.5 35q167 0 167 -81q0 -73 -111 -205q-12 -14 -36 -38l-134 -124l-89 -79q94 -110 185 -155q21 -10 35.5 -10t52.5 18.5t85.5 48t100.5 66.5l274 200q36 28 72 28q75 0 75 -62q0 -81 -79 -189
q-24 -32 -46 -54l-64 -58q-268 -249 -486 -332q-66 -26 -122 -26z" />
    <glyph glyph-name="l" unicode="l" horiz-adv-x="1021" 
d="M1182 706q64 0 64 -53q0 -65 -78 -155q-129 -150 -304 -292q-285 -228 -509 -228q-161 0 -264 140q-107 146 -107 392q0 323 315 714q200 249 377 338q55 28 84.5 28t54 -9.5t45.5 -26.5q49 -41 49 -99t-32 -137.5t-93 -169.5q-129 -191 -349 -366q-57 -109 -57 -262
q0 -69 44 -130q45 -61 99 -61q74 0 283 153l178 137q109 87 200 87z" />
    <glyph glyph-name="m" unicode="m" horiz-adv-x="2379" 
d="M1898 548q0 -147 92 -147q64 0 221 112q142 105 169 132q62 52 130 52q29 0 49.5 -19.5t20.5 -58.5t-19 -71t-48.5 -66t-73 -76t-99.5 -88.5t-122.5 -92.5t-137.5 -83q-160 -82 -289 -82q-148 0 -201 134q-31 77 -31 185l-291 -197q-299 -210 -356 -223q-29 -7 -58.5 -7
t-55.5 5.5t-46 18.5q-46 27 -46 80q0 21 28 102l86 236q40 114 40 137q0 8 -10 8t-37 -21t-65 -54l-238 -208l-125 -104q-192 -153 -313 -153q-57 0 -115 51q-63 54 -63 130t14.5 166t41.5 173.5t67 157t91 127.5q110 118 259.5 118t149.5 -88q0 -38 -41 -116
q-87 -172 -87 -185.5t8.5 -21t18.5 -7.5q21 0 60 34q257 225 323.5 279t128.5 95q142 93 226 93q69 0 112 -22q75 -39 75 -88t-13.5 -111t-29.5 -120l-30 -102q-14 -44 -14 -67.5t20 -23.5q48 0 191 136l97 91q167 150 253 150q41 0 73 -32q56 -56 56 -98q0 -23 -16 -62
q-30 -73 -30 -108z" />
    <glyph glyph-name="n" unicode="n" horiz-adv-x="1531" 
d="M1113 537q0 -91 53 -91q130 0 338 176l27 23q81 54 131.5 54t64 -15t13.5 -48q0 -74 -75 -157q-112 -136 -307 -258q-226 -142 -405 -142q-125 0 -157 139q-9 36 -13 69q-10 80 -21 89t-43.5 -1.5t-77 -35t-98.5 -59.5q-286 -190 -329 -217q-103 -64 -139 -64t-70.5 15
t-60.5 38q-54 51 -54 104q0 303 132 530q88 153 216 212q65 31 140 31q137 0 137 -90q0 -55 -65 -180l-30 -59q-32 -61 -31 -69q6 -30 27 -30q23 0 68 34l184 137l92 64q159 104 234 104q40 0 73 -32q61 -58 61 -101q0 -14 -2.5 -34t-5.5 -43l-4 -47q-3 -24 -3 -46z" />
    <glyph glyph-name="o" unicode="o" horiz-adv-x="1360" 
d="M1060 616q0 -54 92 -54q68 0 178 66l80 44q37 21 64.5 21t43.5 -17t16 -47t-20 -69.5t-55 -83t-82 -86t-101 -76.5q-120 -75 -223 -75q-109 0 -174 37q-20 12 -39 25q-107 -122 -310 -224q-216 -108 -377 -108q-169 0 -267 133q-79 108 -79 219q0 160 171 305
q126 106 243.5 161t212.5 85q201 63 362 63q72 0 128.5 -27.5t83.5 -55.5q64 -63 64 -161q0 -29 -6 -45t-6 -30zM242 427l-1 -3v-1q0 -43 19 -56q46 -28 97 -14.5t97 33.5q114 49 206 124q-16 32 -16 66q0 72 63 144q-80 0 -216 -75q-150 -83 -225 -171q-24 -30 -24 -47z
" />
    <glyph glyph-name="p" unicode="p" horiz-adv-x="1360" 
d="M349 250q33 14 92 44q361 185 396 204l42 23q65 42 60 66q-11 51 -55 41.5t-91.5 -25.5t-100.5 -39q-111 -46 -195 -92q-294 -169 -354 -205q-43 -97 -77 -193l-121 -342q-57 -159 -115 -215q-31 -31 -69 -31q-94 0 -148 65.5t-54 166t26 198t72 197.5q93 202 249 377
q95 255 316 495q135 146 251 206q58 30 99 30t62 -18.5t21 -46t-17 -69.5t-46 -94t-68 -111l-83 -121q-10 -15 -10 -27q0 -19 23 -19q26 0 96 33l160 74q210 95 402 95q100 0 188 -95q89 -96 89 -206q0 -170 -139 -262l-124 -82q-67 -42 -138 -83l-144 -79
q-243 -126 -375.5 -126t-192.5 33t-60 93q0 81 133 140z" />
    <glyph glyph-name="q" unicode="q" horiz-adv-x="1359" 
d="M622 110q37 55 58.5 92.5t21.5 51t-18.5 13.5t-51 -26.5t-96 -68.5t-130.5 -76q-152 -78 -263 -78q-132 0 -219 106q-83 99 -83 235q0 178 149 282q170 118 470 239q310 125 479 125q107 0 107 -88q0 -76 -77 -100.5t-156.5 -57.5t-155.5 -70l-145 -74
q-222 -118 -253 -152q-43 -48 -43 -78.5t47 -30.5t92 13.5t95.5 36.5t106.5 54l231 132q219 126 294 126q63 0 114 -44q55 -49 55 -121q0 -69 -131 -276l-162 -256q-42 -67 -91 -154.5t-108 -174t-112 -149.5q-102 -121 -177 -160q-20 -10 -43.5 2t-34.5 34q-64 121 26 339
q39 95 103 197z" />
    <glyph glyph-name="r" unicode="r" 
d="M-54 330q-19 0 -37.5 9t-34.5 29q-35 44 -35 120q0 81 97 202q94 117 219 202q134 92 230 92q85 0 115 -48l14 -22q16 -25 32 -25t50 3l142 10q33 3 52 3t43.5 -13.5t43.5 -35.5q42 -50 42 -110q0 -62 -137 -195l-66 -66q-71 -73 -71 -92t18 -33.5t39 -14.5t47.5 11.5
t65.5 34t89 54.5q137 90 183 124l83 59q85 60 121 60t59 -15.5t23 -53.5t-39 -102t-84.5 -111t-88.5 -87t-101.5 -86.5t-129.5 -94t-150 -85.5q-179 -87 -329 -87q-219 0 -267 113q-15 34 -15 76t16 90.5t42 96.5q52 95 123 168q60 63 60 75q0 19 -21.5 24t-63.5 5
q-18 0 -77 -52l-98 -90q-156 -142 -204 -142z" />
    <glyph glyph-name="s" unicode="s" 
d="M634 974q10 -20 10 -52.5t-33 -73.5q26 -27 66.5 -62.5t78.5 -77.5q92 -103 92 -197q0 -62 -85 -151q-26 -28 -57 -52q104 40 250 159l117 96q102 85 136.5 98t62.5 13t54.5 -14t26.5 -45.5t-10 -61t-24 -54.5q-20 -36 -58 -74q-105 -99 -203.5 -181.5t-203.5 -141.5
q-222 -124 -492 -124q-151 0 -262 77q-46 32 -70.5 66.5t-24.5 54t13 41t35 44.5t50.5 46t58.5 41q70 41 104.5 41t52.5 -8.5t33 -18.5q41 -28 58 -28q41 0 41 56q0 52 -55 125q-22 30 -46 59t-40 57q-32 -37 -80 -76l-97 -82q-101 -87 -187 -83q-50 4 -50 111q0 19 3 37
q5 31 61 75t81.5 60.5t43.5 29.5l106 72q0 102 118 187q112 80 222 80q70 0 103 -68z" />
    <glyph glyph-name="t" unicode="t" horiz-adv-x="1020" 
d="M1105 685q98 0 98 -68q0 -65 -92 -168l-49 -51q-89 -91 -207.5 -179t-208.5 -139q-209 -116 -379 -116q-160 0 -261 96q-87 83 -87 175t18 183t47 178q58 177 127 301q18 34 18 44h-129q-73 0 -113 34t-40 77t16 63t40 29q34 14 100 14l245 -1q8 3 32 43l61 105
q39 70 78.5 103t93 33t90 -10t61.5 -25q49 -32 49 -70q0 -16 -11 -43l-56 -136l475 1q62 0 62 -64q0 -152 -271 -152l-366 -1q-12 -6 -41 -58l-45 -83q-17 -31 -24 -47l-22 -49q-67 -151 -67 -218t35.5 -112t94.5 -45t115.5 23t110.5 56q98 61 154 113t93 79l70 49
q54 36 85 36z" />
    <glyph glyph-name="u" unicode="u" horiz-adv-x="1701" 
d="M1221 503q0 -101 89 -101t308 171l88 72q87 72 166 72q29 0 38 -15.5t9 -39t-8.5 -49t-23.5 -53.5q-33 -63 -64 -98t-72.5 -72.5t-98.5 -84t-126 -95t-139 -88.5q-158 -92 -260 -92q-122 0 -191 86q-65 80 -73 214q-180 -185 -381 -285q-123 -61 -208 -61t-149 20.5
t-112 61.5q-104 87 -104 242q0 222 159 428q50 64 112 112q134 84 284 84q66 0 94 -41q11 -16 11 -41.5t-14.5 -59t-35.5 -70t-46.5 -75.5t-46.5 -76q-50 -88 -50 -126.5t22 -56.5t54 -18q71 0 121 34.5t99 79.5l94 92l91 94q97 99 147.5 123.5t73.5 18.5t47 -21.5t47 -37.5
q54 -52 60 -94q2 -27 -4.5 -80.5t-6.5 -73.5z" />
    <glyph glyph-name="v" unicode="v" horiz-adv-x="1361" 
d="M1188 265.5q-57 -15.5 -138.5 -15.5t-178.5 56q-147 -129 -265 -200q-207 -124 -283 -124q-131 0 -210 43q-186 105 -186 411q0 180 99 337q71 113 188 162q59 25 112 25t87.5 -5.5t63.5 -16.5q67 -25 67 -64q0 -46 -32 -88t-56 -68l-46 -50q-56 -59 -69 -85
q-20 -41 -20 -90.5t9 -79t24 -53.5q32 -54 65 -54q46 0 195 136l88 81q-4 20 -4 45t14 61t38.5 76t58 80t71.5 73q85 72 161 72q135 0 135 -141q0 -88 -50 -188q0 -37 40 -62q12 -8 29.5 -8t40.5 14t46 33l43 37q119 108 184 108q30 0 49 -18q34 -31 34 -47t-8 -33
t-21 -38.5t-30 -44.5q-69 -94 -96.5 -122.5t-64 -59t-82 -55t-102.5 -40z" />
    <glyph glyph-name="w" unicode="w" horiz-adv-x="2040" 
d="M1843.5 247q-59.5 -17 -140.5 -17t-173 52q-229 -209 -422 -294q-60 -26 -90 -26t-57 4t-53 10q-63 16 -83 29.5t-41 36.5t-38 58q-39 77 -50 201q-242 -214 -295.5 -250t-88.5 -52q-64 -30 -137.5 -30t-128 32t-92.5 81q-78 102 -78 225q0 155 78 309q118 234 328 314
q70 27 119.5 27t77.5 -4.5t51 -16.5q54 -27 54 -86q0 -51 -42 -109t-72 -94t-55 -73q-59 -86 -59 -149q0 -46 61 -46q95 0 298 188q42 142 135 242q104 112 230 112q106 0 144 -49q13 -16 13 -30.5t-17 -41.5l-96 -150q-112 -175 -112 -262q0 -77 94 -77q71 0 253 177
q-7 27 -7 55t13.5 62t37.5 72t56 76t69 69q83 68 157 68q135 0 135 -137q0 -87 -50 -182q0 -31 34 -53q10 -7 28.5 -7t48.5 16t60 38t56 44.5t53 44.5q89 69 133 69q30 0 49 -18q34 -31 34 -47t-8 -33t-21 -38.5t-30 -44.5q-69 -94 -97.5 -124.5t-68 -64.5t-89 -61.5
t-109 -44.5z" />
    <glyph glyph-name="x" unicode="x" horiz-adv-x="1531" 
d="M837 444q72 -114 153 -114q82 0 309 150l109 74q49 35 82 60.5t57 43.5q54 42 124 42q22 0 42.5 -13t20.5 -35.5t-6.5 -45t-19.5 -46.5q-28 -57 -53.5 -86t-54.5 -58t-70.5 -67t-95 -82.5t-114.5 -88.5t-128.5 -85t-138.5 -72q-158 -69 -284 -69q-139 0 -228 152
q-26 45 -48 94l-310 -222q-74 -58 -133 -58q-32 0 -55 18q-44 34 -44 73t14.5 58.5t37.5 39.5l394 339q-45 105 -91 105q-67 0 -136 -56l-44 -35q-94 -77 -167 -77q-29 0 -53 18q-47 35 -47 81t101 130l39 33q26 24 53 47l205 167q148 115 243 115q83 0 162 -161
q23 -47 46 -99l184 158q160 135 240 135q61 0 112 -36q95 -67 95 -128q0 -38 -32 -57q-6 -3 -21 -14l-226 -168z" />
    <glyph glyph-name="y" unicode="y" horiz-adv-x="1530" 
d="M356 425q0 -46 61 -46q124 0 422 309l97 98q99 97 131 97t57 -11t44 -28q39 -35 39 -74.5t-8.5 -87t-26.5 -106.5q-33 -110 -119 -295l-41 -88l170 154l348 298q53 40 88 40q76 0 76 -73q0 -75 -98 -193q-30 -37 -65 -69l-236 -205l-460 -389q-61 -53 -92 -84
q-37 -60 -57.5 -89.5t-40.5 -63t-39 -57.5q-41 -52 -82 -52q-43 0 -83 35q-74 65 -74 116t28 118.5t73 154.5l212 391q-153 -138 -240 -182.5t-146.5 -59t-126 -14.5t-116.5 27.5t-83 73.5q-64 91 -64 237q0 155 78 306q75 148 198 238q130 96 267 96t137 -107
q0 -67 -114 -198.5t-114 -216.5z" />
    <glyph glyph-name="z" unicode="z" horiz-adv-x="1532" 
d="M714 646q0 6 -38 6h-130q-151 0 -172 -7.5t-49 -26.5t-59 -42l-65 -49q-123 -93 -178 -93q-64 0 -88 52q-8 18 -8 45.5t17.5 53.5t45 51.5t63 52.5t71 59t74.5 62.5t79 54.5q88 53 152 53q23 0 96 6q168 13 232 18q298 26 317.5 26t43.5 3l52 6q26 3 50 6t35.5 3t32 -8.5
t40.5 -26.5q49 -44 49 -114q0 -66 -278 -216l-309 -159q-74 -38 -127 -68q38 -6 89 -20l186 -52q38 -10 55.5 -10t56 16t87 43t103.5 62l107 73q115 81 183 143q32 28 70 28q77 0 77 -62q0 -81 -79 -189q-24 -32 -46 -54l-66 -59q-278 -249 -503 -335q-68 -26 -123.5 -26
t-116.5 18t-121 40l-112 39q-54 18 -94.5 18t-76 -18.5t-71.5 -40.5q-95 -60 -164 -60q-42 0 -73 32q-59 61 -59 98.5t24.5 71.5t62 69t83.5 69q115 83 155.5 109t55 36t47.5 29q250 136 282 157t32 27z" />
    <glyph glyph-name="braceleft" unicode="{" horiz-adv-x="1531" 
d="M487 -195q-289 0 -289 181q0 104 100 290l40 78q46 93 46 128q0 59 -32 74q-7 3 -14.5 18t-7.5 34q0 51 56.5 70t92 52.5t62 77t47.5 94.5l42 102q126 300 363 374q65 21 143 21t78 -50q0 -52 -68 -84q-22 -10 -48 -12t-58 -29.5t-62 -65.5q-60 -78 -90.5 -146
t-63 -132.5t-74.5 -121.5q-98 -135 -211 -156q46 -33 46 -103q0 -115 -111 -296q-47 -78 -47 -131.5t22 -86t60 -42t48 -25.5t10 -32.5t-5.5 -30.5t-15.5 -25q-23 -25 -59 -25z" />
    <glyph glyph-name="bar" unicode="|" horiz-adv-x="1192" 
d="M510 1530h172v-1700h-172v1700z" />
    <glyph glyph-name="braceright" unicode="}" horiz-adv-x="1531" 
d="M423 -174q-65 -21 -143 -21t-78 50q0 52 68 84q21 10 47.5 12t58 29.5t61.5 65.5q62 81 92 147.5t62.5 131t74.5 121.5q98 135 211 156q-46 33 -46 103q0 115 111 296q47 78 47 131.5t-22 86t-60 42t-48 25.5t-10 32.5t5.5 30.5t15.5 25q23 25 59 25q289 0 289 -181
q0 -104 -100 -290l-40 -78q-46 -93 -46 -128q0 -59 32 -74q7 -3 14.5 -18t7.5 -34q0 -51 -56.5 -70t-92 -52.5t-62 -77t-47.5 -94.5l-42 -102q-126 -300 -363 -374z" />
    <glyph glyph-name="asciitilde" unicode="~" horiz-adv-x="2208" 
d="M313 342q-47 0 -47 31q0 22 24 43.5t65 53.5t95 69.5t118 76.5t130 70q151 72 233 72t138.5 -21t107.5 -52.5t97 -68.5t90 -68q103 -74 172 -74q88 0 199 46q28 11 43 19.5t32 8.5t32 -10t15 -22q0 -23 -21 -38t-59.5 -38.5t-92 -51.5t-118 -58t-132.5 -54
q-158 -57 -249 -57t-163 13.5t-139 33t-128 42.5l-113 44q-122 46 -159 46q-65 0 -130 -45q-17 -11 -40 -11z" />
    <glyph glyph-name="nonbreakingspace" unicode="&#xa0;" horiz-adv-x="851" 
 />
    <glyph glyph-name="exclamdown" unicode="&#xa1;" horiz-adv-x="1193" 
d="M512 560q-17 19 -17 56.5t31 81t80 77.5q110 76 227 76q98 0 139 -55q23 -31 23 -55.5t-7 -42.5t-22.5 -41.5t-40 -50t-59.5 -48.5q-84 -50 -189 -50q-120 0 -165 52zM17.5 -464.5q-28.5 19.5 -28.5 41t19.5 72t51.5 117t73.5 142.5t86.5 148q99 157 156.5 209.5t103 77
t88.5 39.5q184 65 184 -1q0 -13 -6 -27l-240 -534l-61 -126q-64 -128 -82.5 -151t-29 -34t-24.5 -19q-32 -20 -66 -20t-76 8.5t-81.5 23t-68 34z" />
    <glyph glyph-name="cent" unicode="&#xa2;" horiz-adv-x="2040" 
d="M856 -27q-44 0 -44 44q0 16 5 28l48 117h-11q-245 0 -402 104q-68 45 -102.5 98.5t-34.5 102.5t12 102t37 102q57 109 152 153l188 84q305 130 543 189l29 67q15 32 26 58l20 46q8 20 12 32.5t23 26t45 23.5q57 22 112.5 22t55.5 -32q0 -14 -24 -72l-55 -135
q224 -3 264 -117q12 -34 12 -69t-26.5 -64t-65.5 -51q-85 -48 -148.5 -48t-96 18.5t-64.5 41.5l-164 -363q176 13 276 55q153 53 216 53q94 0 94 -58q0 -76 -150 -165q-114 -68 -282.5 -119t-294.5 -70l-51 -105q-21 -42 -30 -53t-25.5 -20.5t-34.5 -14.5q-33 -11 -64 -11z
M793 590q0 -24 16 -43.5t44 -32.5q49 -24 141 -33l119 299l9 26q6 16 13 33q-147 -42 -251 -125q-91 -72 -91 -124z" />
    <glyph glyph-name="sterling" unicode="&#xa3;" horiz-adv-x="2381" 
d="M981 655q-180 4 -213 4t-42.5 3.5t-17.5 10.5q-22 18 -18 32.5t12.5 31t21.5 33.5q33 39 71 48t317 13q215 331 365 460q170 146 369 146q151 0 244 -67q36 -27 51.5 -52.5t15.5 -35.5q0 -194 -572 -289q-24 -32 -50 -71l-55 -87h82q322 0 376 -9q34 -9 34 -43t-10 -60
t-28 -48q-42 -51 -96 -51q-15 0 -47 1t-73.5 2t-90 2.5t-95.5 3.5q-110 5 -171 10q-104 -159 -161 -236l-18 -21l260 -64q122 -29 145.5 -29t47.5 1t49 5q62 10 92 33q60 45 110 45t73.5 -25t16 -63t-23 -76t-40.5 -77.5t-58.5 -77.5t-76.5 -68q-95 -65 -204 -65
q-62 0 -198 47q-354 121 -444 144q-102 -87 -371 -123q-90 -12 -160 -12t-92.5 10t-34.5 25q-19 25 -19 74q0 83 102 221q73 98 176 143q54 23 122 23t164 -16z" />
    <glyph glyph-name="currency" unicode="&#xa4;" horiz-adv-x="2042" 
d="M1234 307q-199 -93 -439 -93q-82 0 -153 17l-254 -235q-26 -24 -30 -28q-14 -14 -34 -14q-28 0 -48 26q-12 12 -12 42t8.5 44.5t27.5 34.5l197 203q-88 78 -88 213q0 199 242 376q-344 349 -357.5 370.5t-3.5 42.5t33 38q53 39 96 39t57.5 -14.5t46.5 -52.5l276 -334
q180 88 333 88h18q15 0 25 -5l21 -11q28 -15 43 -28q336 330 358.5 345t43.5 5t38 -33q39 -53 39 -96t-13.5 -56.5t-38.5 -36.5l-232 -203q153 -50 153 -197q0 -137 -118 -274q-40 -47 -95 -89l276 -281q27 -28 36 -43t9 -35q0 -40 -11 -53q-22 -24 -49 -24q-21 0 -29 8z
M702 702q-26 -49 -26 -99.5t20 -81t54 -50.5q63 -38 139.5 -38t126.5 12t96.5 33.5t87 51t70.5 64.5q64 75 64 155q0 41 -59 74t-84.5 54.5t-25.5 48t45 71.5q-402 -101 -508 -295z" />
    <glyph glyph-name="yen" unicode="&#xa5;" horiz-adv-x="2207" 
d="M1592 418q42 0 42 -34q0 -45 -35 -93q-66 -87 -105 -85q-17 1 -49 1.5t-73 1.5t-87.5 1.5t-91.5 1.5q-92 2 -157 2h-19l-68 -142q-27 -55 -38 -76q-21 -44 -102 -44q-51 0 -99 19t-66 31q-41 28 -36 58q1 8 12 45l29 94q-59 -3 -114 -5l-100 -5q-98 -4 -106 -5.5t-18 1
t-19 8.5q-24 16 -21 32t9.5 33t18.5 34q27 42 65 55q24 9 150.5 17.5t193.5 13.5l41 123q-65 -3 -128 -5.5t-114 -5.5q-112 -5 -121.5 -6.5t-19.5 1t-19 8.5q-24 16 -21 32t9.5 33t17.5 34q28 42 66 55q31 11 347 39l-103 274q-33 94 -46 110q-24 33 -61 33t-74 -8t-77 -10
q-64 -3 -64 64q0 31 15 63.5t41 49.5q217 126 536 146q61 3 114 -54q26 -27 30 -61t7 -77q7 -99 7 -240.5t-14 -262.5h3q156 193 226 271q301 333 501 406q31 11 58.5 11t64.5 -14t69 -38q74 -57 68 -123q-4 -44 -54 -65q-118 -45 -323 -200l-149 -116l-129 -106q69 5 129 9
l108 6q93 4 120 2q26 -4 26 -30t-14.5 -56.5t-35.5 -58.5q-51 -68 -90 -66q-34 0 -96.5 -4.5t-112 -7.5t-99.5 -7q-110 -7 -184 -11l-9 -8l-49 -106q74 4 144 7l130 6q109 4 156 4h57z" />
    <glyph glyph-name="brokenbar" unicode="&#xa6;" horiz-adv-x="1192" 
d="M510 1530h172v-680h-172v680zM510 510h172v-680h-172v680z" />
    <glyph glyph-name="section" unicode="&#xa7;" horiz-adv-x="2211" 
d="M1568 1361l116 -1q61 0 81 -50q6 -16 2.5 -46t-27.5 -61.5t-58 -52.5q-69 -41 -144 -41q-15 0 -45 10l-70 23q-101 32 -160 32q-121 0 -172 -81q-8 -14 15 -28t66.5 -30.5t101.5 -36t119.5 -42.5t120 -51t103.5 -62q155 -116 52 -277q-95 -150 -346 -231
q170 -92 160 -206q-28 -244 -460 -320q-159 -28 -265 -28t-163 5t-116 16.5t-115 29t-99 42.5q-95 58 -86 136q8 84 110 106q29 7 71.5 7t81.5 -9t71.5 -23t63.5 -29.5t70 -29.5q89 -32 212 -32l126 -6q38 0 60 15.5t27 66.5q4 40 -185 118l-110 48q-139 63 -195.5 105
t-82.5 77.5t-26 65.5t16 74t65 94.5t114 87.5q119 69 292 110l-54 22q-26 10 -64.5 29t-63.5 58t-25 75q0 165 257 252q204 69 558 69zM831 600q82 -84 207 -84q110 0 204 58t100 125q2 18 -41 37t-110 42l-6 -6q-181 0 -286 -65q-68 -43 -68 -107z" />
    <glyph glyph-name="dieresis" unicode="&#xa8;" horiz-adv-x="1189" 
d="M973 1165q-30 -14 -66 -14t-69.5 13.5t-59.5 38.5q-54 53 -54 137q0 117 188 173q63 19 103.5 19t60.5 -10t33 -27q26 -34 26 -69t-7.5 -61t-21 -55t-33.5 -57.5t-45 -51t-55 -36.5zM351 1165q-30 -14 -66 -14t-69.5 13.5t-59.5 38.5q-54 53 -54 137q0 117 188 173
q63 19 103.5 19t60.5 -10t33 -27q26 -34 26 -69t-7.5 -61t-21 -55t-33.5 -57.5t-45 -51t-55 -36.5z" />
    <glyph glyph-name="copyright" unicode="&#xa9;" horiz-adv-x="2387" 
d="M459 695q0 127 57.5 260.5t157.5 233t233.5 157t285.5 57.5t285.5 -57.5t233.5 -157t157.5 -233t57.5 -260t-26 -220.5t-74 -175.5t-115 -148.5t-148 -115q-170 -100 -371 -100q-304 0 -519 215t-215 544zM558 648q0 -110 50 -225.5t136 -202.5q184 -185 449 -185
t449 185q186 188 186 450q0 264 -186 448q-187 186 -449 186t-449 -186q-186 -184 -186 -470zM1211 237q-372 0 -372 429q0 324 213 414q69 30 156.5 30t196.5 -31q-3 -69 -27 -121q-77 28 -148.5 28t-113.5 -23.5t-71 -66.5q-60 -87 -60 -230q0 -214 131 -278
q42 -20 113.5 -20t162.5 28q25 -39 22 -118q-109 -41 -203 -41z" />
    <glyph glyph-name="ordfeminine" unicode="&#xaa;" horiz-adv-x="1868" 
d="M1507 866q42 0 42 -64q0 -18 -25.5 -51t-69.5 -65q-107 -81 -220 -81q-86 0 -130 63q-20 28 -34.5 65.5t-33.5 77.5q-258 -158 -323 -187q-119 -53 -175 -53t-100.5 22.5t-76.5 58.5q-67 77 -67 180q0 110 79 178q122 108 367 204q230 90 374 90q48 0 48 -48
q0 -32 -12.5 -48.5t-51.5 -34.5l-94 -41q-214 -90 -308 -182q-29 -25 -29 -49q0 -26 41 -26q38 0 181 83l100 59q113 65 205 65q84 0 109 -72l21 -60q21 -59 43.5 -75t43.5 -16q44 7 62 7h34z" />
    <glyph glyph-name="guillemotleft" unicode="&#xab;" horiz-adv-x="2043" 
d="M1017 320.5q-24 36.5 -24 72.5t22.5 70.5t59.5 70.5t84 73t96.5 71t96.5 64q115 70 142.5 85t34.5 19t23 3t30 -7q32 -16 32 -37.5t-16.5 -31.5t-41 -32.5t-55.5 -55t-65 -73.5t-62 -84q-65 -101 -65 -170q0 -86 112 -162q34 -23 34 -40.5t-13 -26.5t-30 -14
q-43 -12 -57.5 -4.5t-44 18.5t-69 29t-83.5 42t-80.5 54t-60.5 66.5zM533 320.5q-24 36.5 -24 72.5t22.5 70.5t59.5 70.5t84 73t96.5 71t96.5 64q115 70 142.5 85t34.5 19t23 3t30 -7q32 -16 32 -37.5t-16.5 -31.5t-41 -32.5t-55.5 -55t-65 -73.5t-62 -84q-65 -101 -65 -170
q0 -86 112 -162q34 -23 34 -40.5t-13 -26.5t-30 -14q-43 -12 -57 -4.5t-44 18.5t-69.5 29t-83.5 42t-80.5 54t-60.5 66.5z" />
    <glyph glyph-name="logicalnot" unicode="&#xac;" horiz-adv-x="2209" 
d="M542 676h1091v-495h-153v342h-938v153z" />
    <glyph glyph-name="uni00AD" unicode="&#xad;" horiz-adv-x="1229" 
 />
    <glyph glyph-name="registered" unicode="&#xae;" horiz-adv-x="2387" 
d="M459 695q0 127 57.5 260.5t157.5 233t233.5 157t285.5 57.5t285.5 -57.5t233.5 -157t157.5 -233t57.5 -260t-26 -220.5t-74 -175.5t-115 -148.5t-148 -115q-170 -100 -371 -100q-304 0 -519 215t-215 544zM558 648q0 -110 50 -225.5t136 -202.5q184 -185 449 -185
t449 185q186 188 186 450q0 264 -186 448q-187 186 -449 186t-449 -186q-186 -184 -186 -470zM1176 608q-70 0 -122 7v-359h-138v836h320q194 0 246 -138q17 -43 17 -110.5t-42.5 -129.5t-131.5 -89l201 -369h-156l-174 352h-20zM1162 714q185 0 185 141q0 62 -39 95.5
t-112 33.5h-142v-263q38 -7 108 -7z" />
    <glyph glyph-name="macron" unicode="&#xaf;" horiz-adv-x="1024" 
d="M280 1240q-35 0 -35 41q0 39 22.5 79t42.5 56.5t44 29.5q49 26 87 26h579q16 0 30 -11.5t14 -31.5q0 -40 -26.5 -84.5t-63 -75t-74.5 -30.5z" />
    <glyph glyph-name="degree" unicode="&#xb0;" horiz-adv-x="1877" 
d="M1122 1285q25 9 57 9t65 -5t69 -15.5t71.5 -26.5t63.5 -39q65 -54 65 -116.5t-40.5 -124.5t-108.5 -122.5t-157 -114.5t-187 -96q-211 -89 -385 -89q-129 0 -203 65q-60 52 -60 109t21.5 106.5t55.5 98.5t77 95t85 85q66 63 136.5 112.5t117 76.5t77.5 42q53 25 65 25
t26.5 -9t32.5 -21q36 -25 56 -45zM611 747q0 -28 16.5 -32t53 -4t100.5 22t129.5 56.5t126.5 77.5t108 85q104 93 104 139q0 33 -41 50q-25 11 -52 11q-65 0 -96 -9q-137 -65 -284 -181q-100 -79 -132.5 -133t-32.5 -82z" />
    <glyph glyph-name="plusminus" unicode="&#xb1;" horiz-adv-x="2209" 
d="M542 844h470v492h153v-492h468v-153h-468v-355h-153v355h-470v153zM542 153h1091v-153h-1091v153z" />
    <glyph glyph-name="twosuperior" unicode="&#xb2;" horiz-adv-x="1698" 
d="M447 1504q0 198 454 322q235 64 481 84q68 6 113.5 6t78 -13.5t54.5 -37.5q43 -47 43 -108t-13.5 -107t-39.5 -91q-57 -98 -156 -165q-187 -94 -454 -162l-127 -32q-83 -20 -134 -29q18 1 71 2t125 3t154.5 6.5t160.5 13.5q178 21 239 64q18 12 32.5 12t25.5 -6.5
t16.5 -16.5t5.5 -21.5t-7 -20.5l-126 -141l-55 -58q-61 -61 -89 -70t-84 -16.5t-124 -11.5q-128 -9 -243 -9t-174 1t-113 4q-128 5 -168 8.5t-57.5 15t-28.5 28.5q-21 34 -21 79q0 97 46 134q6 4 48 19q430 151 545 202.5t180 87.5q141 78 154 134q14 62 -155 62
q-113 0 -269.5 -120t-272.5 -120t-116 68z" />
    <glyph glyph-name="threesuperior" unicode="&#xb3;" horiz-adv-x="1869" 
d="M327.5 1069.5q-1.5 22.5 3.5 46.5t23.5 71t54.5 92q85 109 221 109q68 0 89 -44q8 -18 8 -37.5t-2 -31.5q-17 -93 82 -147q86 -46 222 -46q187 0 280 75q29 24 35.5 55.5t-13.5 51.5t-54.5 33t-77 19t-81.5 8t-68 2h-36q-12 0 -23.5 10t-11.5 22q0 26 26.5 38.5
t66.5 28.5l197 81q206 87 213 117q11 54 -97 63q-32 2 -63.5 2t-76 -4t-98.5 -11.5t-114.5 -17.5t-117.5 -22q-133 -28 -178 -46t-63 -18q-37 0 6 54q18 22 45 61q77 111 101 143t37 38q55 26 221.5 37.5t231.5 11.5t133 -2t138 -8q168 -16 253 -49q18 -30 18 -68.5
t-12.5 -79t-30.5 -75.5q-39 -75 -76 -94q-58 -22 -100 -40l-74 -30q-68 -29 -105 -37q96 0 213 -49q92 -37 125 -104q17 -34 8 -77t-48.5 -81.5t-102.5 -72.5t-146 -62t-180 -48q-204 -42 -384 -42t-280.5 11t-166 29t-101.5 41t-52 47t-17.5 46.5z" />
    <glyph glyph-name="acute" unicode="&#xb4;" horiz-adv-x="849" 
d="M83.5 1081.5q-21.5 18.5 -21.5 40t26.5 59.5t69.5 83.5t97.5 94t109.5 87.5q126 91 192 91q49 0 83 -30q65 -56 65 -120q0 -12 -5 -37q-19 -24 -77 -51l-101 -45q-80 -36 -151 -78l-109 -64q-83 -49 -120 -49t-58.5 18.5z" />
    <glyph glyph-name="mu" unicode="&#xb5;" horiz-adv-x="2210" 
d="M1073 -10.5q-52 -9.5 -143 -9.5t-191 50l14 -466h-144l1 767v691h172v-672q0 -116 48.5 -172t186 -56t217.5 66v834h172v-868l102 -104v-50h-172l-81 71q-22 -12 -43 -28t-54 -30t-85 -23.5z" />
    <glyph glyph-name="mu" unicode="&#x3bc;" horiz-adv-x="2210" 
d="M1073 -10.5q-52 -9.5 -143 -9.5t-191 50l14 -466h-144l1 767v691h172v-672q0 -116 48.5 -172t186 -56t217.5 66v834h172v-868l102 -104v-50h-172l-81 71q-22 -12 -43 -28t-54 -30t-85 -23.5z" />
    <glyph glyph-name="paragraph" unicode="&#xb6;" horiz-adv-x="2046" 
d="M970 519q-222 0 -350 123q-121 115 -121 294q0 189 120.5 305.5t313.5 116.5h597v-1518h-183v1367h-204v-1367h-173v679z" />
    <glyph glyph-name="periodcentered" unicode="&#xb7;" horiz-adv-x="1187" 
d="M838 653q19 -27 19 -73.5t-29 -88t-75 -71.5q-94 -60 -213 -60q-115 0 -162 59q-27 33 -27 78q0 89 91 158t217.5 69t178.5 -71z" />
    <glyph glyph-name="cedilla" unicode="&#xb8;" horiz-adv-x="1229" 
d="M544 -122q206 -57 206 -178q0 -99 -180 -224q-95 -65 -157 -89t-86 -24t-40 22t-16 46.5t23 49.5l50 53q74 75 74 133q0 13 -24 31l-51 40q-75 59 -75 101q0 36 65.5 109t116.5 120t102 86q119 88 181 88q47 0 84 -28q71 -51 71 -104q0 -46 -40 -74q-40 -26 -96 -51
l-92 -42q-79 -37 -116 -65z" />
    <glyph glyph-name="onesuperior" unicode="&#xb9;" horiz-adv-x="1416" 
d="M566 1416q0 85 91 168q18 26 91 67q163 87 232 119l128 58q197 86 238 86q8 0 23.5 0.5t32.5 -2.5q45 -9 61 -34t18.5 -38.5t-9.5 -47.5t-41 -99t-65 -139l-158 -300q-99 -173 -131.5 -225t-56.5 -76t-45 -37q-33 -19 -71 -19h-35q-154 0 -197 37q-7 6 -7 19q0 26 25 72
l281 526q-319 -174 -362 -174t-43 39z" />
    <glyph glyph-name="ordmasculine" unicode="&#xba;" horiz-adv-x="1529" 
d="M533 565q-128 0 -197 105q-52 81 -52 178q0 129 148 238q43 32 100 65.5t138 60.5t160 45q155 35 267 35q61 0 119 -64q57 -60 57 -128.5t-35 -136t-93 -127t-134 -109.5t-159 -86q-174 -76 -319 -76zM669 866.5q9 -6.5 19.5 -6.5t35 6.5t56.5 18t69 28t71 36.5
q78 46 105 91q3 8 3 21.5t-6 26.5q-14 33 -49.5 33t-70.5 -10t-70 -26t-67.5 -36.5t-58.5 -40.5q-56 -45 -60.5 -65.5t-1.5 -34t9.5 -24.5t15.5 -17.5z" />
    <glyph glyph-name="guillemotright" unicode="&#xbb;" horiz-adv-x="2048" 
d="M918.5 129.5q-9.5 10.5 -9.5 26t16.5 25.5t41 32.5t55.5 55t65 73.5t62 84q65 101 65 170q0 86 -112 162q-34 23 -34 40t13 26.5t31 14.5q42 12 56.5 4.5t44 -18.5t69 -29t83.5 -42t81 -54q84 -69 84 -146q0 -118 -360 -342q-114 -70 -141.5 -85t-34.5 -19t-23 -3
t-29.5 7.5t-23 17zM436.5 129.5q-9.5 10.5 -9.5 26t16.5 25.5t41 32.5t55.5 55t65 73.5t62 84q65 101 65 170q0 86 -112 162q-34 23 -34 40t13 26.5t31 14.5q42 12 56 4.5t44 -18.5t69.5 -29t83.5 -42t81 -54q84 -69 84 -146q0 -118 -360 -342q-114 -70 -141.5 -85
t-34.5 -19t-23 -3t-29.5 7.5t-23 17z" />
    <glyph glyph-name="onequarter" unicode="&#xbc;" horiz-adv-x="2890" 
d="M346 1198q0 86 90 168q18 26 91 67q163 87 232 119l127 58q198 86 239 86q8 0 23.5 0.5t33.5 -2.5q44 -9 60.5 -34t19 -38.5t-10 -47.5t-41.5 -99t-66 -139q-104 -205 -150 -288q-104 -184 -137 -236.5t-57.5 -76.5t-45.5 -37q-33 -19 -71 -19h-35q-154 0 -197 37
q-7 6 -7 19q0 26 25 72l281 526q-319 -174 -361.5 -174t-42.5 39zM399.5 -39.5q-14.5 13.5 -14.5 35t11 37.5t54 61l471 462q839 798 900.5 853t74.5 64t28 9t28.5 -11t23.5 -29q23 -37 23 -68q0 -55 -18 -71.5t-53 -46.5l-650 -530q-56 -48 -113 -100q-566 -542 -611 -587
l-63 -65q-27 -27 -52 -27t-39.5 13.5zM1510 -88q-214 -8 -316 -8q-152 0 -172.5 3t-35.5 20t-28 43q-30 58 -30 99q0 68 31 94q530 431 1151 624q49 17 62.5 16.5t26.5 -9t26 -20.5q23 -23 41 -56q127 7 174 -56q21 -24 -41 -79q-187 -185 -365 -418l248 8q35 0 34 -35
q-1 -9 -8 -17t-25 -33l-40 -52q-56 -72 -69.5 -79.5t-38.5 -10.5t-66 -6q-89 -8 -213 -14l-94 -126q-85 -107 -131.5 -128.5t-74.5 -21.5q-54 0 -85 31q-21 18 -21 67.5t60 163.5zM1311 145l278 10h33q20 0 46 1q45 63 93 124q193 237 243 294q-344 -145 -607 -330
q-79 -55 -122 -98q8 -1 17 -1h19z" />
    <glyph glyph-name="onehalf" unicode="&#xbd;" horiz-adv-x="2890" 
d="M346 1198q0 86 90 168q18 26 91 67q163 87 232 119l127 58q198 86 239 86q8 0 23.5 0.5t33.5 -2.5q44 -9 60.5 -34t19 -38.5t-10 -47.5t-41.5 -99t-66 -139q-104 -205 -150 -288q-104 -184 -137 -236.5t-57.5 -76.5t-45.5 -37q-33 -19 -71 -19h-35q-154 0 -197 37
q-7 6 -7 19q0 26 25 72l281 526q-319 -174 -361.5 -174t-42.5 39zM399.5 -39.5q-14.5 13.5 -14.5 35t11 37.5t54 61l471 462q839 798 900.5 853t74.5 64t28 9t28.5 -11t23.5 -29q23 -37 23 -68q0 -55 -18 -71.5t-53 -46.5l-650 -530q-56 -48 -113 -100q-566 -542 -611 -587
l-63 -65q-27 -27 -52 -27t-39.5 13.5zM1097 291q0 198 454 322q235 64 481 85q68 5 113.5 5t78 -13.5t54.5 -37.5q43 -47 43 -108t-13.5 -107t-39.5 -91q-57 -98 -156 -165q-255 -128 -672 -215q-36 -7 -42 -8q18 2 70.5 2.5t124.5 2.5t154.5 6.5t160.5 14.5q180 22 239 63
q18 12 32.5 12t25.5 -6.5t16.5 -16.5t5.5 -21.5t-7 -20.5q-91 -105 -123 -139l-57 -60q-59 -60 -88.5 -69.5t-85 -17t-122.5 -12.5q-128 -8 -243.5 -8t-174.5 1t-113 3q-131 7 -170 10t-56.5 14.5t-28.5 29.5q-21 33 -21 77q0 99 47 135q6 4 48 18q427 151 543 203t181 87
q141 79 154 135q14 62 -155 62q-113 0 -269.5 -120t-272.5 -120t-116 68z" />
    <glyph glyph-name="threequarters" unicode="&#xbe;" horiz-adv-x="3572" 
d="M845 681q-582 0 -582 186q0 36 23 94.5t58 103.5q85 109 221 109q68 0 89 -44q8 -18 8 -37.5t-2 -31.5q-17 -95 80 -149q86 -47 221 -47q188 0 283 77q30 25 36.5 56.5t-13.5 51.5t-54.5 33t-77 19t-81.5 8t-68 2h-36q-12 0 -23.5 10.5t-11.5 22.5q0 25 26 37.5t66 28.5
l197 81q206 87 214 117q11 54 -96 63q-33 2 -64.5 2t-76 -4t-98.5 -11.5t-114.5 -17.5t-118.5 -22q-133 -27 -178 -45.5t-62.5 -18.5t-17.5 12.5t18 34.5t34 44l68 100q65 96 82 103.5t62.5 16t109.5 16.5q160 18 255.5 18t163.5 -2t139 -8q165 -16 251 -49q18 -30 18 -68.5
t-12.5 -79t-30.5 -75.5q-39 -76 -75 -94q-58 -22 -100 -40l-75 -30q-70 -30 -105 -37q88 0 164 -29t109 -52q76 -51 76 -121q0 -143 -300 -244q-267 -90 -599 -90zM1081.5 -39.5q-14.5 13.5 -14.5 35t11 37.5t54 61l471 462q839 798 900.5 853t74.5 64t28 9t28.5 -11
t23.5 -29q23 -37 23 -68q0 -55 -18 -71.5t-53 -46.5l-650 -530q-56 -48 -113 -100q-566 -542 -611 -587l-63 -65q-27 -27 -52 -27t-39.5 13.5zM2192 -88q-214 -8 -316 -8q-152 0 -172.5 3t-35.5 20t-28 43q-30 58 -30 99q0 68 31 94q530 431 1151 624q49 17 62.5 16.5
t26.5 -9t26 -20.5q23 -23 41 -56q127 7 174 -56q21 -24 -41 -79q-187 -185 -365 -418l248 8q35 0 34 -35q-1 -9 -8 -17t-25 -33l-40 -52q-56 -72 -69.5 -79.5t-38.5 -10.5t-66 -6q-89 -8 -213 -14l-94 -126q-85 -107 -131.5 -128.5t-74.5 -21.5q-54 0 -85 31
q-21 18 -21 67.5t60 163.5zM1993 145l278 10h33q20 0 46 1q45 63 93 124q193 237 243 294q-344 -145 -607 -330q-79 -55 -122 -98q8 -1 17 -1h19z" />
    <glyph glyph-name="questiondown" unicode="&#xbf;" horiz-adv-x="1698" 
d="M698 761q-20 19 -20 50.5t21 68.5t57 68q81 73 177 73q137 0 196 -31.5t59 -93.5q0 -20 -16.5 -51.5t-53.5 -60.5q-89 -73 -234 -73q-133 0 -186 50zM235.5 -230.5q-45.5 52.5 -45.5 105t23.5 90.5t62 76.5t87.5 77t100 74.5l187 129q86 58 86 79t-18.5 35.5t-45.5 21.5
q-50 14 -114 14q-54 0 -122 -9.5t-72 -9.5q-16 0 -27 8q-24 17 -12 33.5t20.5 30t26.5 28t47.5 28.5t78.5 25q111 25 291 25q320 0 395 -133q18 -34 18 -71.5t-22.5 -78t-59 -80t-83 -77t-95 -70.5t-94.5 -61l-142 -83q-23 -13 -23 -18.5t20 -14t55 -16.5q82 -17 147 -17
t102 7.5t73 17.5q55 14 109 36q32 13 55 -6q42 -36 19 -66q-27 -34 -64 -67l-69 -61q-120 -101 -193 -130q-71 -30 -202.5 -30t-220.5 17.5t-161 52.5t-117.5 87.5z" />
    <glyph glyph-name="Agrave" unicode="&#xc0;" horiz-adv-x="2551" 
d="M1754 1755.5q0 34.5 6 60.5t20 48q31 49 88 49q32 0 83 -41l85 -72q35 -29 78 -58l168 -112q83 -54 97.5 -83.5t14.5 -59t-31 -43.5q-8 -5 -34 -5t-75.5 11t-107.5 29.5t-118.5 43.5t-113.5 53q-118 65 -139 105t-21 74.5zM257 -67q-52 0 -98.5 24.5t-84.5 69.5
q-85 103 -85 247q0 59 46.5 118.5t152.5 107.5q238 107 695 107l837 649q42 33 50 40q13 14 33.5 14t40 -4t35.5 -11q35 -15 35 -35q0 -14 -7 -22l-572 -628h244q16 36 53 100l92 150q54 86 106 162l101 140q155 207 224 207q7 0 54.5 -18.5t80.5 -36.5q80 -42 80 -79
q0 -35 -31 -73.5t-65.5 -90.5t-74 -117.5t-79.5 -139t-72 -142.5q-73 -157 -73 -212.5t8.5 -80.5t20.5 -37q19 -19 61 -19t85.5 15.5t85 39t81.5 51t78 51.5q88 54 130 54t56.5 -19.5t14.5 -50.5t-26 -83.5t-73 -108.5t-111 -110.5t-140 -97.5q-171 -95 -335 -95
q-148 0 -261 104q-126 115 -126 297v18t1 19l-419 -53q-177 -174 -428 -298q-252 -123 -421 -123z" />
    <glyph glyph-name="Aacute" unicode="&#xc1;" horiz-adv-x="2551" 
d="M2160.5 1459.5q-21.5 18.5 -21.5 40t26.5 59.5t69.5 83.5t97.5 94t109.5 87.5q126 91 192 91q49 0 83 -30q65 -56 65 -120q0 -12 -5 -37q-19 -24 -77 -51l-100 -45q-81 -36 -152 -78l-108 -64q-84 -49 -121 -49t-58.5 18.5zM257 -67q-52 0 -98.5 24.5t-84.5 69.5
q-85 103 -85 247q0 59 46.5 118.5t152.5 107.5q238 107 695 107l837 649q42 33 50 40q13 14 33.5 14t40 -4t35.5 -11q35 -15 35 -35q0 -14 -7 -22l-572 -628h244q16 36 53 100l92 150q54 86 106 162l101 140q155 207 224 207q7 0 54.5 -18.5t80.5 -36.5q80 -42 80 -79
q0 -35 -31 -73.5t-65.5 -90.5t-74 -117.5t-79.5 -139t-72 -142.5q-73 -157 -73 -212.5t8.5 -80.5t20.5 -37q19 -19 61 -19t85.5 15.5t85 39t81.5 51t78 51.5q88 54 130 54t56.5 -19.5t14.5 -50.5t-26 -83.5t-73 -108.5t-111 -110.5t-140 -97.5q-171 -95 -335 -95
q-148 0 -261 104q-126 115 -126 297v18t1 19l-419 -53q-177 -174 -428 -298q-252 -123 -421 -123z" />
    <glyph glyph-name="Acircumflex" unicode="&#xc2;" horiz-adv-x="2551" 
d="M2064.5 1547q-6.5 13 -6.5 33t20.5 41.5t56 50t79 57.5t92.5 56t98 49q108 46 165 46t97 -20.5t78 -52.5q58 -48 140 -151q15 -15 15 -36t-18.5 -43.5t-46.5 -40.5q-62 -41 -118 -41q-40 0 -147.5 77.5t-133 77.5t-58 -12t-70.5 -32q-87 -44 -141 -92q-14 -11 -30.5 -11
t-29.5 5.5t-24 15.5t-17.5 23zM257 -67q-52 0 -98.5 24.5t-84.5 69.5q-85 103 -85 247q0 59 46.5 118.5t152.5 107.5q238 107 695 107l837 649q42 33 50 40q13 14 33.5 14t40 -4t35.5 -11q35 -15 35 -35q0 -14 -7 -22l-572 -628h244q16 36 53 100l92 150q54 86 106 162
l101 140q155 207 224 207q7 0 54.5 -18.5t80.5 -36.5q80 -42 80 -79q0 -35 -31 -73.5t-65.5 -90.5t-74 -117.5t-79.5 -139t-72 -142.5q-73 -157 -73 -212.5t8.5 -80.5t20.5 -37q19 -19 61 -19t85.5 15.5t85 39t81.5 51t78 51.5q88 54 130 54t56.5 -19.5t14.5 -50.5
t-26 -83.5t-73 -108.5t-111 -110.5t-140 -97.5q-171 -95 -335 -95q-148 0 -261 104q-126 115 -126 297v18t1 19l-419 -53q-177 -174 -428 -298q-252 -123 -421 -123z" />
    <glyph glyph-name="Atilde" unicode="&#xc3;" horiz-adv-x="2551" 
d="M1936.5 1580.5q-18.5 -10.5 -35 -10.5t-30.5 5.5t-25 14.5q-24 20 -24 46t16 42.5t41 34.5t59.5 37.5t76.5 39t87 34.5q101 36 166.5 36t111.5 -26t85 -57.5t74.5 -57.5t68.5 -26q74 0 146 31q19 7 40.5 7t44.5 -18.5t23 -44t-21 -44t-66 -42.5t-105 -46
q-143 -53 -256 -53q-81 0 -196 69l-76 46q-33 22 -54 22q-66 0 -99.5 -14.5t-52 -25zM257 -67q-52 0 -98.5 24.5t-84.5 69.5q-85 103 -85 247q0 59 46.5 118.5t152.5 107.5q238 107 695 107l837 649q42 33 50 40q13 14 33.5 14t40 -4t35.5 -11q35 -15 35 -35q0 -14 -7 -22
l-572 -628h244q16 36 53 100l92 150q54 86 106 162l101 140q155 207 224 207q7 0 54.5 -18.5t80.5 -36.5q80 -42 80 -79q0 -35 -31 -73.5t-65.5 -90.5t-74 -117.5t-79.5 -139t-72 -142.5q-73 -157 -73 -212.5t8.5 -80.5t20.5 -37q19 -19 61 -19t85.5 15.5t85 39t81.5 51
t78 51.5q88 54 130 54t56.5 -19.5t14.5 -50.5t-26 -83.5t-73 -108.5t-111 -110.5t-140 -97.5q-171 -95 -335 -95q-148 0 -261 104q-126 115 -126 297v18t1 19l-419 -53q-177 -174 -428 -298q-252 -123 -421 -123z" />
    <glyph glyph-name="Adieresis" unicode="&#xc4;" horiz-adv-x="2551" 
d="M2447.5 1627q-14.5 35 -14.5 75t16.5 70.5t43.5 54t60.5 40.5t66.5 28q64 21 104.5 21t60.5 -10t33 -27q26 -34 26 -69.5t-7.5 -64t-21 -59.5t-33.5 -61.5t-45 -54.5q-56 -55 -106.5 -55t-84 13.5t-59 38.5t-40 60zM1825.5 1627q-14.5 35 -14.5 75t16.5 70.5t43.5 54
t60.5 40.5t66.5 28q64 21 104.5 21t60.5 -10t33 -27q26 -34 26 -69.5t-7.5 -64t-21 -59.5t-33.5 -61.5t-45 -54.5q-56 -55 -106.5 -55t-84 13.5t-59 38.5t-40 60zM257 -67q-52 0 -98.5 24.5t-84.5 69.5q-85 103 -85 247q0 59 46.5 118.5t152.5 107.5q238 107 695 107
l837 649q42 33 50 40q13 14 33.5 14t40 -4t35.5 -11q35 -15 35 -35q0 -14 -7 -22l-572 -628h244q16 36 53 100l92 150q54 86 106 162l101 140q155 207 224 207q7 0 54.5 -18.5t80.5 -36.5q80 -42 80 -79q0 -35 -31 -73.5t-65.5 -90.5t-74 -117.5t-79.5 -139t-72 -142.5
q-73 -157 -73 -212.5t8.5 -80.5t20.5 -37q19 -19 61 -19t85.5 15.5t85 39t81.5 51t78 51.5q88 54 130 54t56.5 -19.5t14.5 -50.5t-26 -83.5t-73 -108.5t-111 -110.5t-140 -97.5q-171 -95 -335 -95q-148 0 -261 104q-126 115 -126 297v18t1 19l-419 -53q-177 -174 -428 -298
q-252 -123 -421 -123z" />
    <glyph glyph-name="Aring" unicode="&#xc5;" horiz-adv-x="2551" 
d="M2409 1867q18 6 42 6t59.5 -7.5t69.5 -23.5q85 -39 85 -105q0 -73 -97 -158q-148 -129 -354 -180q-65 -16 -117.5 -16t-85 12t-53.5 31q-39 35 -39 71.5t14 69t36.5 64.5t50.5 62t55.5 56t52.5 45l41 32q135 90 170 90q11 0 38 -22t32 -27zM2106 1581.5
q-31 -37.5 -31 -61t11 -26t34.5 -2.5t65.5 14.5t85 37t82.5 50.5t70.5 56q68 60 68 90q0 40 -66 40q-35 0 -57 -6q-99 -48 -165.5 -101.5t-97.5 -91zM257 -67q-52 0 -98.5 24.5t-84.5 69.5q-85 103 -85 247q0 59 46.5 118.5t152.5 107.5q238 107 695 107l837 649
q42 33 50 40q13 14 33.5 14t40 -4t35.5 -11q35 -15 35 -35q0 -14 -7 -22l-572 -628h244q16 36 53 100l92 150q54 86 106 162l101 140q155 207 224 207q7 0 54.5 -18.5t80.5 -36.5q80 -42 80 -79q0 -35 -31 -73.5t-65.5 -90.5t-74 -117.5t-79.5 -139t-72 -142.5
q-73 -157 -73 -212.5t8.5 -80.5t20.5 -37q19 -19 61 -19t85.5 15.5t85 39t81.5 51t78 51.5q88 54 130 54t56.5 -19.5t14.5 -50.5t-26 -83.5t-73 -108.5t-111 -110.5t-140 -97.5q-171 -95 -335 -95q-148 0 -261 104q-126 115 -126 297v18t1 19l-419 -53q-177 -174 -428 -298
q-252 -123 -421 -123z" />
    <glyph glyph-name="AE" unicode="&#xc6;" horiz-adv-x="3739" 
d="M2150 412q0 -121 308 -121q428 0 795 85q138 32 217 58.5t112 26.5q74 0 74 -73q0 -100 -287 -215q-381 -153 -851 -200q-111 -11 -263.5 -11t-285 27.5t-208.5 80t-105 128.5t-29 172v36l-418 -52q-177 -174 -429 -298q-251 -123 -426 -123q-98 0 -176 94
q-86 103 -86 247q0 59 46.5 118.5t151.5 107.5q239 107 696 107l880 678q22 17 28 23q12 12 37.5 12t61.5 -12q48 61 82 61q5 0 6 -0.5t15 -5t50.5 -18t72.5 -31.5q88 -42 93 -79q7 -36 -26 -86q-78 -143 -161 -424q171 58 382 88q-66 38 -91 127q-6 24 -6 44q0 309 796 366
q161 11 321 11q199 0 199 -102q0 -142 -229 -174q-65 -9 -125.5 -9t-113 4.5t-97.5 12.5q-97 17 -133 38q-246 -76 -246 -176q0 -68 59 -114t187 -53q48 -2 68.5 -16t20.5 -28.5t-8.5 -28t-22.5 -25.5q-33 -25 -76 -27q-352 -9 -627 -107q-112 -40 -172.5 -80t-60.5 -64z
M1657 610q10 36 36 102t65 156l76 169l-393 -427h216z" />
    <glyph glyph-name="Ccedilla" unicode="&#xc7;" horiz-adv-x="1639" 
d="M294.5 -214.5q-23.5 25.5 -23.5 58.5t90 132q-164 34 -251 127q-80 84 -80 195t49.5 214t133.5 197.5t196 179.5t237.5 157.5t257 130t254.5 97.5q257 85 417 85q34 0 57 -22q42 -39 42 -77q0 -148 -123 -239q-105 -77 -245 -77t-210 28q-261 -101 -424 -271
q-68 -71 -101 -133t-33 -98q0 -167 333 -167q225 0 565 170l102 54q232 118 262 51q8 -18 8 -41.5t-19.5 -48t-52.5 -54t-77 -62t-93 -64.5l-98 -61q-50 -30 -102 -57l-126 -61q-283 -134 -529 -164q-120 -53 -164 -87q206 -57 206 -178q0 -99 -181 -224q-94 -65 -156 -89
t-86 -24t-40 22t-16 46.5t23 49.5l51 53q73 75 73 133q0 13 -23 31l-52 40q-28 22 -51.5 47.5z" />
    <glyph glyph-name="Egrave" unicode="&#xc8;" horiz-adv-x="1867" 
d="M887 1755.5q0 34.5 6 60.5t19 48q32 49 89 49q32 0 83 -41l85 -72q35 -29 77 -58l169 -112q83 -54 97.5 -83.5t14.5 -59t-31 -43.5q-8 -5 -34 -5t-75.5 11t-107.5 29.5t-118.5 43.5t-112.5 53q-119 65 -140 105t-21 74.5zM101.5 112q-43.5 51 -57.5 96q-22 67 -22 115
t31.5 110t104.5 123q160 133 491 228q-106 45 -121 143q-15 112 96 199q205 161 788 218q180 17 261.5 17t116 -26t41 -77.5t-19.5 -86.5t-74 -56q-89 -39 -243 -39q-113 0 -206 34q-25 10 -39 21q-200 -62 -227 -139q-8 -20 -6 -37q9 -61 80 -90t216 -37q48 -4 71.5 -26
t27 -46t-3.5 -37.5t-21 -22.5q-24 -16 -95 -27t-165 -30.5t-179 -41.5t-157.5 -45t-125.5 -44q-112 -47 -108 -75.5t23 -49.5t51 -37q60 -28 146.5 -35.5t168 -7.5t175 13.5t175 34.5t150 44.5t119.5 44.5l82 34q32 14 58 14q69 0 78 -73q12 -99 -222 -223
q-313 -167 -692 -218q-88 -12 -211.5 -12t-240.5 16t-194 49.5t-120.5 84.5z" />
    <glyph glyph-name="Eacute" unicode="&#xc9;" horiz-adv-x="1867" 
d="M1293.5 1459.5q-21.5 18.5 -21.5 40t26.5 59.5t69.5 83.5t97.5 94t109.5 87.5q126 91 192 91q49 0 83 -30q65 -56 65 -120q0 -12 -5 -37q-19 -24 -77 -51l-101 -45q-80 -36 -151 -78l-109 -64q-83 -49 -120 -49t-58.5 18.5zM101.5 112q-43.5 51 -57.5 96q-22 67 -22 115
t31.5 110t104.5 123q160 133 491 228q-106 45 -121 143q-15 112 96 199q205 161 788 218q180 17 261.5 17t116 -26t41 -77.5t-19.5 -86.5t-74 -56q-89 -39 -243 -39q-113 0 -206 34q-25 10 -39 21q-200 -62 -227 -139q-8 -20 -6 -37q9 -61 80 -90t216 -37q48 -4 71.5 -26
t27 -46t-3.5 -37.5t-21 -22.5q-24 -16 -95 -27t-165 -30.5t-179 -41.5t-157.5 -45t-125.5 -44q-112 -47 -108 -75.5t23 -49.5t51 -37q60 -28 146.5 -35.5t168 -7.5t175 13.5t175 34.5t150 44.5t119.5 44.5l82 34q32 14 58 14q69 0 78 -73q12 -99 -222 -223
q-313 -167 -692 -218q-88 -12 -211.5 -12t-240.5 16t-194 49.5t-120.5 84.5z" />
    <glyph glyph-name="Ecircumflex" unicode="&#xca;" horiz-adv-x="1867" 
d="M1364 1562.5q-38 -24.5 -58.5 -42t-37 -17.5t-29.5 5.5t-24 15.5q-24 22 -24 41q0 35 20.5 56.5t56 50t79 57.5t92.5 56t99 49q107 46 164 46t97 -20.5t79 -52.5q57 -48 139 -151q15 -15 15 -36t-18.5 -43.5t-45.5 -40.5q-63 -41 -119 -41q-40 0 -147.5 77.5t-133 77.5
t-58 -12t-70.5 -31.5t-76 -44zM101.5 112q-43.5 51 -57.5 96q-22 67 -22 115t31.5 110t104.5 123q160 133 491 228q-106 45 -121 143q-15 112 96 199q205 161 788 218q180 17 261.5 17t116 -26t41 -77.5t-19.5 -86.5t-74 -56q-89 -39 -243 -39q-113 0 -206 34q-25 10 -39 21
q-200 -62 -227 -139q-8 -20 -6 -37q9 -61 80 -90t216 -37q48 -4 71.5 -26t27 -46t-3.5 -37.5t-21 -22.5q-24 -16 -95 -27t-165 -30.5t-179 -41.5t-157.5 -45t-125.5 -44q-112 -47 -108 -75.5t23 -49.5t51 -37q60 -28 146.5 -35.5t168 -7.5t175 13.5t175 34.5t150 44.5
t119.5 44.5l82 34q32 14 58 14q69 0 78 -73q12 -99 -222 -223q-313 -167 -692 -218q-88 -12 -211.5 -12t-240.5 16t-194 49.5t-120.5 84.5z" />
    <glyph glyph-name="Edieresis" unicode="&#xcb;" horiz-adv-x="1867" 
d="M1580.5 1627q-14.5 35 -14.5 75t16.5 70.5t43.5 54t60.5 40.5t67.5 28q63 21 103.5 21t60.5 -10t33 -27q26 -34 26 -69.5t-7.5 -64t-21 -59.5t-33.5 -61.5t-45 -54.5q-56 -55 -106.5 -55t-84 13.5t-59 38.5t-40 60zM1193 1530q-30 -15 -66 -15t-69.5 13.5t-59.5 38.5
q-54 53 -54 137q0 129 188 191q63 21 103.5 21t60.5 -10t33 -27q26 -34 26 -69.5t-7.5 -64t-21 -59.5t-33.5 -61.5t-45 -55t-55 -39.5zM101.5 112q-43.5 51 -57.5 96q-22 67 -22 115t31.5 110t104.5 123q160 133 491 228q-106 45 -121 143q-15 112 96 199q205 161 788 218
q180 17 261.5 17t116 -26t41 -77.5t-19.5 -86.5t-74 -56q-89 -39 -243 -39q-113 0 -206 34q-25 10 -39 21q-200 -62 -227 -139q-8 -20 -6 -37q9 -61 80 -90t216 -37q48 -4 71.5 -26t27 -46t-3.5 -37.5t-21 -22.5q-24 -16 -95 -27t-165 -30.5t-179 -41.5t-157.5 -45
t-125.5 -44q-112 -47 -108 -75.5t23 -49.5t51 -37q60 -28 146.5 -35.5t168 -7.5t175 13.5t175 34.5t150 44.5t119.5 44.5l82 34q32 14 58 14q69 0 78 -73q12 -99 -222 -223q-313 -167 -692 -218q-88 -12 -211.5 -12t-240.5 16t-194 49.5t-120.5 84.5z" />
    <glyph glyph-name="Igrave" unicode="&#xcc;" horiz-adv-x="1531" 
d="M643 1755.5q0 34.5 6 60.5t19 48q32 49 89 49q32 0 83 -41l85 -72q35 -29 77 -58l169 -112q83 -54 97.5 -83.5t14.5 -59t-31 -43.5q-8 -5 -34 -5t-75.5 11t-107.5 29.5t-118.5 43.5t-112.5 53q-119 65 -140 105t-21 74.5zM1112 1034q0 68 -50.5 68t-125 -18t-159.5 -56
q-194 -87 -351 -240q-21 -18 -56.5 -18t-59.5 17.5t-24 45.5t12 59.5t25 75t27 86.5q36 103 67 136q57 47 305 104q275 63 538 63q110 0 182 -81q62 -70 62 -147q0 -66 -98 -313q-155 -394 -317 -616q-45 -62 -89 -101q-64 -50 -168 -84q-176 -59 -228.5 -59t-103.5 13.5
t-98.5 35t-88.5 49t-72 54.5q-66 59 -66 96q0 35 85 113q87 80 143 80q38 0 92 -29l77 -44q25 -13 44.5 -13t54.5 28.5t75 75.5t82.5 108t83 125.5t77 128.5t63.5 117q60 115 60 140z" />
    <glyph glyph-name="Iacute" unicode="&#xcd;" horiz-adv-x="1531" 
d="M1049.5 1459.5q-21.5 18.5 -21.5 40t26.5 59.5t69.5 83.5t97.5 94t109.5 87.5q126 91 192 91q49 0 83 -30q65 -56 65 -120q0 -12 -5 -37q-19 -24 -77 -51l-101 -45q-80 -36 -151 -78l-109 -64q-83 -49 -120 -49t-58.5 18.5zM1112 1034q0 68 -50.5 68t-125 -18t-159.5 -56
q-194 -87 -351 -240q-21 -18 -56.5 -18t-59.5 17.5t-24 45.5t12 59.5t25 75t27 86.5q36 103 67 136q57 47 305 104q275 63 538 63q110 0 182 -81q62 -70 62 -147q0 -66 -98 -313q-155 -394 -317 -616q-45 -62 -89 -101q-64 -50 -168 -84q-176 -59 -228.5 -59t-103.5 13.5
t-98.5 35t-88.5 49t-72 54.5q-66 59 -66 96q0 35 85 113q87 80 143 80q38 0 92 -29l77 -44q25 -13 44.5 -13t54.5 28.5t75 75.5t82.5 108t83 125.5t77 128.5t63.5 117q60 115 60 140z" />
    <glyph glyph-name="Icircumflex" unicode="&#xce;" horiz-adv-x="1531" 
d="M1120 1562.5q-38 -24.5 -58.5 -42t-37 -17.5t-29.5 5.5t-24 15.5q-24 22 -24 41q0 35 20.5 56.5t56 50t79 57.5t92.5 56t99 49q107 46 164 46t97 -20.5t79 -52.5q57 -48 139 -151q15 -15 15 -36t-18.5 -43.5t-45.5 -40.5q-63 -41 -119 -41q-40 0 -147.5 77.5t-133 77.5
t-58 -12t-70.5 -31.5t-76 -44zM1112 1034q0 68 -50.5 68t-125 -18t-159.5 -56q-194 -87 -351 -240q-21 -18 -56.5 -18t-59.5 17.5t-24 45.5t12 59.5t25 75t27 86.5q36 103 67 136q57 47 305 104q275 63 538 63q110 0 182 -81q62 -70 62 -147q0 -66 -98 -313
q-155 -394 -317 -616q-45 -62 -89 -101q-64 -50 -168 -84q-176 -59 -228.5 -59t-103.5 13.5t-98.5 35t-88.5 49t-72 54.5q-66 59 -66 96q0 35 85 113q87 80 143 80q38 0 92 -29l77 -44q25 -13 44.5 -13t54.5 28.5t75 75.5t82.5 108t83 125.5t77 128.5t63.5 117
q60 115 60 140z" />
    <glyph glyph-name="Idieresis" unicode="&#xcf;" horiz-adv-x="1531" 
d="M1571 1530q-30 -15 -66 -15t-69.5 13.5t-59.5 38.5q-54 53 -54 137q0 129 188 191q63 21 103.5 21t60.5 -10t33 -27q26 -34 26 -69.5t-7.5 -64t-21 -59.5t-33.5 -61.5t-45 -55t-55 -39.5zM949 1530q-30 -15 -66 -15t-69.5 13.5t-59.5 38.5q-54 53 -54 137q0 129 188 191
q63 21 103.5 21t60.5 -10t33 -27q26 -34 26 -69.5t-7.5 -64t-21 -59.5t-33.5 -61.5t-45 -55t-55 -39.5zM1112 1034q0 68 -50.5 68t-125 -18t-159.5 -56q-194 -87 -351 -240q-21 -18 -56.5 -18t-59.5 17.5t-24 45.5t12 59.5t25 75t27 86.5q36 103 67 136q57 47 305 104
q275 63 538 63q110 0 182 -81q62 -70 62 -147q0 -66 -98 -313q-155 -394 -317 -616q-45 -62 -89 -101q-64 -50 -168 -84q-176 -59 -228.5 -59t-103.5 13.5t-98.5 35t-88.5 49t-72 54.5q-66 59 -66 96q0 35 85 113q87 80 143 80q38 0 92 -29l77 -44q25 -13 44.5 -13
t54.5 28.5t75 75.5t82.5 108t83 125.5t77 128.5t63.5 117q60 115 60 140z" />
    <glyph glyph-name="Eth" unicode="&#xd0;" horiz-adv-x="2214" 
d="M430 535q-95 0 -95 61q0 41 31 72q53 53 102 55l91 4l168 259q-232 -61 -385 -151q-53 -31 -88 -64q-66 -51 -107 -51q-75 0 -75 67q0 30 11.5 54t30 57t43 72.5t54.5 82t64 81.5q76 89 131 115t119.5 45.5t151.5 35.5q201 37 436 37q509 0 800 -147q242 -123 242 -342
q0 -47 -13.5 -113t-63 -166t-134.5 -193t-206.5 -174.5t-283.5 -142.5q-346 -131 -818 -131q-184 0 -285 82q-83 66 -83 163q0 34 16 66.5t38 72.5l116 193h-8zM803 535q-36 -83 -36 -110t12.5 -48.5t37.5 -38.5q57 -37 169 -37t229.5 18t215.5 48t175 68.5t132 78.5
q110 83 123 153q3 16 3 34q0 205 -438 291q-168 34 -363 38l-157 -287l316 15q37 2 58 -31q32 -49 -20 -127q-43 -65 -112 -65h-345z" />
    <glyph glyph-name="Ntilde" unicode="&#xd1;" horiz-adv-x="2041" 
d="M1341.5 1580.5q-18.5 -10.5 -35 -10.5t-30.5 5.5t-25 14.5q-24 20 -24 46t15.5 42.5t41 34.5t60 37.5t76.5 39t86 34.5q102 36 167.5 36t111.5 -26t85 -57.5t74.5 -57.5t69.5 -26q73 0 145 31q19 7 40.5 7t44.5 -18.5t23 -44t-21 -44t-66 -42.5t-104 -46
q-144 -53 -257 -53q-81 0 -195 69l-76 46q-34 22 -55 22q-66 0 -99.5 -14.5t-52 -25zM213 42q-62 -79 -101.5 -87.5t-65.5 -1.5t-46 23q-42 36 -42 96q0 44 27 88q583 927 634 1004q120 178 139 200l25 30q112 129 291 129q139 0 190 -61q12 -13 12.5 -50t3.5 -118l5 -172
q3 -91 7 -186l6 -186q8 -180 14 -310q39 69 79 161l85 194q116 260 224 411q68 97 224 97q115 0 206 -50q55 -30 54 -53q0 -21 -15 -40l-21 -29q-71 -99 -140 -206l-134 -213q-282 -466 -327 -535t-68.5 -96.5t-61 -46.5t-85.5 -34q-104 -33 -173 -33q-116 0 -157 33
q-44 40 -124 464l-34 188q-16 96 -29 191q-33 -51 -85 -121l-294 -392z" />
    <glyph glyph-name="Ograve" unicode="&#xd2;" horiz-adv-x="2214" 
d="M1463 1382q49 17 109.5 17t122 -9t129.5 -29t136 -51t122 -74q121 -96 121 -228q0 -156 -165 -342q-236 -266 -676 -474q-277 -130 -556 -184q-138 -26 -268.5 -26t-225 35.5t-154 88.5t-86.5 114t-27 129t40.5 159t105 180.5t145 174t160.5 156.5q258 230 534 381
q84 47 159 76q-216 70 -331 158q-70 53 -70 131q0 95 61 134q22 14 47.5 14t51 -16t56.5 -41l66 -56q35 -29 78 -58l168 -112q83 -54 97.5 -83.5t14.5 -59t-31 -43.5q-8 -5 -20 -5l51 -31q23 -15 35 -26zM532 276q18 -1 67 -1t142 25t190 67.5t194.5 99t186.5 118.5
t166.5 126.5t134.5 124.5q122 127 122 193q0 68 -82 101q-55 23 -118 23q-105 0 -173 -18q-292 -137 -569 -358q-198 -158 -283 -299q-44 -73 -44 -135.5t66 -66.5z" />
    <glyph glyph-name="Oacute" unicode="&#xd3;" horiz-adv-x="2214" 
d="M1463 1382q49 17 109.5 17t122 -9t129.5 -29t136 -51t122 -74q121 -96 121 -228q0 -156 -165 -342q-236 -266 -676 -474q-277 -130 -556 -184q-138 -26 -268.5 -26t-225 35.5t-154 88.5t-86.5 114t-27 129t40.5 159t105 180.5t145 174t160.5 156.5q249 222 527 377
q92 52 158 77q-8 14 -8 31t26.5 55t69.5 83.5t97.5 94t109.5 87.5q126 91 192 91q49 0 83 -30q65 -56 65 -120q0 -12 -5 -37q-19 -24 -77 -51l-100 -45q-87 -39 -175 -91.5t-130 -75.5q94 -52 134 -83zM532 276q18 -1 67 -1t142 25t190 67.5t194.5 99t186.5 118.5
t166.5 126.5t134.5 124.5q122 127 122 193q0 68 -82 101q-55 23 -118 23q-105 0 -173 -18q-292 -137 -569 -358q-198 -158 -283 -299q-44 -73 -44 -135.5t66 -66.5z" />
    <glyph glyph-name="Ocircumflex" unicode="&#xd4;" horiz-adv-x="2214" 
d="M1265 1562.5q-38 -24.5 -58.5 -42t-37 -17.5t-29.5 5.5t-24 15.5q-24 22 -24 41q0 35 20.5 56.5t56 50t79 57.5t92.5 56t98 49q108 46 165 46t97 -20.5t78 -52.5q58 -48 140 -151q15 -15 15 -36t-18.5 -43.5t-46.5 -40.5q-62 -41 -118 -41q-40 0 -147.5 77.5t-133 77.5
t-58 -12t-70.5 -31.5t-76 -44zM1463 1382q49 17 109.5 17t122 -9t129.5 -29t136 -51t122 -74q121 -96 121 -228q0 -156 -165 -342q-236 -266 -676 -474q-277 -130 -556 -184q-138 -26 -268.5 -26t-225 35.5t-154 88.5t-86.5 114t-27 129t40.5 159t105 180.5t145 174
t160.5 156.5q138 123 265.5 211.5t215.5 139.5t147 78q100 47 122 47t49.5 -13t60.5 -31q82 -46 107 -69zM532 276q18 -1 67 -1t142 25t190 67.5t194.5 99t186.5 118.5t166.5 126.5t134.5 124.5q122 127 122 193q0 68 -82 101q-55 23 -118 23q-105 0 -173 -18
q-292 -137 -569 -358q-198 -158 -283 -299q-44 -73 -44 -135.5t66 -66.5z" />
    <glyph glyph-name="Otilde" unicode="&#xd5;" horiz-adv-x="2214" 
d="M970.5 1580.5q-18.5 -10.5 -35 -10.5t-30.5 5.5t-25 14.5q-24 20 -24 46t15.5 42.5t41 34.5t60 37.5t76.5 39t87 34.5q101 36 166.5 36t111.5 -26t85 -57.5t74.5 -57.5t68.5 -26q74 0 146 31q19 7 40.5 7t44.5 -18.5t23 -44t-21 -44t-66 -42.5t-105 -46
q-143 -53 -256 -53q-81 0 -196 69l-76 46q-33 22 -54 22q-66 0 -99.5 -14.5t-52 -25zM1463 1382q49 17 109.5 17t122 -9t129.5 -29t136 -51t122 -74q121 -96 121 -228q0 -156 -165 -342q-236 -266 -676 -474q-277 -130 -556 -184q-138 -26 -268.5 -26t-225 35.5t-154 88.5
t-86.5 114t-27 129t40.5 159t105 180.5t145 174t160.5 156.5q138 123 265.5 211.5t215.5 139.5t147 78q100 47 122 47t49.5 -13t60.5 -31q82 -46 107 -69zM532 276q18 -1 67 -1t142 25t190 67.5t194.5 99t186.5 118.5t166.5 126.5t134.5 124.5q122 127 122 193q0 68 -82 101
q-55 23 -118 23q-105 0 -173 -18q-292 -137 -569 -358q-198 -158 -283 -299q-44 -73 -44 -135.5t66 -66.5z" />
    <glyph glyph-name="Odieresis" unicode="&#xd6;" horiz-adv-x="2214" 
d="M1716 1530q-30 -15 -66 -15t-69.5 13.5t-58.5 38.5q-55 53 -55 137q0 129 187 191q64 21 104.5 21t60.5 -10t33 -27q26 -34 26 -69.5t-7.5 -64t-21 -59.5t-33.5 -61.5t-45 -55t-55 -39.5zM1094 1530q-30 -15 -66 -15t-69.5 13.5t-58.5 38.5q-55 53 -55 137q0 129 187 191
q64 21 104.5 21t60.5 -10t33 -27q26 -34 26 -69.5t-7.5 -64t-21 -59.5t-33.5 -61.5t-45 -55t-55 -39.5zM1463 1382q49 17 109.5 17t122 -9t129.5 -29t136 -51t122 -74q121 -96 121 -228q0 -156 -165 -342q-236 -266 -676 -474q-277 -130 -556 -184q-138 -26 -268.5 -26
t-225 35.5t-154 88.5t-86.5 114t-27 129t40.5 159t105 180.5t145 174t160.5 156.5q138 123 265.5 211.5t215.5 139.5t147 78q100 47 122 47t49.5 -13t60.5 -31q82 -46 107 -69zM532 276q18 -1 67 -1t142 25t190 67.5t194.5 99t186.5 118.5t166.5 126.5t134.5 124.5
q122 127 122 193q0 68 -82 101q-55 23 -118 23q-105 0 -173 -18q-292 -137 -569 -358q-198 -158 -283 -299q-44 -73 -44 -135.5t66 -66.5z" />
    <glyph glyph-name="multiply" unicode="&#xd7;" horiz-adv-x="2038" 
d="M904 604l-401 396l103 102l394 -403l395 403l102 -102l-402 -396l402 -395l-102 -102l-395 401l-394 -401l-103 102z" />
    <glyph glyph-name="Oslash" unicode="&#xd8;" horiz-adv-x="2214" 
d="M87 -169q0 82 155 217q-147 79 -186 213q-11 38 -11 97t40.5 150t105 180.5t145 174t160.5 156.5q138 123 265.5 211.5t215.5 139.5t147 78q100 47 122 47t49.5 -13t60.5 -31q82 -46 107 -69q49 17 115 17t142 -14q171 154 306 225q40 21 62.5 21t41.5 -8.5t32 -22.5
q24 -27 24 -54.5t-15 -52t-41.5 -56.5t-61.5 -69l-74 -75q209 -114 209 -285q0 -156 -165 -342q-236 -266 -676 -474q-277 -130 -556 -184q-138 -26 -264 -26h-9q-128 -151 -247 -214q-42 -22 -85.5 -22t-78.5 22.5t-35 62.5zM532 276q18 -1 67 -1t142 25t190 67.5t194.5 99
t186.5 118.5t166.5 126.5t134.5 124.5q122 127 122 193q0 68 -82 101q-55 23 -118 23q-105 0 -173 -18q-292 -137 -569 -358q-198 -158 -283 -299q-44 -73 -44 -135.5t66 -66.5z" />
    <glyph glyph-name="Ugrave" unicode="&#xd9;" horiz-adv-x="2039" 
d="M788 1755.5q0 34.5 6 60.5t20 48q31 49 88 49q32 0 83 -41l85 -72q35 -29 78 -58l168 -112q83 -54 97.5 -83.5t14.5 -59t-31 -43.5q-8 -5 -34 -5t-75.5 11t-107.5 29.5t-118.5 43.5t-113.5 53q-118 65 -139 105t-21 74.5zM1578 473q0 -101 63 -101q28 0 97 44
q136 91 188 128l80 59q28 21 55.5 43t67.5 38.5t65 16.5t32 -18t7 -44t-10.5 -52.5t-27.5 -56.5q-48 -83 -98 -131t-87 -79l-83 -68q-233 -182 -397 -237q-45 -15 -105.5 -15t-116.5 29t-89 75q-59 84 -59 228q0 61 10 119q-219 -235 -377 -335q-209 -132 -438 -132
q-134 0 -244 91q-117 97 -117 233q0 259 340 730l97 130q100 125 157 179q13 10 35 10q73 0 165 -74q99 -79 90 -148q-8 -82 -104 -205q-42 -53 -89.5 -107.5t-90.5 -110.5q-99 -130 -111 -227q-7 -53 41 -79q14 -8 55 -8t112.5 26.5t145 70t146 98.5t138 112t120.5 111
l95 97q296 328 330 363q74 76 91 76t38.5 -9t46 -24t49 -34t45.5 -41q45 -47 49 -83q6 -22 -28.5 -87.5t-74.5 -111.5l-88 -102q-181 -208 -208 -321q-8 -34 -8 -66z" />
    <glyph glyph-name="Uacute" unicode="&#xda;" horiz-adv-x="2039" 
d="M1194.5 1459.5q-21.5 18.5 -21.5 40t26.5 59.5t69.5 83.5t97.5 94t109.5 87.5q126 91 192 91q49 0 83 -30q65 -56 65 -120q0 -12 -5 -37q-19 -24 -77 -51l-100 -45q-81 -36 -152 -78l-108 -64q-84 -49 -121 -49t-58.5 18.5zM1578 473q0 -101 63 -101q28 0 97 44
q136 91 188 128l80 59q28 21 55.5 43t67.5 38.5t65 16.5t32 -18t7 -44t-10.5 -52.5t-27.5 -56.5q-48 -83 -98 -131t-87 -79l-83 -68q-233 -182 -397 -237q-45 -15 -105.5 -15t-116.5 29t-89 75q-59 84 -59 228q0 61 10 119q-219 -235 -377 -335q-209 -132 -438 -132
q-134 0 -244 91q-117 97 -117 233q0 259 340 730l97 130q100 125 157 179q13 10 35 10q73 0 165 -74q99 -79 90 -148q-8 -82 -104 -205q-42 -53 -89.5 -107.5t-90.5 -110.5q-99 -130 -111 -227q-7 -53 41 -79q14 -8 55 -8t112.5 26.5t145 70t146 98.5t138 112t120.5 111
l95 97q296 328 330 363q74 76 91 76t38.5 -9t46 -24t49 -34t45.5 -41q45 -47 49 -83q6 -22 -28.5 -87.5t-74.5 -111.5l-88 -102q-181 -208 -208 -321q-8 -34 -8 -66z" />
    <glyph glyph-name="Ucircumflex" unicode="&#xdb;" horiz-adv-x="2039" 
d="M1265 1562.5q-38 -24.5 -58.5 -42t-37 -17.5t-29.5 5.5t-24 15.5q-24 22 -24 41q0 35 20.5 56.5t56 50t79 57.5t92.5 56t98 49q108 46 165 46t97 -20.5t78 -52.5q58 -48 140 -151q15 -15 15 -36t-18.5 -43.5t-46.5 -40.5q-62 -41 -118 -41q-40 0 -147.5 77.5t-133 77.5
t-58 -12t-70.5 -31.5t-76 -44zM1578 473q0 -101 63 -101q28 0 97 44q136 91 188 128l80 59q28 21 55.5 43t67.5 38.5t65 16.5t32 -18t7 -44t-10.5 -52.5t-27.5 -56.5q-48 -83 -98 -131t-87 -79l-83 -68q-233 -182 -397 -237q-45 -15 -105.5 -15t-116.5 29t-89 75
q-59 84 -59 228q0 61 10 119q-219 -235 -377 -335q-209 -132 -438 -132q-134 0 -244 91q-117 97 -117 233q0 259 340 730l97 130q100 125 157 179q13 10 35 10q73 0 165 -74q99 -79 90 -148q-8 -82 -104 -205q-42 -53 -89.5 -107.5t-90.5 -110.5q-99 -130 -111 -227
q-7 -53 41 -79q14 -8 55 -8t112.5 26.5t145 70t146 98.5t138 112t120.5 111l95 97q296 328 330 363q74 76 91 76t38.5 -9t46 -24t49 -34t45.5 -41q45 -47 49 -83q6 -22 -28.5 -87.5t-74.5 -111.5l-88 -102q-181 -208 -208 -321q-8 -34 -8 -66z" />
    <glyph glyph-name="Udieresis" unicode="&#xdc;" horiz-adv-x="2039" 
d="M1716 1530q-30 -15 -66 -15t-69.5 13.5t-58.5 38.5q-55 53 -55 137q0 129 187 191q64 21 104.5 21t60.5 -10t33 -27q26 -34 26 -69.5t-7.5 -64t-21 -59.5t-33.5 -61.5t-45 -55t-55 -39.5zM1094 1530q-30 -15 -66 -15t-69.5 13.5t-58.5 38.5q-55 53 -55 137q0 129 187 191
q64 21 104.5 21t60.5 -10t33 -27q26 -34 26 -69.5t-7.5 -64t-21 -59.5t-33.5 -61.5t-45 -55t-55 -39.5zM1578 473q0 -101 63 -101q28 0 97 44q136 91 188 128l80 59q28 21 55.5 43t67.5 38.5t65 16.5t32 -18t7 -44t-10.5 -52.5t-27.5 -56.5q-48 -83 -98 -131t-87 -79
l-83 -68q-233 -182 -397 -237q-45 -15 -105.5 -15t-116.5 29t-89 75q-59 84 -59 228q0 61 10 119q-219 -235 -377 -335q-209 -132 -438 -132q-134 0 -244 91q-117 97 -117 233q0 259 340 730l97 130q100 125 157 179q13 10 35 10q73 0 165 -74q99 -79 90 -148
q-8 -82 -104 -205q-42 -53 -89.5 -107.5t-90.5 -110.5q-99 -130 -111 -227q-7 -53 41 -79q14 -8 55 -8t112.5 26.5t145 70t146 98.5t138 112t120.5 111l95 97q296 328 330 363q74 76 91 76t38.5 -9t46 -24t49 -34t45.5 -41q45 -47 49 -83q6 -22 -28.5 -87.5t-74.5 -111.5
l-88 -102q-181 -208 -208 -321q-8 -34 -8 -66z" />
    <glyph glyph-name="Yacute" unicode="&#xdd;" horiz-adv-x="1869" 
d="M1269.5 1459.5q-21.5 18.5 -21.5 40t26.5 59.5t69.5 83.5t97.5 94t109.5 87.5q126 91 192 91q49 0 83 -30q65 -56 65 -120q0 -12 -5 -37q-19 -24 -77 -51l-100 -45q-81 -36 -152 -78l-108 -64q-84 -49 -121 -49t-58.5 18.5zM369 104q-57 0 -109 25.5t-89 68.5
q-117 134 -42 336q73 193 269 462q101 138 180 223q131 141 162.5 141t70 -20t72.5 -50q78 -72 74 -138q-3 -53 -99 -179l-88 -113q-286 -356 -131 -356q34 0 70 17q392 179 729 517l149 154q64 67 106.5 107.5t67.5 40.5t53 -17t49 -41q47 -52 45 -92q-18 -248 -317 -840
q-62 -124 -130 -246q-179 -310 -252 -420.5t-126 -179.5q-114 -147 -158 -147q-49 0 -166 97q-124 101 -124 162q0 19 72 111l260 327q199 256 271 358q157 224 231 376q-253 -210 -346 -281l-172 -127q-391 -276 -582 -276z" />
    <glyph glyph-name="Thorn" unicode="&#xde;" horiz-adv-x="1527" 
d="M552 272q-161 0 -208 51l-76 -181q-35 -77 -62 -116q-65 -94 -157 -94q-52 0 -98 37q-25 21 -25 56t4.5 67t13.5 78q18 93 57 245q162 510 384 900q67 116 231 116q129 0 206 -64q28 -22 -15.5 -86t-80.5 -127l-71 -128q5 2 9 4t40.5 18.5t113 45.5t156.5 52
q174 49 310 49q101 0 168 -93q64 -87 64 -208q0 -170 -139 -262l-115 -71q-348 -209 -586 -271q-69 -18 -124 -18zM1101 870q0 29 -47 29t-88 -9t-88.5 -26.5t-104.5 -43.5l-278 -130l-90 -215l596 303q100 52 100 92z" />
    <glyph glyph-name="germandbls" unicode="&#xdf;" horiz-adv-x="1191" 
d="M910 1239q0 38 -56 38q-74 0 -224 -92q-221 -268 -441 -687q-96 -227 -163 -452l-99 -329q-56 -187 -79 -210t-45 -33q-41 -20 -85.5 -20t-73.5 8.5t-50 24.5q-48 35 -48 87q0 261 172 698q166 418 394 738q155 215 295 302q252 159 505 215q85 19 148 19t106 -25.5
t74 -68.5q63 -88 63 -207q0 -109 -149 -212q-25 -22 -71 -42l-70 -31q-25 -11 -41 -20q104 -118 138 -282q12 -58 11 -120t-41.5 -129.5t-106.5 -132.5t-150 -123.5t-171 -103.5q-188 -97 -300 -97q-205 0 -205 109q0 99 104 171q53 36 103 60t94 48l92 50q101 56 125.5 89
t24.5 63.5t-10.5 67t-27.5 70.5q-36 71 -86 123q-7 9 -7 27t4.5 39t12.5 42q26 74 86 124q30 25 63 49l66 45q119 79 119 110z" />
    <glyph glyph-name="agrave" unicode="&#xe0;" horiz-adv-x="1530" 
d="M982 1042q-33 -10 -120 45t-145 99.5t-108 91.5q-113 106 -126 174q-11 50 15 97q49 88 113 88q40 0 64.5 -28t46.5 -61l48 -72q25 -38 57 -78l131 -154q64 -76 67.5 -97.5t3.5 -39.5q0 -60 -47 -65zM1737 751q32 0 32 -54q0 -93 -130 -241l-57 -58q-259 -259 -488 -345
q-142 -53 -204 5q-51 49 -81 158l-24 87l-213 -131l-123 -70q-220 -120 -330 -120q-141 0 -235 109q-90 103 -90 239q0 134 107 239q153 150 483 275q312 117 504 117q65 0 65 -64q0 -44 -17 -66t-70 -45l-126 -54q-280 -117 -410 -243q-37 -35 -37 -68t53 -33q52 0 242 112
l83 49q193 116 323 116q110 0 146 -97q9 -26 17 -52.5t16 -47.5q18 -49 32.5 -49t41.5 14.5t59.5 37t67.5 49.5l121 97q161 134 242 134z" />
    <glyph glyph-name="aacute" unicode="&#xe1;" horiz-adv-x="1530" 
d="M923.5 1051.5q-21.5 18.5 -21.5 40t26.5 59.5t69.5 83.5t97.5 94t109.5 87.5q126 91 192 91q49 0 83 -30q65 -56 65 -120q0 -12 -5 -37q-19 -24 -77 -51l-101 -45q-80 -36 -151 -78l-109 -64q-83 -49 -120 -49t-58.5 18.5zM1737 751q32 0 32 -54q0 -93 -130 -241l-57 -58
q-259 -259 -488 -345q-142 -53 -204 5q-51 49 -81 158l-24 87l-213 -131l-123 -70q-220 -120 -330 -120q-141 0 -235 109q-90 103 -90 239q0 134 107 239q153 150 483 275q312 117 504 117q65 0 65 -64q0 -44 -17 -66t-70 -45l-126 -54q-280 -117 -410 -243q-37 -35 -37 -68
t53 -33q52 0 242 112l83 49q193 116 323 116q110 0 146 -97q9 -26 17 -52.5t16 -47.5q18 -49 32.5 -49t41.5 14.5t59.5 37t67.5 49.5l121 97q161 134 242 134z" />
    <glyph glyph-name="acircumflex" unicode="&#xe2;" horiz-adv-x="1530" 
d="M767 1153.5q-38 -24.5 -58.5 -42t-37 -17.5t-29.5 5.5t-24 15.5q-24 22 -24 41q0 35 20.5 56.5t56 50t79 57.5t92.5 56t98 48q108 47 165 47t97 -20.5t78 -52.5q58 -48 140 -151q15 -15 15 -36t-18.5 -43.5t-46.5 -40.5q-62 -41 -118 -41q-40 0 -147.5 77.5t-133 77.5
t-58 -12t-70.5 -31.5t-76 -44zM1737 751q32 0 32 -54q0 -93 -130 -241l-57 -58q-259 -259 -488 -345q-142 -53 -204 5q-51 49 -81 158l-24 87l-213 -131l-123 -70q-220 -120 -330 -120q-141 0 -235 109q-90 103 -90 239q0 134 107 239q153 150 483 275q312 117 504 117
q65 0 65 -64q0 -44 -17 -66t-70 -45l-126 -54q-280 -117 -410 -243q-37 -35 -37 -68t53 -33q52 0 242 112l83 49q193 116 323 116q110 0 146 -97q9 -26 17 -52.5t16 -47.5q18 -49 32.5 -49t41.5 14.5t59.5 37t67.5 49.5l121 97q161 134 242 134z" />
    <glyph glyph-name="atilde" unicode="&#xe3;" horiz-adv-x="1530" 
d="M635.5 1161.5q-18.5 -10.5 -35 -10.5t-30.5 5.5t-25 14.5q-24 20 -24 46t15.5 42.5t41 34.5t60 37.5t76.5 39t86 35.5q102 35 167.5 35t111.5 -26t85 -57.5t74.5 -57.5t69.5 -26q73 0 145 31q19 7 40.5 7t44.5 -18.5t23 -44t-21 -44t-66 -42.5t-104 -46
q-144 -53 -257 -53q-81 0 -195 68l-76 48q-34 21 -55 21q-66 0 -99.5 -14.5t-52 -25zM1737 751q32 0 32 -54q0 -93 -130 -241l-57 -58q-259 -259 -488 -345q-142 -53 -204 5q-51 49 -81 158l-24 87l-213 -131l-123 -70q-220 -120 -330 -120q-141 0 -235 109q-90 103 -90 239
q0 134 107 239q153 150 483 275q312 117 504 117q65 0 65 -64q0 -44 -17 -66t-70 -45l-126 -54q-280 -117 -410 -243q-37 -35 -37 -68t53 -33q52 0 242 112l83 49q193 116 323 116q110 0 146 -97q9 -26 17 -52.5t16 -47.5q18 -49 32.5 -49t41.5 14.5t59.5 37t67.5 49.5
l121 97q161 134 242 134z" />
    <glyph glyph-name="adieresis" unicode="&#xe4;" horiz-adv-x="1530" 
d="M1303 1135q-30 -14 -66 -14t-69.5 13.5t-59.5 38.5q-54 53 -54 137q0 117 188 173q63 19 103.5 19t60.5 -10t33 -27q26 -34 26 -69t-7.5 -61t-21 -55t-33.5 -57.5t-45 -51t-55 -36.5zM681 1135q-30 -14 -66 -14t-69.5 13.5t-59.5 38.5q-54 53 -54 137q0 117 188 173
q63 19 103.5 19t60.5 -10t33 -27q26 -34 26 -69t-7.5 -61t-21 -55t-33.5 -57.5t-45 -51t-55 -36.5zM1737 751q32 0 32 -54q0 -93 -130 -241l-57 -58q-259 -259 -488 -345q-142 -53 -204 5q-51 49 -81 158l-24 87l-213 -131l-123 -70q-220 -120 -330 -120q-141 0 -235 109
q-90 103 -90 239q0 134 107 239q153 150 483 275q312 117 504 117q65 0 65 -64q0 -44 -17 -66t-70 -45l-126 -54q-280 -117 -410 -243q-37 -35 -37 -68t53 -33q52 0 242 112l83 49q193 116 323 116q110 0 146 -97q9 -26 17 -52.5t16 -47.5q18 -49 32.5 -49t41.5 14.5
t59.5 37t67.5 49.5l121 97q161 134 242 134z" />
    <glyph glyph-name="aring" unicode="&#xe5;" horiz-adv-x="1530" 
d="M1157 1522q18 6 42 6t59.5 -7.5t69.5 -23.5q85 -39 85 -105q0 -73 -97 -158q-148 -129 -354 -180q-65 -16 -117.5 -16t-85 12t-53.5 30q-39 36 -39 72.5t14 69t36.5 64.5t50.5 62t55.5 56t52.5 46l41 31q135 90 170 90q11 0 38 -22t32 -27zM854 1236.5q-31 -37.5 -31 -61
t11 -26t34.5 -2.5t65.5 14.5t85 37t82.5 50.5t70.5 55q68 61 68 91q0 40 -66 40q-35 0 -57 -6q-99 -48 -165.5 -101.5t-97.5 -91zM1737 751q32 0 32 -54q0 -93 -130 -241l-57 -58q-259 -259 -488 -345q-142 -53 -204 5q-51 49 -81 158l-24 87l-213 -131l-123 -70
q-220 -120 -330 -120q-141 0 -235 109q-90 103 -90 239q0 134 107 239q153 150 483 275q312 117 504 117q65 0 65 -64q0 -44 -17 -66t-70 -45l-126 -54q-280 -117 -410 -243q-37 -35 -37 -68t53 -33q52 0 242 112l83 49q193 116 323 116q110 0 146 -97q9 -26 17 -52.5
t16 -47.5q18 -49 32.5 -49t41.5 14.5t59.5 37t67.5 49.5l121 97q161 134 242 134z" />
    <glyph glyph-name="ae" unicode="&#xe6;" horiz-adv-x="2211" 
d="M2399 739q48 0 48 -54q0 -36 -24.5 -90.5t-70.5 -102t-105.5 -98.5t-137 -107t-169.5 -111t-194 -99q-226 -98 -420 -98q-160 0 -282 103q-38 32 -66 73q-19 20 -36 45l-32 46q-36 50 -60.5 50t-73 -24t-110.5 -60l-136 -78q-279 -163 -439 -163q-129 0 -215 109
q-82 105 -82 243q0 146 98 242q170 149 502 274q324 122 509 122q37 0 53 -31q6 -13 6 -46q0 -62 -67 -94q-73 -31 -153.5 -61.5t-161.5 -66.5q-188 -84 -297 -178q-33 -36 -33 -69t49.5 -33t102 17.5t105 43.5t104 56t101.5 56q117 61 187 61q41 0 76 -61q103 174 281 291
q176 117 454 117q87 0 128 -26q75 -49 90 -147q16 -110 -141 -243q-26 -22 -47.5 -37.5t-62.5 -43.5q-89 -61 -253 -145q68 -35 110 -35t85.5 13t98.5 37t117.5 57.5t126.5 73.5q143 89 248 182q55 51 140 81q28 9 49 9zM1296 467q68 35 99 54l63 37q124 78 124 110
q0 38 -46 62q-13 7 -40.5 7t-67 -17t-70.5 -46q-69 -65 -69 -156q0 -29 7 -51z" />
    <glyph glyph-name="ccedilla" unicode="&#xe7;" 
d="M527 -122q206 -57 206 -178q0 -99 -181 -224q-94 -65 -156 -89t-86 -24t-40 22t-16 46.5t23 49.5l51 53q73 75 73 133q0 13 -23 31l-52 40q-75 59 -75 101q0 36 92 139q-8 -1 -17 -1h-16q-279 0 -404 200q-49 78 -49 144t14.5 116t40.5 95q91 164 366 290
q217 101 414 131q85 13 121 13t60.5 -7.5t42.5 -20.5q40 -29 40 -79t-26 -94.5t-66 -74.5q-78 -58 -174 -58q-131 0 -216 34q-59 -21 -100 -77q-34 -46 -34 -82.5t16.5 -71t46.5 -61.5q66 -58 159 -58q216 0 503 229l91 71q144 110 205.5 110t61.5 -81q0 -47 -123 -182
q-126 -137 -247 -223q-76 -58 -184 -116q8 -56 -39 -88q-39 -26 -95 -51l-91 -42q-80 -37 -117 -65z" />
    <glyph glyph-name="egrave" unicode="&#xe8;" 
d="M727 1042q-33 -10 -120 45t-145 99.5t-108 91.5q-113 106 -126 174q-11 50 15 97q49 88 113 88q40 0 64.5 -28t47.5 -61l47 -72q25 -38 57 -78l130 -154q65 -76 68.5 -97.5t3.5 -39.5q0 -60 -47 -65zM1383 735q48 0 48 -54q0 -36 -24.5 -90.5t-70.5 -102t-105.5 -98.5
t-139 -107t-175.5 -111t-204 -99q-239 -98 -463 -98q-171 0 -299 89q-134 93 -134 226q0 209 225 397q194 162 457 251q160 54 271 54q90 0 152 -44q66 -48 66 -129q0 -127 -201 -281q-32 -25 -58 -42l-36 -24q-100 -70 -304 -157q63 -33 117.5 -33t98 13t98.5 37
t117.5 57.5t126.5 73.5q143 89 248 182q55 51 140 81q28 9 49 9zM280 454l55 28q27 14 48 26q202 116 230 143t28 37.5t-6 24.5t-16 25q-24 28 -51 28t-59.5 -10t-65.5 -27.5t-63.5 -42t-53.5 -52.5q-53 -63 -53 -109t7 -71z" />
    <glyph glyph-name="eacute" unicode="&#xe9;" 
d="M668.5 1051.5q-21.5 18.5 -21.5 40t26.5 59.5t69.5 83.5t97.5 94t109.5 87.5q126 91 192 91q49 0 83 -30q65 -56 65 -120q0 -12 -5 -37q-19 -24 -77 -51l-100 -45q-81 -36 -152 -78l-108 -64q-84 -49 -121 -49t-58.5 18.5zM1383 735q48 0 48 -54q0 -36 -24.5 -90.5
t-70.5 -102t-105.5 -98.5t-139 -107t-175.5 -111t-204 -99q-239 -98 -463 -98q-171 0 -299 89q-134 93 -134 226q0 209 225 397q194 162 457 251q160 54 271 54q90 0 152 -44q66 -48 66 -129q0 -127 -201 -281q-32 -25 -58 -42l-36 -24q-100 -70 -304 -157q63 -33 117.5 -33
t98 13t98.5 37t117.5 57.5t126.5 73.5q143 89 248 182q55 51 140 81q28 9 49 9zM280 454l55 28q27 14 48 26q202 116 230 143t28 37.5t-6 24.5t-16 25q-24 28 -51 28t-59.5 -10t-65.5 -27.5t-63.5 -42t-53.5 -52.5q-53 -63 -53 -109t7 -71z" />
    <glyph glyph-name="ecircumflex" unicode="&#xea;" 
d="M512 1153.5q-38 -24.5 -58.5 -42t-37 -17.5t-29.5 5.5t-24 15.5q-24 22 -24 41q0 35 20.5 56.5t56 50t79 57.5t92.5 56t99 48q107 47 164 47t97 -20.5t79 -52.5q57 -48 139 -151q15 -15 15 -36t-18.5 -43.5t-45.5 -40.5q-63 -41 -119 -41q-40 0 -147.5 77.5t-133 77.5
t-58 -12t-70.5 -31.5t-76 -44zM1383 735q48 0 48 -54q0 -36 -24.5 -90.5t-70.5 -102t-105.5 -98.5t-139 -107t-175.5 -111t-204 -99q-239 -98 -463 -98q-171 0 -299 89q-134 93 -134 226q0 209 225 397q194 162 457 251q160 54 271 54q90 0 152 -44q66 -48 66 -129
q0 -127 -201 -281q-32 -25 -58 -42l-36 -24q-100 -70 -304 -157q63 -33 117.5 -33t98 13t98.5 37t117.5 57.5t126.5 73.5q143 89 248 182q55 51 140 81q28 9 49 9zM280 454l55 28q27 14 48 26q202 116 230 143t28 37.5t-6 24.5t-16 25q-24 28 -51 28t-59.5 -10t-65.5 -27.5
t-63.5 -42t-53.5 -52.5q-53 -63 -53 -109t7 -71z" />
    <glyph glyph-name="edieresis" unicode="&#xeb;" 
d="M1048 1135q-30 -14 -66 -14t-69.5 13.5t-58.5 38.5q-55 53 -55 137q0 117 187 173q64 19 104.5 19t60.5 -10t33 -27q26 -34 26 -69t-7.5 -61t-21 -55t-33.5 -57.5t-45 -51t-55 -36.5zM426 1135q-30 -14 -66 -14t-69.5 13.5t-58.5 38.5q-55 53 -55 137q0 117 187 173
q64 19 104.5 19t60.5 -10t33 -27q26 -34 26 -69t-7.5 -61t-21 -55t-33.5 -57.5t-45 -51t-55 -36.5zM1383 735q48 0 48 -54q0 -36 -24.5 -90.5t-70.5 -102t-105.5 -98.5t-139 -107t-175.5 -111t-204 -99q-239 -98 -463 -98q-171 0 -299 89q-134 93 -134 226q0 209 225 397
q194 162 457 251q160 54 271 54q90 0 152 -44q66 -48 66 -129q0 -127 -201 -281q-32 -25 -58 -42l-36 -24q-100 -70 -304 -157q63 -33 117.5 -33t98 13t98.5 37t117.5 57.5t126.5 73.5q143 89 248 182q55 51 140 81q28 9 49 9zM280 454l55 28q27 14 48 26q202 116 230 143
t28 37.5t-6 24.5t-16 25q-24 28 -51 28t-59.5 -10t-65.5 -27.5t-63.5 -42t-53.5 -52.5q-53 -63 -53 -109t7 -71z" />
    <glyph glyph-name="igrave" unicode="&#xec;" horiz-adv-x="1020" 
d="M642 1042q-33 -10 -120 45t-145 99.5t-108 91.5q-113 106 -126 174q-11 50 15 97q49 88 113 88q40 0 64.5 -28t46.5 -61l48 -72q25 -38 57 -78l131 -154q64 -76 67.5 -97.5t3.5 -39.5q0 -60 -47 -65zM423 965q229 0 229 -136q0 -144 -225 -379q-23 -24 -34 -33
q0 -34 16 -60q28 -44 54 -44t68 16t90.5 42.5t101.5 60.5t105 71l192 142q109 79 177 79q27 0 41.5 -19.5t14.5 -45.5t-26 -71.5t-71.5 -100t-106.5 -114t-132 -117t-147.5 -109.5t-152.5 -91q-166 -87 -262.5 -87t-171 33.5t-132.5 89.5q-129 125 -129 278q0 141 84 286
q77 131 196 220t221 89z" />
    <glyph glyph-name="iacute" unicode="&#xed;" horiz-adv-x="1020" 
d="M583.5 1051.5q-21.5 18.5 -21.5 40t26.5 59.5t69.5 83.5t97.5 94t109.5 87.5q126 91 192 91q49 0 83 -30q65 -56 65 -120q0 -12 -5 -37q-19 -24 -77 -51l-101 -45q-80 -36 -151 -78l-109 -64q-83 -49 -120 -49t-58.5 18.5zM423 965q229 0 229 -136q0 -144 -225 -379
q-23 -24 -34 -33q0 -34 16 -60q28 -44 54 -44t68 16t90.5 42.5t101.5 60.5t105 71l192 142q109 79 177 79q27 0 41.5 -19.5t14.5 -45.5t-26 -71.5t-71.5 -100t-106.5 -114t-132 -117t-147.5 -109.5t-152.5 -91q-166 -87 -262.5 -87t-171 33.5t-132.5 89.5q-129 125 -129 278
q0 141 84 286q77 131 196 220t221 89z" />
    <glyph glyph-name="icircumflex" unicode="&#xee;" horiz-adv-x="1020" 
d="M427 1153.5q-38 -24.5 -58.5 -42t-37 -17.5t-29.5 5.5t-24 15.5q-24 22 -24 41q0 35 20.5 56.5t56 50t79 57.5t92.5 56t98 48q108 47 165 47t97 -20.5t78 -52.5q58 -48 140 -151q15 -15 15 -36t-18.5 -43.5t-46.5 -40.5q-62 -41 -118 -41q-40 0 -147.5 77.5t-133 77.5
t-58 -12t-70.5 -31.5t-76 -44zM423 965q229 0 229 -136q0 -144 -225 -379q-23 -24 -34 -33q0 -34 16 -60q28 -44 54 -44t68 16t90.5 42.5t101.5 60.5t105 71l192 142q109 79 177 79q27 0 41.5 -19.5t14.5 -45.5t-26 -71.5t-71.5 -100t-106.5 -114t-132 -117t-147.5 -109.5
t-152.5 -91q-166 -87 -262.5 -87t-171 33.5t-132.5 89.5q-129 125 -129 278q0 141 84 286q77 131 196 220t221 89z" />
    <glyph glyph-name="idieresis" unicode="&#xef;" horiz-adv-x="1020" 
d="M963 1135q-30 -14 -66 -14t-69.5 13.5t-59.5 38.5q-54 53 -54 137q0 117 188 173q63 19 103.5 19t60.5 -10t33 -27q26 -34 26 -69t-7.5 -61t-21 -55t-33.5 -57.5t-45 -51t-55 -36.5zM341 1135q-30 -14 -66 -14t-69.5 13.5t-59.5 38.5q-54 53 -54 137q0 117 188 173
q63 19 103.5 19t60.5 -10t33 -27q26 -34 26 -69t-7.5 -61t-21 -55t-33.5 -57.5t-45 -51t-55 -36.5zM423 965q229 0 229 -136q0 -144 -225 -379q-23 -24 -34 -33q0 -34 16 -60q28 -44 54 -44t68 16t90.5 42.5t101.5 60.5t105 71l192 142q109 79 177 79q27 0 41.5 -19.5
t14.5 -45.5t-26 -71.5t-71.5 -100t-106.5 -114t-132 -117t-147.5 -109.5t-152.5 -91q-166 -87 -262.5 -87t-171 33.5t-132.5 89.5q-129 125 -129 278q0 141 84 286q77 131 196 220t221 89z" />
    <glyph glyph-name="eth" unicode="&#xf0;" horiz-adv-x="1191" 
d="M140 -18q-71 0 -143 30.5t-117 79.5q-88 96 -88 237q0 158 104 240q232 186 464 255q74 22 112.5 22t67 -11.5t56.5 -30.5q66 -44 66 -86q0 -37 -42 -55l-35 -15q-211 -91 -287 -163q-24 -23 -24 -38t6.5 -29.5t17.5 -27.5q25 -30 48 -30t58.5 9.5t79.5 26.5
q103 42 183 99.5t80 159.5q0 29 -16 102t-71 166t-124 172q-179 -73 -321 -151q-16 -8 -31.5 -8t-28 7.5t-21.5 18.5q-19 25 -19 58t15.5 46t39.5 26.5t61 31.5l187 91q-41 38 -80 71l-134 108q-28 22 -44 38q-7 32 8 54q28 40 73 27q220 -62 410 -190l277 123
q122 53 156 62q43 11 57 -56q4 -19 4 -39t-3 -39t-10 -35q-14 -36 -36 -43l-283 -98q157 -139 260 -304q64 -109 64 -209q0 -182 -174 -356q-145 -134 -411 -245q-243 -102 -412 -102z" />
    <glyph glyph-name="ntilde" unicode="&#xf1;" horiz-adv-x="1531" 
d="M635.5 1161.5q-18.5 -10.5 -35 -10.5t-30.5 5.5t-25 14.5q-24 20 -24 46t15.5 42.5t41 34.5t60 37.5t76.5 39t86 35.5q102 35 167.5 35t111.5 -26t85 -57.5t74.5 -57.5t69.5 -26q73 0 145 31q19 7 40.5 7t44.5 -18.5t23 -44t-21 -44t-66 -42.5t-104 -46
q-144 -53 -257 -53q-81 0 -195 68l-76 48q-34 21 -55 21q-66 0 -99.5 -14.5t-52 -25zM1113 537q0 -91 53 -91q130 0 338 176l27 23q81 54 131.5 54t64 -15t13.5 -48q0 -74 -75 -157q-112 -136 -307 -258q-226 -142 -405 -142q-125 0 -157 139q-9 36 -13 69q-10 80 -21 89
t-43.5 -1.5t-77 -35t-98.5 -59.5q-286 -190 -329 -217q-103 -64 -139 -64t-70.5 15t-60.5 38q-54 51 -54 104q0 303 132 530q88 153 216 212q65 31 140 31q137 0 137 -90q0 -55 -65 -180l-30 -59q-32 -61 -31 -69q6 -30 27 -30q23 0 68 34l184 137l92 64q159 104 234 104
q40 0 73 -32q61 -58 61 -101q0 -14 -2.5 -34t-5.5 -43l-4 -47q-3 -24 -3 -46z" />
    <glyph glyph-name="ograve" unicode="&#xf2;" horiz-adv-x="1359" 
d="M805 1042q-33 -10 -120 45t-145 99.5t-108 91.5q-113 106 -126 174q-11 50 15 97q49 88 113 88q40 0 64.5 -28t47.5 -61l47 -72q25 -38 57 -78l130 -154q65 -76 68.5 -97.5t3.5 -39.5q0 -60 -47 -65zM1067 616q0 -54 92 -54q68 0 179 66l78 44q38 21 65.5 21t43.5 -17
t16 -47t-20 -69.5t-55 -83t-82 -86t-100 -76.5q-121 -75 -224 -75q-109 0 -174 37q-20 12 -39 25q-107 -122 -310 -224q-216 -108 -377 -108q-169 0 -266 133q-80 108 -80 219q0 160 171 305q126 106 243.5 161t213.5 85q200 63 361 63q72 0 128.5 -27.5t84.5 -55.5
q63 -63 63 -161q0 -29 -6 -45t-6 -30zM249 427l-1 -3v-1q0 -43 20 -56q45 -28 96 -14.5t97 33.5q114 49 206 124q-16 32 -16 66q0 72 63 144q-80 0 -216 -75q-89 -49 -146 -98q-103 -86 -103 -120z" />
    <glyph glyph-name="oacute" unicode="&#xf3;" horiz-adv-x="1359" 
d="M746.5 1051.5q-21.5 18.5 -21.5 40t26.5 59.5t69.5 83.5t97.5 94t109.5 87.5q126 91 192 91q49 0 83 -30q65 -56 65 -120q0 -12 -5 -37q-19 -24 -77 -51l-100 -45q-81 -36 -152 -78l-108 -64q-84 -49 -121 -49t-58.5 18.5zM1067 616q0 -54 92 -54q68 0 179 66l78 44
q38 21 65.5 21t43.5 -17t16 -47t-20 -69.5t-55 -83t-82 -86t-100 -76.5q-121 -75 -224 -75q-109 0 -174 37q-20 12 -39 25q-107 -122 -310 -224q-216 -108 -377 -108q-169 0 -266 133q-80 108 -80 219q0 160 171 305q126 106 243.5 161t213.5 85q200 63 361 63
q72 0 128.5 -27.5t84.5 -55.5q63 -63 63 -161q0 -29 -6 -45t-6 -30zM249 427l-1 -3v-1q0 -43 20 -56q45 -28 96 -14.5t97 33.5q114 49 206 124q-16 32 -16 66q0 72 63 144q-80 0 -216 -75q-89 -49 -146 -98q-103 -86 -103 -120z" />
    <glyph glyph-name="ocircumflex" unicode="&#xf4;" horiz-adv-x="1359" 
d="M590 1153.5q-38 -24.5 -58.5 -42t-37 -17.5t-29.5 5.5t-24 15.5q-24 22 -24 41q0 35 20.5 56.5t56 50t79 57.5t92.5 56t99 48q107 47 164 47t97 -20.5t79 -52.5q57 -48 139 -151q15 -15 15 -36t-18.5 -43.5t-45.5 -40.5q-63 -41 -119 -41q-40 0 -147.5 77.5t-133 77.5
t-58 -12t-70.5 -31.5t-76 -44zM1067 616q0 -54 92 -54q68 0 179 66l78 44q38 21 65.5 21t43.5 -17t16 -47t-20 -69.5t-55 -83t-82 -86t-100 -76.5q-121 -75 -224 -75q-109 0 -174 37q-20 12 -39 25q-107 -122 -310 -224q-216 -108 -377 -108q-169 0 -266 133
q-80 108 -80 219q0 160 171 305q126 106 243.5 161t213.5 85q200 63 361 63q72 0 128.5 -27.5t84.5 -55.5q63 -63 63 -161q0 -29 -6 -45t-6 -30zM249 427l-1 -3v-1q0 -43 20 -56q45 -28 96 -14.5t97 33.5q114 49 206 124q-16 32 -16 66q0 72 63 144q-80 0 -216 -75
q-89 -49 -146 -98q-103 -86 -103 -120z" />
    <glyph glyph-name="otilde" unicode="&#xf5;" horiz-adv-x="1359" 
d="M458.5 1161.5q-18.5 -10.5 -35 -10.5t-30.5 5.5t-25 14.5q-24 20 -24 46t15.5 42.5t41 34.5t60 37.5t76.5 39t87 35.5q101 35 166.5 35t111.5 -26t85 -57.5t74.5 -57.5t68.5 -26q74 0 146 31q19 7 40.5 7t44.5 -18.5t23 -44t-21 -44t-66 -42.5t-105 -46
q-143 -53 -256 -53q-81 0 -196 68l-76 48q-33 21 -54 21q-66 0 -99.5 -14.5t-52 -25zM1067 616q0 -54 92 -54q68 0 179 66l78 44q38 21 65.5 21t43.5 -17t16 -47t-20 -69.5t-55 -83t-82 -86t-100 -76.5q-121 -75 -224 -75q-109 0 -174 37q-20 12 -39 25q-107 -122 -310 -224
q-216 -108 -377 -108q-169 0 -266 133q-80 108 -80 219q0 160 171 305q126 106 243.5 161t213.5 85q200 63 361 63q72 0 128.5 -27.5t84.5 -55.5q63 -63 63 -161q0 -29 -6 -45t-6 -30zM249 427l-1 -3v-1q0 -43 20 -56q45 -28 96 -14.5t97 33.5q114 49 206 124q-16 32 -16 66
q0 72 63 144q-80 0 -216 -75q-89 -49 -146 -98q-103 -86 -103 -120z" />
    <glyph glyph-name="odieresis" unicode="&#xf6;" horiz-adv-x="1359" 
d="M1126 1135q-30 -14 -66 -14t-69.5 13.5t-58.5 38.5q-55 53 -55 137q0 117 187 173q64 19 104.5 19t60.5 -10t33 -27q26 -34 26 -69t-7.5 -61t-21 -55t-33.5 -57.5t-45 -51t-55 -36.5zM504 1135q-30 -14 -66 -14t-69.5 13.5t-58.5 38.5q-55 53 -55 137q0 117 187 173
q64 19 104.5 19t60.5 -10t33 -27q26 -34 26 -69t-7.5 -61t-21 -55t-33.5 -57.5t-45 -51t-55 -36.5zM1067 616q0 -54 92 -54q68 0 179 66l78 44q38 21 65.5 21t43.5 -17t16 -47t-20 -69.5t-55 -83t-82 -86t-100 -76.5q-121 -75 -224 -75q-109 0 -174 37q-20 12 -39 25
q-107 -122 -310 -224q-216 -108 -377 -108q-169 0 -266 133q-80 108 -80 219q0 160 171 305q126 106 243.5 161t213.5 85q200 63 361 63q72 0 128.5 -27.5t84.5 -55.5q63 -63 63 -161q0 -29 -6 -45t-6 -30zM249 427l-1 -3v-1q0 -43 20 -56q45 -28 96 -14.5t97 33.5
q114 49 206 124q-16 32 -16 66q0 72 63 144q-80 0 -216 -75q-89 -49 -146 -98q-103 -86 -103 -120z" />
    <glyph glyph-name="divide" unicode="&#xf7;" horiz-adv-x="2209" 
d="M959 1065q0 53 27 81q48 47 101 47t81 -27q47 -48 47 -101q0 -54 -27 -81q-48 -48 -101 -48t-81 28q-47 47 -47 101zM542 676h1091v-153h-1091v153zM959 128q0 53 27 80q48 48 101 48t81 -28q47 -47 47 -100q0 -54 -27 -82q-48 -47 -101 -47t-81 27q-47 48 -47 102z" />
    <glyph glyph-name="oslash" unicode="&#xf8;" horiz-adv-x="1359" 
d="M-214 -126q0 73 137 200q-74 79 -96 192q-6 30 -6 73t23 96.5t61 100.5q156 196 478 314q160 59 311 77q116 131 296 247q70 45 98 45t47 -8.5t31 -22.5q25 -27 25 -56t-16.5 -56t-43.5 -60q-59 -72 -137 -140q92 -65 92 -185q0 -29 -6 -45t-6 -30q0 -54 92 -54
q68 0 178 66l80 44q37 21 64.5 21t43.5 -17t16 -47t-20 -69.5t-55 -83t-82 -86t-101 -76.5q-120 -75 -223 -75q-109 0 -174 37q-20 12 -39 25q-108 -121 -302 -220q-205 -105 -370 -111q-112 -119 -211 -166q-33 -15 -74 -15t-76 22.5t-35 62.5zM256 427l-1 -3v-1
q0 -43 19 -56q46 -28 97 -14.5t97 33.5q114 49 206 124q-16 32 -16 66q0 72 63 144q-80 0 -216 -75q-150 -83 -225 -171q-24 -30 -24 -47z" />
    <glyph glyph-name="ugrave" unicode="&#xf9;" horiz-adv-x="1701" 
d="M870 1042q-33 -10 -120 45t-145 99.5t-108 91.5q-113 106 -126 174q-11 50 15 97q49 88 113 88q40 0 64.5 -28t46.5 -61l48 -72q25 -38 57 -78l131 -154q64 -76 67.5 -97.5t3.5 -39.5q0 -60 -47 -65zM1265 503q0 -101 89 -101t308 171l88 72q87 72 166 72q29 0 38 -15.5
t9 -39t-8.5 -49t-23.5 -53.5q-33 -63 -64 -98t-72.5 -72.5t-98.5 -84t-126 -95t-139 -88.5q-158 -92 -260 -92q-122 0 -191 86q-65 80 -73 214q-180 -185 -381 -285q-123 -61 -208 -61t-149 20.5t-112 61.5q-104 87 -104 242q0 222 159 428q50 64 112 112q134 84 284 84
q66 0 94 -41q11 -16 11 -41.5t-14.5 -59t-35.5 -70t-46.5 -75.5t-46.5 -76q-50 -88 -50 -126.5t22 -56.5t54 -18q71 0 121 34.5t99 79.5l94 92l91 94q97 99 147.5 123.5t73.5 18.5t47 -21.5t47 -37.5q54 -52 60 -94q2 -27 -4.5 -80.5t-6.5 -73.5z" />
    <glyph glyph-name="uacute" unicode="&#xfa;" horiz-adv-x="1701" 
d="M811.5 1051.5q-21.5 18.5 -21.5 40t26.5 59.5t69.5 83.5t97.5 94t109.5 87.5q126 91 192 91q49 0 83 -30q65 -56 65 -120q0 -12 -5 -37q-19 -24 -77 -51l-101 -45q-80 -36 -151 -78l-109 -64q-83 -49 -120 -49t-58.5 18.5zM1265 503q0 -101 89 -101t308 171l88 72
q87 72 166 72q29 0 38 -15.5t9 -39t-8.5 -49t-23.5 -53.5q-33 -63 -64 -98t-72.5 -72.5t-98.5 -84t-126 -95t-139 -88.5q-158 -92 -260 -92q-122 0 -191 86q-65 80 -73 214q-180 -185 -381 -285q-123 -61 -208 -61t-149 20.5t-112 61.5q-104 87 -104 242q0 222 159 428
q50 64 112 112q134 84 284 84q66 0 94 -41q11 -16 11 -41.5t-14.5 -59t-35.5 -70t-46.5 -75.5t-46.5 -76q-50 -88 -50 -126.5t22 -56.5t54 -18q71 0 121 34.5t99 79.5l94 92l91 94q97 99 147.5 123.5t73.5 18.5t47 -21.5t47 -37.5q54 -52 60 -94q2 -27 -4.5 -80.5
t-6.5 -73.5z" />
    <glyph glyph-name="ucircumflex" unicode="&#xfb;" horiz-adv-x="1701" 
d="M655 1153.5q-38 -24.5 -58.5 -42t-37 -17.5t-29.5 5.5t-24 15.5q-24 22 -24 41q0 35 20.5 56.5t56 50t79 57.5t92.5 56t98 48q108 47 165 47t97 -20.5t78 -52.5q58 -48 140 -151q15 -15 15 -36t-18.5 -43.5t-46.5 -40.5q-62 -41 -118 -41q-40 0 -147.5 77.5t-133 77.5
t-58 -12t-70.5 -31.5t-76 -44zM1265 503q0 -101 89 -101t308 171l88 72q87 72 166 72q29 0 38 -15.5t9 -39t-8.5 -49t-23.5 -53.5q-33 -63 -64 -98t-72.5 -72.5t-98.5 -84t-126 -95t-139 -88.5q-158 -92 -260 -92q-122 0 -191 86q-65 80 -73 214q-180 -185 -381 -285
q-123 -61 -208 -61t-149 20.5t-112 61.5q-104 87 -104 242q0 222 159 428q50 64 112 112q134 84 284 84q66 0 94 -41q11 -16 11 -41.5t-14.5 -59t-35.5 -70t-46.5 -75.5t-46.5 -76q-50 -88 -50 -126.5t22 -56.5t54 -18q71 0 121 34.5t99 79.5l94 92l91 94q97 99 147.5 123.5
t73.5 18.5t47 -21.5t47 -37.5q54 -52 60 -94q2 -27 -4.5 -80.5t-6.5 -73.5z" />
    <glyph glyph-name="udieresis" unicode="&#xfc;" horiz-adv-x="1701" 
d="M1191 1135q-30 -14 -66 -14t-69.5 13.5t-59.5 38.5q-54 53 -54 137q0 117 188 173q63 19 103.5 19t60.5 -10t33 -27q26 -34 26 -69t-7.5 -61t-21 -55t-33.5 -57.5t-45 -51t-55 -36.5zM569 1135q-30 -14 -66 -14t-69.5 13.5t-59.5 38.5q-54 53 -54 137q0 117 188 173
q63 19 103.5 19t60.5 -10t33 -27q26 -34 26 -69t-7.5 -61t-21 -55t-33.5 -57.5t-45 -51t-55 -36.5zM1265 503q0 -101 89 -101t308 171l88 72q87 72 166 72q29 0 38 -15.5t9 -39t-8.5 -49t-23.5 -53.5q-33 -63 -64 -98t-72.5 -72.5t-98.5 -84t-126 -95t-139 -88.5
q-158 -92 -260 -92q-122 0 -191 86q-65 80 -73 214q-180 -185 -381 -285q-123 -61 -208 -61t-149 20.5t-112 61.5q-104 87 -104 242q0 222 159 428q50 64 112 112q134 84 284 84q66 0 94 -41q11 -16 11 -41.5t-14.5 -59t-35.5 -70t-46.5 -75.5t-46.5 -76q-50 -88 -50 -126.5
t22 -56.5t54 -18q71 0 121 34.5t99 79.5l94 92l91 94q97 99 147.5 123.5t73.5 18.5t47 -21.5t47 -37.5q54 -52 60 -94q2 -27 -4.5 -80.5t-6.5 -73.5z" />
    <glyph glyph-name="yacute" unicode="&#xfd;" horiz-adv-x="1530" 
d="M835.5 1051.5q-21.5 18.5 -21.5 40t26.5 59.5t69.5 83.5t97.5 94t109.5 87.5q126 91 192 91q49 0 83 -30q65 -56 65 -120q0 -12 -5 -37q-19 -24 -77 -51l-101 -45q-80 -36 -151 -78l-109 -64q-83 -49 -120 -49t-58.5 18.5zM356 425q0 -46 61 -46q124 0 422 309l97 98
q99 97 131 97t57 -11t44 -28q39 -35 39 -74.5t-8.5 -87t-26.5 -106.5q-33 -110 -119 -295l-41 -88l170 154l348 298q53 40 88 40q76 0 76 -73q0 -75 -98 -193q-30 -37 -65 -69l-236 -205l-460 -389q-61 -53 -92 -84q-37 -60 -57.5 -89.5t-40.5 -63t-39 -57.5
q-41 -52 -82 -52q-43 0 -83 35q-74 65 -74 116t28 118.5t73 154.5l212 391q-153 -138 -240 -182.5t-146.5 -59t-126 -14.5t-116.5 27.5t-83 73.5q-64 91 -64 237q0 155 78 306q75 148 198 238q130 96 267 96t137 -107q0 -67 -114 -198.5t-114 -216.5z" />
    <glyph glyph-name="thorn" unicode="&#xfe;" horiz-adv-x="1360" 
d="M165 97q0 64 57 93l638 325q105 54 105 94q0 29 -47 29t-92 -13.5t-95.5 -36.5t-106.5 -54l-280 -158l-80 -43q-39 -20 -73 -33q-71 -153 -110.5 -315.5t-57 -240.5t-37.5 -136q-43 -122 -112 -122q-94 0 -148 65.5t-54 166t13.5 198t44.5 197.5q68 221 208 377
q43 147 246 448l117 167q148 201 314 331q152 119 242 119q26 0 43 -19t17 -41q0 -50 -31.5 -103.5t-83.5 -134.5l-212 -323q-101 -154 -105.5 -172.5t-4.5 -26.5t11 -8t63 23l128 58q288 126 466 126q101 0 168 -93q64 -87 64 -208q0 -170 -139 -262q-604 -372 -840 -372
t-236 98z" />
    <glyph glyph-name="ydieresis" unicode="&#xff;" horiz-adv-x="1530" 
d="M1215 1135q-30 -14 -66 -14t-69.5 13.5t-59.5 38.5q-54 53 -54 137q0 117 188 173q63 19 103.5 19t60.5 -10t33 -27q26 -34 26 -69t-7.5 -61t-21 -55t-33.5 -57.5t-45 -51t-55 -36.5zM593 1135q-30 -14 -66 -14t-69.5 13.5t-59.5 38.5q-54 53 -54 137q0 117 188 173
q63 19 103.5 19t60.5 -10t33 -27q26 -34 26 -69t-7.5 -61t-21 -55t-33.5 -57.5t-45 -51t-55 -36.5zM356 425q0 -46 61 -46q124 0 422 309l97 98q99 97 131 97t57 -11t44 -28q39 -35 39 -74.5t-8.5 -87t-26.5 -106.5q-33 -110 -119 -295l-41 -88l170 154l348 298q53 40 88 40
q76 0 76 -73q0 -75 -98 -193q-30 -37 -65 -69l-236 -205l-460 -389q-61 -53 -92 -84q-37 -60 -57.5 -89.5t-40.5 -63t-39 -57.5q-41 -52 -82 -52q-43 0 -83 35q-74 65 -74 116t28 118.5t73 154.5l212 391q-153 -138 -240 -182.5t-146.5 -59t-126 -14.5t-116.5 27.5t-83 73.5
q-64 91 -64 237q0 155 78 306q75 148 198 238q130 96 267 96t137 -107q0 -67 -114 -198.5t-114 -216.5z" />
    <glyph glyph-name="Amacron" unicode="&#x100;" horiz-adv-x="2551" 
d="M1958 1619q-35 0 -35 41q0 39 22.5 79t42.5 56.5t44 28.5q49 27 87 27h579q16 0 30 -11.5t14 -31.5q0 -40 -26.5 -84.5t-63 -75t-74.5 -30.5zM257 -67q-52 0 -98.5 24.5t-84.5 69.5q-85 103 -85 247q0 59 46.5 118.5t152.5 107.5q238 107 695 107l837 649q42 33 50 40
q13 14 33.5 14t40 -4t35.5 -11q35 -15 35 -35q0 -14 -7 -22l-572 -628h244q16 36 53 100l92 150q54 86 106 162l101 140q155 207 224 207q7 0 54.5 -18.5t80.5 -36.5q80 -42 80 -79q0 -35 -31 -73.5t-65.5 -90.5t-74 -117.5t-79.5 -139t-72 -142.5q-73 -157 -73 -212.5
t8.5 -80.5t20.5 -37q19 -19 61 -19t85.5 15.5t85 39t81.5 51t78 51.5q88 54 130 54t56.5 -19.5t14.5 -50.5t-26 -83.5t-73 -108.5t-111 -110.5t-140 -97.5q-171 -95 -335 -95q-148 0 -261 104q-126 115 -126 297v18t1 19l-419 -53q-177 -174 -428 -298q-252 -123 -421 -123z
" />
    <glyph glyph-name="amacron" unicode="&#x101;" horiz-adv-x="1530" 
d="M610 1210q-35 0 -35 41q0 39 22.5 79t42.5 56.5t44 29.5q49 26 87 26h579q16 0 30 -11.5t14 -31.5q0 -40 -26.5 -84.5t-63 -75t-74.5 -30.5zM1737 751q32 0 32 -54q0 -93 -130 -241l-57 -58q-259 -259 -488 -345q-142 -53 -204 5q-51 49 -81 158l-24 87l-213 -131
l-123 -70q-220 -120 -330 -120q-141 0 -235 109q-90 103 -90 239q0 134 107 239q153 150 483 275q312 117 504 117q65 0 65 -64q0 -44 -17 -66t-70 -45l-126 -54q-280 -117 -410 -243q-37 -35 -37 -68t53 -33q52 0 242 112l83 49q193 116 323 116q110 0 146 -97
q9 -26 17 -52.5t16 -47.5q18 -49 32.5 -49t41.5 14.5t59.5 37t67.5 49.5l121 97q161 134 242 134z" />
    <glyph glyph-name="Abreve" unicode="&#x102;" horiz-adv-x="2551" 
d="M2041 1668q-51 62 -51 93t16.5 56.5t41.5 45.5q56 45 113 45q28 0 56 -46l25 -42q51 -87 129 -87q97 0 158 30q86 42 151 100q17 14 42 14t48 -19t23 -43.5t-22 -58t-70 -81.5t-106 -86q-131 -86 -247 -86q-170 0 -307 165zM257 -67q-52 0 -98.5 24.5t-84.5 69.5
q-85 103 -85 247q0 59 46.5 118.5t152.5 107.5q238 107 695 107l837 649q42 33 50 40q13 14 33.5 14t40 -4t35.5 -11q35 -15 35 -35q0 -14 -7 -22l-572 -628h244q16 36 53 100l92 150q54 86 106 162l101 140q155 207 224 207q7 0 54.5 -18.5t80.5 -36.5q80 -42 80 -79
q0 -35 -31 -73.5t-65.5 -90.5t-74 -117.5t-79.5 -139t-72 -142.5q-73 -157 -73 -212.5t8.5 -80.5t20.5 -37q19 -19 61 -19t85.5 15.5t85 39t81.5 51t78 51.5q88 54 130 54t56.5 -19.5t14.5 -50.5t-26 -83.5t-73 -108.5t-111 -110.5t-140 -97.5q-171 -95 -335 -95
q-148 0 -261 104q-126 115 -126 297v18t1 19l-419 -53q-177 -174 -428 -298q-252 -123 -421 -123z" />
    <glyph glyph-name="abreve" unicode="&#x103;" horiz-adv-x="1530" 
d="M930 1064q-113 0 -212 72q-79 57 -136 155q-12 21 -12 42.5t12.5 41t32.5 33.5q44 31 84 31t62 -23l48 -50q69 -72 133.5 -72t109.5 11.5t82 30.5q63 30 128 88q17 14 42 14t48 -19t23 -43.5t-22 -58t-70 -81.5t-106 -86q-131 -86 -247 -86zM1737 751q32 0 32 -54
q0 -93 -130 -241l-57 -58q-259 -259 -488 -345q-142 -53 -204 5q-51 49 -81 158l-24 87l-213 -131l-123 -70q-220 -120 -330 -120q-141 0 -235 109q-90 103 -90 239q0 134 107 239q153 150 483 275q312 117 504 117q65 0 65 -64q0 -44 -17 -66t-70 -45l-126 -54
q-280 -117 -410 -243q-37 -35 -37 -68t53 -33q52 0 242 112l83 49q193 116 323 116q110 0 146 -97q9 -26 17 -52.5t16 -47.5q18 -49 32.5 -49t41.5 14.5t59.5 37t67.5 49.5l121 97q161 134 242 134z" />
    <glyph glyph-name="Aogonek" unicode="&#x104;" horiz-adv-x="2551" 
d="M2213 -290q83 0 83 -103q0 -28 -50 -70.5t-97 -72t-108 -53.5q-140 -55 -291 -55q-158 0 -264 90q-103 87 -103 215q0 158 330 364q-133 80 -175 231q-14 53 -14 88v44q0 9 1 19l-419 -53q-177 -174 -428 -298q-252 -123 -427 -123q-98 0 -177 94q-85 103 -85 247
q0 59 46.5 118.5t152.5 107.5q238 107 695 107l837 649q42 33 50 40q13 14 33.5 14t40 -4t35.5 -11q35 -15 35 -35q0 -14 -7 -22l-572 -628h244q16 36 53 100l92 150q54 86 106 162l101 140q155 207 224 207q7 0 54.5 -18.5t80.5 -36.5q80 -42 80 -79q0 -35 -31 -73.5
t-65.5 -90.5t-74 -117.5t-79.5 -139t-72 -142.5q-73 -157 -73 -212.5t8.5 -80.5t20.5 -37q19 -19 61 -19t85.5 15.5t85 39t81.5 51t78 51.5q88 54 130 54t56.5 -19.5t14.5 -49t-23 -78.5t-64 -101t-98.5 -103.5t-125.5 -94.5q-150 -95 -305 -114q-169 -137 -169 -213
q0 -77 55 -87q14 -2 53 -2t82.5 6t78.5 13l64 13q31 6 69 6z" />
    <glyph glyph-name="aogonek" unicode="&#x105;" horiz-adv-x="1530" 
d="M1219 -290q83 0 83 -103q0 -28 -50 -70.5t-97 -72t-108 -53.5q-140 -55 -291 -55q-158 0 -264 90q-103 87 -103 215q0 103 155 237q130 111 310 206q-26 44 -42 98l-27 101l-213 -131l-123 -70q-220 -120 -330 -120q-141 0 -235 109q-90 103 -90 239q0 134 107 239
q153 150 483 275q312 117 504 117q65 0 65 -64q0 -44 -17 -66t-70 -45l-126 -54q-280 -117 -410 -243q-37 -35 -37 -68t53 -33q52 0 242 112l83 49q193 116 323 116q110 0 146 -97q9 -26 17 -52.5t16 -47.5q18 -49 32.5 -49t41.5 14.5t59.5 37t67.5 49.5l121 97
q161 134 242 134q32 0 32 -54q0 -93 -130 -241l-45 -45q-186 -189 -376 -301q-58 -33 -114 -54q-182 -117 -257 -219q-30 -41 -30 -73.5t8 -50t20 -27.5q18 -14 68.5 -14t94 6t78.5 13l64 13q31 6 69 6z" />
    <glyph glyph-name="Cacute" unicode="&#x106;" horiz-adv-x="1639" 
d="M1294.5 1459.5q-21.5 18.5 -21.5 40t26.5 59.5t69.5 83.5t97.5 94t109.5 87.5q126 91 192 91q49 0 83 -30q65 -56 65 -120q0 -12 -5 -37q-19 -24 -77 -51l-100 -45q-81 -36 -152 -78l-108 -64q-84 -49 -121 -49t-58.5 18.5zM538 470q0 -167 333 -167q225 0 565 170
l102 54q232 118 262 51q8 -18 8 -41.5t-19.5 -48t-52.5 -54t-77 -62t-93 -64.5l-98 -61q-50 -30 -108 -59l-146 -72q-343 -160 -647 -160q-266 0 -409 105q-128 93 -128 240q0 203 183 409q158 177 433 336q240 139 512 228q257 85 417 85q34 0 57 -22q42 -39 42 -77
q0 -148 -123 -239q-105 -77 -245 -77t-210 28q-261 -101 -424 -271q-68 -71 -101 -133t-33 -98z" />
    <glyph glyph-name="cacute" unicode="&#x107;" 
d="M695.5 1051.5q-21.5 18.5 -21.5 40t26.5 59.5t69.5 83.5t97.5 94t109.5 87.5q126 91 192 91q49 0 83 -30q65 -56 65 -120q0 -12 -5 -37q-19 -24 -77 -51l-101 -45q-80 -36 -151 -78l-109 -64q-83 -49 -120 -49t-58.5 18.5zM1423 645q0 -47 -123 -182q-126 -137 -247 -223
q-234 -174 -519 -238q-108 -25 -204.5 -25t-160 16.5t-114 44t-87.5 63.5t-62 76q-49 78 -49 144t14.5 116t40.5 95q91 164 366 290q217 101 414 131q85 13 121 13t60.5 -7.5t42.5 -20.5q40 -29 40 -79t-26 -94.5t-66 -74.5q-78 -58 -174 -58q-131 0 -216 34
q-59 -21 -100 -77q-34 -46 -34 -82.5t16.5 -71t46.5 -61.5q66 -58 159 -58q216 0 503 229l91 71q144 110 205.5 110t61.5 -81z" />
    <glyph glyph-name="Ccircumflex" unicode="&#x108;" horiz-adv-x="1639" 
d="M1365 1562.5q-38 -24.5 -58.5 -42t-37 -17.5t-29.5 5.5t-24 15.5q-24 22 -24 41q0 35 20.5 56.5t56 50t79 57.5t92.5 56t98 49q108 46 165 46t97 -20.5t78 -52.5q58 -48 140 -151q15 -15 15 -36t-18.5 -43.5t-46.5 -40.5q-62 -41 -118 -41q-40 0 -147.5 77.5t-133 77.5
t-58 -12t-70.5 -31.5t-76 -44zM538 470q0 -167 333 -167q225 0 565 170l102 54q232 118 262 51q8 -18 8 -41.5t-19.5 -48t-52.5 -54t-77 -62t-93 -64.5l-98 -61q-50 -30 -108 -59l-146 -72q-343 -160 -647 -160q-266 0 -409 105q-128 93 -128 240q0 203 183 409
q158 177 433 336q240 139 512 228q257 85 417 85q34 0 57 -22q42 -39 42 -77q0 -148 -123 -239q-105 -77 -245 -77t-210 28q-261 -101 -424 -271q-68 -71 -101 -133t-33 -98z" />
    <glyph glyph-name="ccircumflex" unicode="&#x109;" 
d="M539 1153.5q-38 -24.5 -58.5 -42t-37 -17.5t-29.5 5.5t-24 15.5q-24 22 -24 41q0 35 20.5 56.5t56 50t79 57.5t92.5 56t98 48q108 47 165 47t97 -20.5t78 -52.5q58 -48 140 -151q15 -15 15 -36t-18.5 -43.5t-46.5 -40.5q-62 -41 -118 -41q-40 0 -147.5 77.5t-133 77.5
t-58 -12t-70.5 -31.5t-76 -44zM1423 645q0 -47 -123 -182q-126 -137 -247 -223q-234 -174 -519 -238q-108 -25 -204.5 -25t-160 16.5t-114 44t-87.5 63.5t-62 76q-49 78 -49 144t14.5 116t40.5 95q91 164 366 290q217 101 414 131q85 13 121 13t60.5 -7.5t42.5 -20.5
q40 -29 40 -79t-26 -94.5t-66 -74.5q-78 -58 -174 -58q-131 0 -216 34q-59 -21 -100 -77q-34 -46 -34 -82.5t16.5 -71t46.5 -61.5q66 -58 159 -58q216 0 503 229l91 71q144 110 205.5 110t61.5 -81z" />
    <glyph glyph-name="Cdotaccent" unicode="&#x10a;" horiz-adv-x="1639" 
d="M1532 1526.5q-34 -15.5 -76 -15.5t-81 14t-68 39q-63 54 -63 138q0 129 216 192q73 22 120 22t70.5 -10.5t38.5 -27.5q30 -34 30 -69.5t-8.5 -64.5t-24.5 -60t-39 -62t-52 -55.5t-63 -40zM538 470q0 -167 333 -167q225 0 565 170l102 54q232 118 262 51q8 -18 8 -41.5
t-19.5 -48t-52.5 -54t-77 -62t-93 -64.5l-98 -61q-50 -30 -108 -59l-146 -72q-343 -160 -647 -160q-266 0 -409 105q-128 93 -128 240q0 203 183 409q158 177 433 336q240 139 512 228q257 85 417 85q34 0 57 -22q42 -39 42 -77q0 -148 -123 -239q-105 -77 -245 -77t-210 28
q-261 -101 -424 -271q-68 -71 -101 -133t-33 -98z" />
    <glyph glyph-name="cdotaccent" unicode="&#x10b;" 
d="M865 1116.5q-34 -15.5 -76 -15.5t-81 14t-68 39q-63 54 -63 138q0 129 216 192q73 22 120 22t70.5 -10.5t38.5 -27.5q30 -34 30 -69.5t-8.5 -64.5t-24.5 -60t-39 -62t-52 -55.5t-63 -40zM1423 645q0 -47 -123 -182q-126 -137 -247 -223q-234 -174 -519 -238
q-108 -25 -204.5 -25t-160 16.5t-114 44t-87.5 63.5t-62 76q-49 78 -49 144t14.5 116t40.5 95q91 164 366 290q217 101 414 131q85 13 121 13t60.5 -7.5t42.5 -20.5q40 -29 40 -79t-26 -94.5t-66 -74.5q-78 -58 -174 -58q-131 0 -216 34q-59 -21 -100 -77q-34 -46 -34 -82.5
t16.5 -71t46.5 -61.5q66 -58 159 -58q216 0 503 229l91 71q144 110 205.5 110t61.5 -81z" />
    <glyph glyph-name="Ccaron" unicode="&#x10c;" horiz-adv-x="1639" 
d="M1356.5 1485.5q-46.5 -12.5 -78 -12.5t-70 20.5t-80.5 52.5q-89 68 -155 151q-15 15 -15 36t18.5 43.5t45.5 40.5q63 41 119 41q37 0 135 -80l49 -39q56 -42 76 -42t56.5 13t79.5 34q100 47 154 95q14 11 30 11t29.5 -6t24.5 -16q24 -20 24 -40q0 -35 -20.5 -56.5
t-56 -50t-79 -57.5t-92.5 -56t-98.5 -48.5t-96 -34zM538 470q0 -167 333 -167q225 0 565 170l102 54q232 118 262 51q8 -18 8 -41.5t-19.5 -48t-52.5 -54t-77 -62t-93 -64.5l-98 -61q-50 -30 -108 -59l-146 -72q-343 -160 -647 -160q-266 0 -409 105q-128 93 -128 240
q0 203 183 409q158 177 433 336q240 139 512 228q257 85 417 85q34 0 57 -22q42 -39 42 -77q0 -148 -123 -239q-105 -77 -245 -77t-210 28q-261 -101 -424 -271q-68 -71 -101 -133t-33 -98z" />
    <glyph glyph-name="ccaron" unicode="&#x10d;" 
d="M667.5 1076.5q-46.5 -12.5 -86 -12.5t-79.5 20.5t-78 52.5q-58 48 -140 151q-15 15 -15 36t18.5 43.5t46.5 40.5q62 41 102.5 41t72.5 -24t64.5 -52.5t63 -52.5t47 -24t39 5.5t51 15t61 22t63.5 27.5q70 34 94 54.5t40 20.5t29.5 -6t24.5 -15q24 -21 24 -41
q0 -35 -20.5 -56.5t-56 -50t-79 -57.5t-92.5 -56t-98.5 -48.5t-96 -34zM1423 645q0 -47 -123 -182q-126 -137 -247 -223q-234 -174 -519 -238q-108 -25 -204.5 -25t-160 16.5t-114 44t-87.5 63.5t-62 76q-49 78 -49 144t14.5 116t40.5 95q91 164 366 290q217 101 414 131
q85 13 121 13t60.5 -7.5t42.5 -20.5q40 -29 40 -79t-26 -94.5t-66 -74.5q-78 -58 -174 -58q-131 0 -216 34q-59 -21 -100 -77q-34 -46 -34 -82.5t16.5 -71t46.5 -61.5q66 -58 159 -58q216 0 503 229l91 71q144 110 205.5 110t61.5 -81z" />
    <glyph glyph-name="Dcaron" unicode="&#x10e;" horiz-adv-x="2214" 
d="M1198 1733q0 21 18.5 43.5t45.5 40.5q63 41 119 41q37 0 135 -80l49 -39q56 -42 76 -42t56.5 13t79.5 34q100 47 154 95q14 11 30 11t29.5 -6t24.5 -16q24 -20 24 -40q0 -35 -20.5 -56.5t-56 -50t-79 -57.5t-92.5 -56t-99 -48q-107 -47 -180 -47q-48 0 -144 73
q-81 62 -125.5 114t-44.5 73zM268 201q0 39 25 86.5t61 108.5l176 285l197 305q-232 -61 -385 -151q-53 -31 -88 -64q-66 -51 -107 -51q-75 0 -75 67q0 30 11.5 54t30 57t43 72.5t54.5 82t64 81.5q76 89 131 115t119.5 45.5t151.5 35.5q201 37 436 37q509 0 800 -147
q242 -123 242 -342q0 -47 -13.5 -113t-63 -166t-134.5 -193t-206.5 -174.5t-283.5 -142.5q-346 -131 -818 -131q-184 0 -285 82q-83 66 -83 161zM780 476.5q-13 -36.5 -13 -57.5t12.5 -42.5t37.5 -38.5q57 -37 169 -37t229.5 18t215.5 48t175 68.5t132 78.5q110 83 123 153
q3 16 3 34q0 205 -438 291q-168 34 -363 38q-192 -347 -231 -432t-52 -121.5z" />
    <glyph glyph-name="dcaron" unicode="&#x10f;" horiz-adv-x="1532" 
d="M1644 1108q-10 5 -16 12l-16 20q-10 12 -10 28t20 27l44 23q97 55 141 108q-78 10 -109 61q-42 67 0 145q42 81 134 116q46 18 86 18t71.5 -5.5t58.5 -20.5q60 -34 62 -100t-18.5 -120.5t-55 -100.5t-78.5 -84t-89 -66q-155 -96 -225 -61zM1707 739q45 0 45 -46
q0 -73 -96 -206q-67 -93 -276 -258q-249 -195 -400 -195q-114 0 -172 96q-35 58 -57 170l-89 -64q-367 -254 -548 -254q-151 0 -242 110q-80 99 -80 237q0 152 104 240q212 178 527 293q128 47 162 47t62.5 -11.5t56.5 -29.5q66 -45 66 -87q0 -34 -42 -55q-13 -7 -44 -19
t-76 -33q-121 -57 -236 -138q-82 -70 -82 -111.5t58 -41.5q48 0 192 85l85 52q91 57 146 104l46 150q85 268 189 443q184 353 370 353q68 0 108 -25q72 -45 72 -99.5t-20 -115.5t-52.5 -121t-74.5 -119l-171 -226q-43 -55 -76 -107q-58 -125 -58 -214q0 -128 93 -128
q53 0 191 111l118 100q83 74 164 104q23 9 37 9z" />
    <glyph glyph-name="Dcroat" unicode="&#x110;" horiz-adv-x="2214" 
d="M430 535q-95 0 -95 61q0 41 31 72q53 53 102 55l91 4l168 259q-232 -61 -385 -151q-53 -31 -88 -64q-66 -51 -107 -51q-75 0 -75 67q0 30 11.5 54t30 57t43 72.5t54.5 82t64 81.5q76 89 131 115t119.5 45.5t151.5 35.5q201 37 436 37q509 0 800 -147q242 -123 242 -342
q0 -47 -13.5 -113t-63 -166t-134.5 -193t-206.5 -174.5t-283.5 -142.5q-346 -131 -818 -131q-184 0 -285 82q-83 66 -83 163q0 34 16 66.5t38 72.5l116 193h-8zM803 535q-36 -83 -36 -110t12.5 -48.5t37.5 -38.5q57 -37 169 -37t229.5 18t215.5 48t175 68.5t132 78.5
q110 83 123 153q3 16 3 34q0 205 -438 291q-168 34 -363 38l-157 -287l316 15q37 2 58 -31q32 -49 -20 -127q-43 -65 -112 -65h-345z" />
    <glyph glyph-name="dcroat" unicode="&#x111;" horiz-adv-x="1529" 
d="M1707 739q45 0 45 -46q0 -73 -96 -206q-67 -93 -276 -258q-249 -195 -400 -195q-114 0 -172 96q-35 58 -57 170l-89 -64q-367 -254 -548 -254q-151 0 -242 110q-80 99 -80 237q0 152 104 240q212 178 527 293q128 47 162 47t62.5 -11.5t56.5 -29.5q66 -45 66 -87
q0 -34 -42 -55q-13 -7 -44 -19t-76 -33q-121 -57 -236 -138q-82 -70 -82 -111.5t58 -41.5q48 0 192 85l85 52q91 57 146 104q78 267 153 435h-213q-74 0 -115 43q-18 19 -18 48.5t17 47.5t43 28q44 18 111 21l278 10q174 313 349 313q68 0 108 -25q72 -45 72 -92
q0 -84 -40 -177l138 5q37 2 58 -31q32 -49 -20 -127q-43 -65 -112 -65h-194q-57 -79 -117.5 -154t-106.5 -147q-58 -125 -58 -214q0 -128 93 -128q53 0 191 111l118 100q83 74 164 104q23 9 37 9z" />
    <glyph glyph-name="Emacron" unicode="&#x112;" horiz-adv-x="1867" 
d="M1091 1619q-35 0 -35 41q0 39 22.5 79t42.5 56.5t43 28.5q50 27 88 27h579q16 0 30 -11.5t14 -31.5q0 -40 -26.5 -84.5t-63 -75t-74.5 -30.5zM101.5 112q-43.5 51 -57.5 96q-22 67 -22 115t31.5 110t104.5 123q160 133 491 228q-106 45 -121 143q-15 112 96 199
q205 161 788 218q180 17 261.5 17t116 -26t41 -77.5t-19.5 -86.5t-74 -56q-89 -39 -243 -39q-113 0 -206 34q-25 10 -39 21q-200 -62 -227 -139q-8 -20 -6 -37q9 -61 80 -90t216 -37q48 -4 71.5 -26t27 -46t-3.5 -37.5t-21 -22.5q-24 -16 -95 -27t-165 -30.5t-179 -41.5
t-157.5 -45t-125.5 -44q-112 -47 -108 -75.5t23 -49.5t51 -37q60 -28 146.5 -35.5t168 -7.5t175 13.5t175 34.5t150 44.5t119.5 44.5l82 34q32 14 58 14q69 0 78 -73q12 -99 -222 -223q-313 -167 -692 -218q-88 -12 -211.5 -12t-240.5 16t-194 49.5t-120.5 84.5z" />
    <glyph glyph-name="emacron" unicode="&#x113;" 
d="M355 1210q-35 0 -35 41q0 39 22.5 79t42.5 56.5t43 29.5q50 26 88 26h579q16 0 30 -11.5t14 -31.5q0 -40 -26.5 -84.5t-63 -75t-74.5 -30.5zM1383 735q48 0 48 -54q0 -36 -24.5 -90.5t-70.5 -102t-105.5 -98.5t-139 -107t-175.5 -111t-204 -99q-239 -98 -463 -98
q-171 0 -299 89q-134 93 -134 226q0 209 225 397q194 162 457 251q160 54 271 54q90 0 152 -44q66 -48 66 -129q0 -127 -201 -281q-32 -25 -58 -42l-36 -24q-100 -70 -304 -157q63 -33 117.5 -33t98 13t98.5 37t117.5 57.5t126.5 73.5q143 89 248 182q55 51 140 81
q28 9 49 9zM280 454l55 28q27 14 48 26q202 116 230 143t28 37.5t-6 24.5t-16 25q-24 28 -51 28t-59.5 -10t-65.5 -27.5t-63.5 -42t-53.5 -52.5q-53 -63 -53 -109t7 -71z" />
    <glyph glyph-name="Ebreve" unicode="&#x114;" horiz-adv-x="1867" 
d="M1174 1668q-51 62 -51 93t16.5 56.5t41.5 45.5q56 45 113 45q28 0 56 -46l25 -42q51 -87 129 -87q97 0 158 30q86 42 151 100q17 14 42 14t48 -19t23 -43.5t-22 -58t-70 -81.5t-106 -86q-131 -86 -247 -86q-170 0 -307 165zM101.5 112q-43.5 51 -57.5 96q-22 67 -22 115
t31.5 110t104.5 123q160 133 491 228q-106 45 -121 143q-15 112 96 199q205 161 788 218q180 17 261.5 17t116 -26t41 -77.5t-19.5 -86.5t-74 -56q-89 -39 -243 -39q-113 0 -206 34q-25 10 -39 21q-200 -62 -227 -139q-8 -20 -6 -37q9 -61 80 -90t216 -37q48 -4 71.5 -26
t27 -46t-3.5 -37.5t-21 -22.5q-24 -16 -95 -27t-165 -30.5t-179 -41.5t-157.5 -45t-125.5 -44q-112 -47 -108 -75.5t23 -49.5t51 -37q60 -28 146.5 -35.5t168 -7.5t175 13.5t175 34.5t150 44.5t119.5 44.5l82 34q32 14 58 14q69 0 78 -73q12 -99 -222 -223
q-313 -167 -692 -218q-88 -12 -211.5 -12t-240.5 16t-194 49.5t-120.5 84.5z" />
    <glyph glyph-name="ebreve" unicode="&#x115;" 
d="M675 1064q-113 0 -212 72q-79 57 -136 155q-12 21 -12 42.5t12.5 41t32.5 33.5q44 31 84 31t62 -23l48 -50q69 -72 133.5 -72t109.5 11.5t83 30.5q62 30 127 88q17 14 42 14t48 -19t23 -43.5t-22 -58t-70 -81.5t-106 -86q-131 -86 -247 -86zM1383 735q48 0 48 -54
q0 -36 -24.5 -90.5t-70.5 -102t-105.5 -98.5t-139 -107t-175.5 -111t-204 -99q-239 -98 -463 -98q-171 0 -299 89q-134 93 -134 226q0 209 225 397q194 162 457 251q160 54 271 54q90 0 152 -44q66 -48 66 -129q0 -127 -201 -281q-32 -25 -58 -42l-36 -24
q-100 -70 -304 -157q63 -33 117.5 -33t98 13t98.5 37t117.5 57.5t126.5 73.5q143 89 248 182q55 51 140 81q28 9 49 9zM280 454l55 28q27 14 48 26q202 116 230 143t28 37.5t-6 24.5t-16 25q-24 28 -51 28t-59.5 -10t-65.5 -27.5t-63.5 -42t-53.5 -52.5q-53 -63 -53 -109
t7 -71z" />
    <glyph glyph-name="Edotaccent" unicode="&#x116;" horiz-adv-x="1867" 
d="M1531 1526.5q-34 -15.5 -76 -15.5t-81 14t-68 39q-63 54 -63 138q0 129 216 192q73 22 120 22t70.5 -10.5t38.5 -27.5q30 -34 30 -69.5t-8.5 -64.5t-24.5 -60t-39 -62t-52 -55.5t-63 -40zM101.5 112q-43.5 51 -57.5 96q-22 67 -22 115t31.5 110t104.5 123
q160 133 491 228q-106 45 -121 143q-15 112 96 199q205 161 788 218q180 17 261.5 17t116 -26t41 -77.5t-19.5 -86.5t-74 -56q-89 -39 -243 -39q-113 0 -206 34q-25 10 -39 21q-200 -62 -227 -139q-8 -20 -6 -37q9 -61 80 -90t216 -37q48 -4 71.5 -26t27 -46t-3.5 -37.5
t-21 -22.5q-24 -16 -95 -27t-165 -30.5t-179 -41.5t-157.5 -45t-125.5 -44q-112 -47 -108 -75.5t23 -49.5t51 -37q60 -28 146.5 -35.5t168 -7.5t175 13.5t175 34.5t150 44.5t119.5 44.5l82 34q32 14 58 14q69 0 78 -73q12 -99 -222 -223q-313 -167 -692 -218
q-88 -12 -211.5 -12t-240.5 16t-194 49.5t-120.5 84.5z" />
    <glyph glyph-name="edotaccent" unicode="&#x117;" 
d="M838 1116.5q-34 -15.5 -76 -15.5t-81 14t-68 39q-63 54 -63 138q0 129 216 192q73 22 120 22t70.5 -10.5t38.5 -27.5q30 -34 30 -69.5t-8.5 -64.5t-24.5 -60t-39 -62t-52 -55.5t-63 -40zM1383 735q48 0 48 -54q0 -36 -24.5 -90.5t-70.5 -102t-105.5 -98.5t-139 -107
t-175.5 -111t-204 -99q-239 -98 -463 -98q-171 0 -299 89q-134 93 -134 226q0 209 225 397q194 162 457 251q160 54 271 54q90 0 152 -44q66 -48 66 -129q0 -127 -201 -281q-32 -25 -58 -42l-36 -24q-100 -70 -304 -157q63 -33 117.5 -33t98 13t98.5 37t117.5 57.5
t126.5 73.5q143 89 248 182q55 51 140 81q28 9 49 9zM280 454l55 28q27 14 48 26q202 116 230 143t28 37.5t-6 24.5t-16 25q-24 28 -51 28t-59.5 -10t-65.5 -27.5t-63.5 -42t-53.5 -52.5q-53 -63 -53 -109t7 -71z" />
    <glyph glyph-name="Eogonek" unicode="&#x118;" horiz-adv-x="1867" 
d="M859 -27q-92 -11 -209 -11t-234 16t-194 50q-140 60 -187 206q-13 41 -13 89t31.5 110t104.5 123q160 133 491 228q-106 45 -121 143q-15 112 96 199q205 161 788 218q180 17 261.5 17t116 -26t41 -77.5t-19.5 -86.5t-74 -56q-89 -39 -243 -39q-113 0 -206 34
q-25 10 -39 21q-200 -62 -227 -139q-8 -20 -6 -37q9 -61 80 -90t216 -37q48 -4 71.5 -26t27 -46t-3.5 -37.5t-21 -22.5q-24 -16 -95 -27t-165 -30.5t-179 -41.5t-157.5 -45t-125.5 -44q-112 -47 -108 -75.5t23 -49.5t51 -37q60 -28 146.5 -35.5t168 -7.5t175 13.5t175 34.5
t150 44.5t119.5 44.5l82 34q32 14 58 14q69 0 78 -73q11 -100 -227 -226q-72 -38 -156 -72q-10 -19 -28 -31l-51 -32q-196 -123 -264 -234q-20 -31 -20 -60t8 -46.5t20 -27.5q18 -14 68.5 -14t94 6t77.5 13l66 13q30 6 68 6q83 0 83 -103q0 -28 -50 -70.5t-97 -72
t-108 -53.5q-140 -55 -291 -55q-158 0 -264 90q-103 87 -103 215q0 135 251 312z" />
    <glyph glyph-name="eogonek" unicode="&#x119;" 
d="M205 -23q-159 12 -271 99q-118 90 -118 214q0 209 225 397q194 162 457 251q160 54 271 54q90 0 152 -44q66 -48 66 -129q0 -127 -201 -281q-32 -25 -58 -42l-36 -24q-100 -70 -304 -157q63 -33 117.5 -33t98 13t98.5 37t117.5 57.5t126.5 73.5q143 89 248 182
q55 51 140 81q28 9 49 9q48 0 48 -54q0 -36 -24.5 -90.5t-72 -103t-112.5 -104t-152 -115.5q-203 -139 -414 -217q-180 -117 -250 -216q-29 -40 -29 -72t8 -49.5t20 -27.5q18 -14 68.5 -14t94 6t78.5 13l64 13q31 6 69 6q83 0 83 -103q0 -28 -50 -70.5t-97 -72t-108 -53.5
q-140 -55 -291 -55q-158 0 -264 90q-103 87 -103 218t256 313zM280 454l55 28q27 14 48 26q202 116 230 143t28 37.5t-6 24.5t-16 25q-24 28 -51 28t-59.5 -10t-65.5 -27.5t-63.5 -42t-53.5 -52.5q-53 -63 -53 -109t7 -71z" />
    <glyph glyph-name="Ecaron" unicode="&#x11a;" horiz-adv-x="1867" 
d="M1355.5 1485.5q-46.5 -12.5 -78 -12.5t-70 20.5t-80.5 52.5q-89 68 -155 151q-15 15 -15 36t18.5 43.5t46.5 40.5q62 41 118 41q37 0 135 -80l49 -39q56 -42 76 -42t56.5 13t79.5 34q100 47 154 95q14 11 30 11t29.5 -6t24.5 -16q24 -20 24 -40q0 -35 -20.5 -56.5
t-56 -50t-79 -57.5t-92.5 -56t-98.5 -48.5t-96 -34zM101.5 112q-43.5 51 -57.5 96q-22 67 -22 115t31.5 110t104.5 123q160 133 491 228q-106 45 -121 143q-15 112 96 199q205 161 788 218q180 17 261.5 17t116 -26t41 -77.5t-19.5 -86.5t-74 -56q-89 -39 -243 -39
q-113 0 -206 34q-25 10 -39 21q-200 -62 -227 -139q-8 -20 -6 -37q9 -61 80 -90t216 -37q48 -4 71.5 -26t27 -46t-3.5 -37.5t-21 -22.5q-24 -16 -95 -27t-165 -30.5t-179 -41.5t-157.5 -45t-125.5 -44q-112 -47 -108 -75.5t23 -49.5t51 -37q60 -28 146.5 -35.5t168 -7.5
t175 13.5t175 34.5t150 44.5t119.5 44.5l82 34q32 14 58 14q69 0 78 -73q12 -99 -222 -223q-313 -167 -692 -218q-88 -12 -211.5 -12t-240.5 16t-194 49.5t-120.5 84.5z" />
    <glyph glyph-name="ecaron" unicode="&#x11b;" 
d="M640.5 1076.5q-46.5 -12.5 -86 -12.5t-79.5 20.5t-79 52.5q-57 48 -139 151q-15 15 -15 36t18.5 43.5t45.5 40.5q63 41 103.5 41t72.5 -24t64.5 -52.5t63 -52.5t47 -24t39 5.5t51 15t61 22t63.5 27.5q70 34 94 54.5t40 20.5t29.5 -6t24.5 -15q24 -21 24 -41
q0 -35 -20.5 -56.5t-56 -50t-79 -57.5t-92.5 -56t-98.5 -48.5t-96 -34zM1383 735q48 0 48 -54q0 -36 -24.5 -90.5t-70.5 -102t-105.5 -98.5t-139 -107t-175.5 -111t-204 -99q-239 -98 -463 -98q-171 0 -299 89q-134 93 -134 226q0 209 225 397q194 162 457 251
q160 54 271 54q90 0 152 -44q66 -48 66 -129q0 -127 -201 -281q-32 -25 -58 -42l-36 -24q-100 -70 -304 -157q63 -33 117.5 -33t98 13t98.5 37t117.5 57.5t126.5 73.5q143 89 248 182q55 51 140 81q28 9 49 9zM280 454l55 28q27 14 48 26q202 116 230 143t28 37.5t-6 24.5
t-16 25q-24 28 -51 28t-59.5 -10t-65.5 -27.5t-63.5 -42t-53.5 -52.5q-53 -63 -53 -109t7 -71z" />
    <glyph glyph-name="Gcircumflex" unicode="&#x11c;" horiz-adv-x="2371" 
d="M1435 1562.5q-38 -24.5 -58.5 -42t-37 -17.5t-29.5 5.5t-24 15.5q-24 22 -24 41q0 35 20.5 56.5t56 50t79 57.5t92.5 56t98 49q108 46 165 46t97 -20.5t78 -52.5q58 -48 140 -151q15 -15 15 -36t-18.5 -43.5t-46.5 -40.5q-62 -41 -118 -41q-40 0 -147.5 77.5t-133 77.5
t-58 -12t-70.5 -31.5t-76 -44zM700 457q0 -92 207 -92q280 0 537 99q81 31 165 68l113 66q183 104 260 104q33 0 52 -10q50 -16 80 -51q55 -64 55 -97.5t-17 -86t-46 -114t-67 -127.5t-81 -126q-96 -137 -171 -198q-28 -35 -69 -78t-112.5 -91.5t-149 -86t-158 -65
t-154.5 -45.5q-142 -35 -218.5 -35t-111 30.5t-34.5 77t32.5 92.5t88 89t129 82.5t154.5 74.5q147 64 327 115q102 140 182 286l-49 -28q-25 -13 -49 -24q-181 -109 -457 -194q-328 -101 -625 -101q-167 0 -265 111q-89 101 -89 256q0 164 221 353q194 166 525 323
q300 144 621 236q317 92 512 92q115 0 156 -78q16 -29 16 -82.5t-40 -95.5t-104 -66q-115 -44 -282 -44t-302 20q-190 -62 -387 -182q-165 -100 -285 -216q-110 -106 -110 -161z" />
    <glyph glyph-name="gcircumflex" unicode="&#x11d;" horiz-adv-x="1530" 
d="M514 1153.5q-38 -24.5 -58.5 -42t-37 -17.5t-29.5 5.5t-24 15.5q-24 22 -24 41q0 35 20.5 56.5t56 50t79 57.5t92.5 56t99 48q107 47 164 47t97 -20.5t79 -52.5q57 -48 139 -151q15 -15 15 -36t-18.5 -43.5t-45.5 -40.5q-63 -41 -119 -41q-40 0 -147.5 77.5t-133 77.5
t-58 -12t-70.5 -31.5t-76 -44zM445 587q-61 -43 -108 -88t-47 -78t53 -33q37 0 108 36l217 115q60 31 107 73l71 62q76 69 159 69q43 0 86 -48t43 -98q0 -115 -94 -340l160 131l330 257q53 40 88 40q76 0 76 -73q0 -75 -98 -193q-46 -56 -128 -121l-554 -420
q-55 -44 -87 -73q-132 -213 -254 -309q-177 -140 -328 -140q-68 0 -111 38q-39 33 -39 77q0 41 22 88.5t59 95.5t84 95t100 91q140 111 199 153l98 71q58 123 100 266q-193 -170 -411 -267q-109 -49 -181 -49t-132 30t-103 79q-89 103 -89 239q0 142 107 239
q161 146 456 254q284 105 481 105q65 0 65 -64q0 -44 -16.5 -67.5t-79 -45.5t-138 -52t-143 -66t-128.5 -79z" />
    <glyph glyph-name="Gbreve" unicode="&#x11e;" horiz-adv-x="2371" 
d="M1245 1668q-51 62 -51 93t16.5 56.5t41.5 45.5q56 45 113 45q28 0 56 -46l25 -42q53 -87 129 -87q97 0 158 30q86 42 151 100q17 14 42 14t48 -19t23 -43.5t-22 -58t-70 -81.5t-106 -86q-131 -86 -247 -86q-170 0 -307 165zM700 457q0 -92 207 -92q280 0 537 99
q81 31 165 68l113 66q183 104 260 104q33 0 52 -10q50 -16 80 -51q55 -64 55 -97.5t-17 -86t-46 -114t-67 -127.5t-81 -126q-96 -137 -171 -198q-28 -35 -69 -78t-112.5 -91.5t-149 -86t-158 -65t-154.5 -45.5q-142 -35 -218.5 -35t-111 30.5t-34.5 77t32.5 92.5t88 89
t129 82.5t154.5 74.5q147 64 327 115q102 140 182 286l-49 -28q-25 -13 -49 -24q-181 -109 -457 -194q-328 -101 -625 -101q-167 0 -265 111q-89 101 -89 256q0 164 221 353q194 166 525 323q300 144 621 236q317 92 512 92q115 0 156 -78q16 -29 16 -82.5t-40 -95.5
t-104 -66q-115 -44 -282 -44t-302 20q-190 -62 -387 -182q-165 -100 -285 -216q-110 -106 -110 -161z" />
    <glyph glyph-name="gbreve" unicode="&#x11f;" horiz-adv-x="1530" 
d="M677 1064q-113 0 -212 72q-79 57 -136 155q-12 21 -12 42.5t12.5 41t32.5 33.5q44 31 84 31t62 -23l48 -50q69 -72 133.5 -72t109.5 11.5t83 30.5q62 30 127 88q17 14 42 14t48 -19t23 -43.5t-22 -58t-70 -81.5t-106 -86q-131 -86 -247 -86zM445 587q-61 -43 -108 -88
t-47 -78t53 -33q37 0 108 36l217 115q60 31 107 73l71 62q76 69 159 69q43 0 86 -48t43 -98q0 -115 -94 -340l160 131l330 257q53 40 88 40q76 0 76 -73q0 -75 -98 -193q-46 -56 -128 -121l-554 -420q-55 -44 -87 -73q-132 -213 -254 -309q-177 -140 -328 -140
q-68 0 -111 38q-39 33 -39 77q0 41 22 88.5t59 95.5t84 95t100 91q140 111 199 153l98 71q58 123 100 266q-193 -170 -411 -267q-109 -49 -181 -49t-132 30t-103 79q-89 103 -89 239q0 142 107 239q161 146 456 254q284 105 481 105q65 0 65 -64q0 -44 -16.5 -67.5
t-79 -45.5t-138 -52t-143 -66t-128.5 -79z" />
    <glyph glyph-name="Gdotaccent" unicode="&#x120;" horiz-adv-x="2371" 
d="M1602 1526.5q-34 -15.5 -76 -15.5t-81 14t-68 39q-63 54 -63 138q0 129 216 192q73 22 120 22t70.5 -10.5t38.5 -27.5q30 -34 30 -69.5t-8.5 -64.5t-24.5 -60t-39 -62t-52 -55.5t-63 -40zM700 457q0 -92 207 -92q280 0 537 99q81 31 165 68l113 66q183 104 260 104
q33 0 52 -10q50 -16 80 -51q55 -64 55 -97.5t-17 -86t-46 -114t-67 -127.5t-81 -126q-96 -137 -171 -198q-28 -35 -69 -78t-112.5 -91.5t-149 -86t-158 -65t-154.5 -45.5q-142 -35 -218.5 -35t-111 30.5t-34.5 77t32.5 92.5t88 89t129 82.5t154.5 74.5q147 64 327 115
q102 140 182 286l-49 -28q-25 -13 -49 -24q-181 -109 -457 -194q-328 -101 -625 -101q-167 0 -265 111q-89 101 -89 256q0 164 221 353q194 166 525 323q300 144 621 236q317 92 512 92q115 0 156 -78q16 -29 16 -82.5t-40 -95.5t-104 -66q-115 -44 -282 -44t-302 20
q-190 -62 -387 -182q-165 -100 -285 -216q-110 -106 -110 -161z" />
    <glyph glyph-name="gdotaccent" unicode="&#x121;" horiz-adv-x="1530" 
d="M840 1116.5q-34 -15.5 -76 -15.5t-81 14t-68 39q-63 54 -63 138q0 129 216 192q73 22 120 22t70.5 -10.5t38.5 -27.5q30 -34 30 -69.5t-8.5 -64.5t-24.5 -60t-39 -62t-52 -55.5t-63 -40zM445 587q-61 -43 -108 -88t-47 -78t53 -33q37 0 108 36l217 115q60 31 107 73
l71 62q76 69 159 69q43 0 86 -48t43 -98q0 -115 -94 -340l160 131l330 257q53 40 88 40q76 0 76 -73q0 -75 -98 -193q-46 -56 -128 -121l-554 -420q-55 -44 -87 -73q-132 -213 -254 -309q-177 -140 -328 -140q-68 0 -111 38q-39 33 -39 77q0 41 22 88.5t59 95.5t84 95
t100 91q140 111 199 153l98 71q58 123 100 266q-193 -170 -411 -267q-109 -49 -181 -49t-132 30t-103 79q-89 103 -89 239q0 142 107 239q161 146 456 254q284 105 481 105q65 0 65 -64q0 -44 -16.5 -67.5t-79 -45.5t-138 -52t-143 -66t-128.5 -79z" />
    <glyph glyph-name="Gcommaaccent" unicode="&#x122;" horiz-adv-x="2371" 
d="M1332 -639q-147 0 -147 170q0 159 239 380q94 88 188 139q37 78 63 152l53 157l-68 -39q-33 -18 -65 -34q-181 -109 -457 -194q-328 -101 -625 -101q-167 0 -265 111q-89 101 -89 256q0 164 221 353q194 166 525 323q300 144 621 236q317 92 512 92q115 0 156 -78
q16 -29 16 -82.5t-40 -95.5t-104 -66q-115 -44 -282 -44t-302 20q-190 -62 -387 -182q-165 -100 -285 -216q-110 -106 -110 -161q0 -92 207 -92q280 0 537 99q81 31 165 68l175 99q81 44 141 61q33 14 65 14t62.5 -15.5t55.5 -36.5q58 -50 58 -77.5t-4 -53t-14 -61.5
q-71 -245 -238 -554q-174 -320 -302 -430q-137 -117 -276 -117zM1094 -158q20 -25 20 -73.5t-25 -100.5t-65 -96t-90.5 -80t-101.5 -63q-178 -93 -256 -58q-13 6 -29 23.5t-16 28.5q0 24 38 38l39 21q96 51 145 107q-90 10 -127 61q-20 28 -20 66q0 74 91 133.5t219 59.5
t178 -67z" />
    <glyph glyph-name="gcommaaccent" unicode="&#x123;" horiz-adv-x="1530" 
d="M408 -605q-95 -39 -147 -39t-80 10.5t-47 27.5q-39 33 -39 77q0 41 22 88.5t59 95.5t84 95t100 91q140 111 199 153l98 71q58 123 100 266q-193 -170 -411 -267q-109 -49 -181 -49t-132 30t-103 79q-89 103 -89 239q0 142 107 239q161 146 456 254q284 105 481 105
q65 0 65 -64q0 -44 -16.5 -67.5t-79 -45.5t-138 -52t-142.5 -66q-141 -75 -247 -177q-37 -35 -37 -68t53 -33q37 0 108 36l217 115q60 31 107 73l71 62q76 69 159 69q43 0 86 -48t43 -98q0 -115 -94 -340l160 131l330 257q53 40 88 40q76 0 76 -73q0 -75 -98 -193
q-44 -54 -112 -108l-569 -433q61 -34 61 -96t-25 -114t-65 -96t-90.5 -80t-101.5 -63q-178 -93 -256 -58q-11 5 -15.5 9.5t-8 7.5t-6.5 7z" />
    <glyph glyph-name="Hcircumflex" unicode="&#x124;" horiz-adv-x="2038" 
d="M1350 1562.5q-38 -24.5 -58.5 -42t-37 -17.5t-29.5 5.5t-24 15.5q-24 22 -24 41q0 35 20.5 56.5t56 50t79 57.5t92.5 56t99 49q107 46 164 46t97 -20.5t79 -52.5q57 -48 139 -151q15 -15 15 -36t-18.5 -43.5t-45.5 -40.5q-63 -41 -119 -41q-40 0 -147.5 77.5t-133 77.5
t-58 -12t-70.5 -31.5t-76 -44zM1871 555q-56 14 -239 14q-149 -310 -209 -553q-34 -132 -257 -132q-184 0 -234 86q-18 29 -14 56.5t26 72t60 110.5l88 150l108 177l-403 -33q-140 -242 -310 -456q-83 -101 -244 -101q-122 0 -215 52q-56 31 -54 56q1 35 40 70
q160 140 319 342l-153 -12q-115 -3 -144 50q-23 43 -23 98q0 38 18 63t40 31t51 7l416 51q247 398 279 446.5t63 81.5q77 78 157 78q56 0 105 -45q22 -20 22 -46q0 -51 -56 -166l-146 -297l448 56q188 272 259 363q145 185 202 213q108 54 157 54t61 -27t7.5 -56t-29 -73.5
t-63.5 -109.5l-199 -332q66 -6 91 -34q44 -48 44 -152q0 -75 -19 -140q-8 -13 -50 -13z" />
    <glyph glyph-name="hcircumflex" unicode="&#x125;" horiz-adv-x="1531" 
d="M615 1596.5q-38 -24.5 -58.5 -42t-37 -17.5t-29.5 5.5t-24 15.5q-24 22 -24 41q0 35 20.5 56.5t56 50t79 57.5t92.5 56t98 49q108 46 165 46t97 -20.5t78 -52.5q58 -48 140 -151q15 -15 15 -36t-18.5 -43.5t-46.5 -40.5q-62 -41 -118 -41q-40 0 -147.5 77.5t-133 77.5
t-58 -12t-70.5 -31.5t-76 -44zM415 647q0 -36 27 -36q33 0 85 44l87 75q138 119 263 119q81 0 144 -135q55 -116 99 -346q8 -38 13.5 -38t29 18t57.5 46q245 209 283.5 233.5t53.5 33t31 15.5q40 15 63 15q44 0 44 -46q0 -70 -92 -204q-103 -150 -273 -299
q-198 -175 -346 -175q-156 0 -210 210q-14 54 -22 101l-15 78q-6 31 -15.5 31t-39.5 -30l-74 -75q-124 -126 -208 -184q-169 -118 -296 -118q-152 0 -179 154q-8 46 -8 116.5t20 172.5t55 204q76 218 189 372l89 118q323 422 540 422q49 0 71 -48q7 -15 7 -45t-26 -77.5
t-64 -98.5t-81.5 -103.5t-79.5 -103.5l-75 -109q-147 -221 -147 -307z" />
    <glyph glyph-name="Hbar" unicode="&#x126;" horiz-adv-x="2038" 
d="M1964 1492q75 0 75 -93q0 -26 -35 -105l-131 -283q194 -2 221 -7q42 -8 42 -54q0 -51 -28 -85q-52 -63 -106 -63l-218 3q-184 -450 -217 -789q-14 -132 -237 -132q-183 0 -247 86q-22 29 -22 55t10 57t29 78l44 106q26 59 58 127l-376 13q-91 -192 -199 -359
q-67 -101 -229 -101q-124 0 -224 52q-64 34 -64 61q0 32 33 65q247 250 465 697l-369 7q-31 0 -49 30q-14 25 32 80q32 40 70 49q20 6 169.5 9t231.5 5l79 168q95 191 214 191q59 0 113 -45q29 -23 29 -70t-66 -238q114 2 228 2.5t222 1.5l88 153q143 239 202 271
q107 57 162 57zM1323 647l82 163l-205 2q-102 1 -205 3q-49 -131 -66 -172z" />
    <glyph glyph-name="hbar" unicode="&#x127;" horiz-adv-x="1531" 
d="M415 647q0 -36 27 -36q33 0 85 44l87 75q138 119 263 119q81 0 144 -135q55 -116 99 -346q8 -38 13.5 -38t29 18t57.5 46q245 209 283.5 233.5t53.5 33t31 15.5q40 15 63 15q44 0 44 -46q0 -70 -92 -204q-103 -150 -273 -299q-198 -175 -346 -175q-156 0 -210 210
q-14 54 -22 101l-15 78q-6 31 -15.5 31t-39.5 -30l-74 -75q-124 -126 -208 -184q-169 -118 -296 -118q-152 0 -179 154q-8 46 -8 116.5t20 172.5t55 204q76 218 189 372l92 122l-30 2q-133 15 -133 93q0 54 34 73q37 20 78 21t59 1h154q214 228 375 228q49 0 71 -48
q7 -15 7 -34q0 -56 -61 -146h153q44 0 64 -37q7 -13 7 -26q0 -49 -26 -85.5t-45 -50.5q-35 -26 -81 -24l-235 12l-14 -18q-235 -319 -235 -435z" />
    <glyph glyph-name="Itilde" unicode="&#x128;" horiz-adv-x="1531" 
d="M825.5 1580.5q-18.5 -10.5 -35 -10.5t-30.5 5.5t-25 14.5q-24 20 -24 46t15.5 42.5t41 34.5t60 37.5t76.5 39t86 34.5q102 36 167.5 36t111.5 -26t85 -57.5t74.5 -57.5t69.5 -26q73 0 145 31q19 7 40.5 7t44.5 -18.5t23 -44t-21 -44t-66 -42.5t-104 -46
q-144 -53 -257 -53q-81 0 -195 69l-76 46q-34 22 -55 22q-66 0 -99.5 -14.5t-52 -25zM1112 1034q0 68 -50.5 68t-125 -18t-159.5 -56q-194 -87 -351 -240q-21 -18 -56.5 -18t-59.5 17.5t-24 45.5t12 59.5t25 75t27 86.5q36 103 67 136q57 47 305 104q275 63 538 63
q110 0 182 -81q62 -70 62 -147q0 -66 -98 -313q-155 -394 -317 -616q-45 -62 -89 -101q-64 -50 -168 -84q-176 -59 -228.5 -59t-103.5 13.5t-98.5 35t-88.5 49t-72 54.5q-66 59 -66 96q0 35 85 113q87 80 143 80q38 0 92 -29l77 -44q25 -13 44.5 -13t54.5 28.5t75 75.5
t82.5 108t83 125.5t77 128.5t63.5 117q60 115 60 140z" />
    <glyph glyph-name="itilde" unicode="&#x129;" horiz-adv-x="1020" 
d="M295.5 1161.5q-18.5 -10.5 -35 -10.5t-30.5 5.5t-25 14.5q-24 20 -24 46t15.5 42.5t41 34.5t60 37.5t76.5 39t86 35.5q102 35 167.5 35t111.5 -26t85 -57.5t74.5 -57.5t69.5 -26q73 0 145 31q19 7 40.5 7t44.5 -18.5t23 -44t-21 -44t-66 -42.5t-104 -46
q-144 -53 -257 -53q-81 0 -195 68l-76 48q-34 21 -55 21q-66 0 -99.5 -14.5t-52 -25zM423 965q229 0 229 -136q0 -144 -225 -379q-23 -24 -34 -33q0 -34 16 -60q28 -44 54 -44t68 16t90.5 42.5t101.5 60.5t105 71l192 142q109 79 177 79q27 0 41.5 -19.5t14.5 -45.5
t-26 -71.5t-71.5 -100t-106.5 -114t-132 -117t-147.5 -109.5t-152.5 -91q-166 -87 -262.5 -87t-171 33.5t-132.5 89.5q-129 125 -129 278q0 141 84 286q77 131 196 220t221 89z" />
    <glyph glyph-name="Imacron" unicode="&#x12a;" horiz-adv-x="1531" 
d="M847 1619q-35 0 -35 41q0 39 22.5 79t42.5 56.5t43 28.5q50 27 88 27h579q16 0 30 -11.5t14 -31.5q0 -40 -26.5 -84.5t-63 -75t-74.5 -30.5zM1112 1034q0 68 -50.5 68t-125 -18t-159.5 -56q-194 -87 -351 -240q-21 -18 -56.5 -18t-59.5 17.5t-24 45.5t12 59.5t25 75
t27 86.5q36 103 67 136q57 47 305 104q275 63 538 63q110 0 182 -81q62 -70 62 -147q0 -66 -98 -313q-155 -394 -317 -616q-45 -62 -89 -101q-64 -50 -168 -84q-176 -59 -228.5 -59t-103.5 13.5t-98.5 35t-88.5 49t-72 54.5q-66 59 -66 96q0 35 85 113q87 80 143 80
q38 0 92 -29l77 -44q25 -13 44.5 -13t54.5 28.5t75 75.5t82.5 108t83 125.5t77 128.5t63.5 117q60 115 60 140z" />
    <glyph glyph-name="imacron" unicode="&#x12b;" horiz-adv-x="1020" 
d="M270 1210q-35 0 -35 41q0 39 22.5 79t42.5 56.5t44 29.5q49 26 87 26h579q16 0 30 -11.5t14 -31.5q0 -40 -26.5 -84.5t-63 -75t-74.5 -30.5zM423 965q229 0 229 -136q0 -144 -225 -379q-23 -24 -34 -33q0 -34 16 -60q28 -44 54 -44t68 16t90.5 42.5t101.5 60.5t105 71
l192 142q109 79 177 79q27 0 41.5 -19.5t14.5 -45.5t-26 -71.5t-71.5 -100t-106.5 -114t-132 -117t-147.5 -109.5t-152.5 -91q-166 -87 -262.5 -87t-171 33.5t-132.5 89.5q-129 125 -129 278q0 141 84 286q77 131 196 220t221 89z" />
    <glyph glyph-name="Ibreve" unicode="&#x12c;" horiz-adv-x="1531" 
d="M930 1668q-51 62 -51 93t16.5 56.5t41.5 45.5q56 45 113 45q28 0 56 -46l25 -42q51 -87 129 -87q97 0 158 30q86 42 151 100q17 14 42 14t48 -19t23 -43.5t-22 -58t-70 -81.5t-106 -86q-131 -86 -247 -86q-170 0 -307 165zM1112 1034q0 68 -50.5 68t-125 -18t-159.5 -56
q-194 -87 -351 -240q-21 -18 -56.5 -18t-59.5 17.5t-24 45.5t12 59.5t25 75t27 86.5q36 103 67 136q57 47 305 104q275 63 538 63q110 0 182 -81q62 -70 62 -147q0 -66 -98 -313q-155 -394 -317 -616q-45 -62 -89 -101q-64 -50 -168 -84q-176 -59 -228.5 -59t-103.5 13.5
t-98.5 35t-88.5 49t-72 54.5q-66 59 -66 96q0 35 85 113q87 80 143 80q38 0 92 -29l77 -44q25 -13 44.5 -13t54.5 28.5t75 75.5t82.5 108t83 125.5t77 128.5t63.5 117q60 115 60 140z" />
    <glyph glyph-name="ibreve" unicode="&#x12d;" horiz-adv-x="1020" 
d="M476 1094q-113 0 -212 72q-79 57 -136 155q-12 21 -12 42.5t12.5 41t32.5 33.5q44 31 84 31t62 -23l48 -50q69 -72 133.5 -72t109.5 11.5t82 30.5q63 30 128 88q17 14 42 14t48 -19t23 -43.5t-22 -58t-70 -81.5t-106 -86q-131 -86 -247 -86zM423 965q229 0 229 -136
q0 -144 -225 -379q-23 -24 -34 -33q0 -34 16 -60q28 -44 54 -44t68 16t90.5 42.5t101.5 60.5t105 71l192 142q109 79 177 79q27 0 41.5 -19.5t14.5 -45.5t-26 -71.5t-71.5 -100t-106.5 -114t-132 -117t-147.5 -109.5t-152.5 -91q-166 -87 -262.5 -87t-171 33.5t-132.5 89.5
q-129 125 -129 278q0 141 84 286q77 131 196 220t221 89z" />
    <glyph glyph-name="Iogonek" unicode="&#x12e;" horiz-adv-x="1531" 
d="M488 -27q-117 33 -218 111q-95 75 -95 120q0 35 85 113q87 80 143 80q38 0 92 -29l77 -44q25 -13 44.5 -13t54.5 28.5t75 75.5t82.5 108t83 125.5t77 128.5t63.5 117q60 115 60 140q0 68 -50.5 68t-125 -18t-159.5 -56q-194 -87 -351 -240q-21 -18 -56.5 -18t-59.5 17.5
t-24 45.5t12 59.5t25 75t27 86.5q36 103 67 136q57 47 305 104q275 63 538 63q110 0 182 -81q62 -70 62 -147q0 -95 -150 -441q-167 -388 -319 -554q-13 -35 -33 -47l-52 -33q-196 -123 -264 -234q-20 -31 -20 -60t8 -46.5t20 -27.5q18 -14 68.5 -14t94 6t77.5 13l66 13
q30 6 68 6q83 0 83 -103q0 -28 -50 -70.5t-97 -72t-108 -53.5q-140 -55 -291 -55q-158 0 -264 90q-103 87 -103 216.5t250 310.5z" />
    <glyph glyph-name="iogonek" unicode="&#x12f;" horiz-adv-x="1020" 
d="M816 1116.5q-34 -15.5 -76 -15.5t-81 14t-68 39q-63 54 -63 138q0 129 216 192q73 22 120 22t70.5 -10.5t38.5 -27.5q30 -34 30 -69.5t-8.5 -64.5t-24.5 -60t-39 -62t-52 -55.5t-63 -40zM-94 -339q0 144 291 340q-114 50 -188 149q-77 104 -77 220q0 141 84 286
q77 131 196 220t221 89q146 0 156 -82q3 -25 3 -58t-15.5 -75.5t-40 -85t-54 -83t-56.5 -73.5q-52 -63 -83 -91q0 -34 51 -70q48 -34 81.5 -34t79 16t94 43t99 62t99.5 72l183 143q109 79 177 79q27 0 41.5 -19.5t14.5 -46t-28 -74.5t-76.5 -105.5t-113.5 -119.5t-139 -121
q-162 -129 -313 -203q-170 -114 -233 -209q-26 -37 -26 -68t8 -48.5t20 -27.5q18 -14 68.5 -14t94 6t77.5 13l66 13q30 6 68 6q83 0 83 -103q0 -28 -50 -70.5t-97 -72t-108 -53.5q-140 -55 -291 -55q-158 0 -264 90q-103 87 -103 215z" />
    <glyph glyph-name="Idotaccent" unicode="&#x130;" horiz-adv-x="1531" 
d="M1287 1526.5q-34 -15.5 -76 -15.5t-81 14t-68 39q-63 54 -63 138q0 129 216 192q73 22 120 22t70.5 -10.5t38.5 -27.5q30 -34 30 -69.5t-8.5 -64.5t-24.5 -60t-39 -62t-52 -55.5t-63 -40zM1112 1034q0 68 -50.5 68t-125 -18t-159.5 -56q-194 -87 -351 -240
q-21 -18 -56.5 -18t-59.5 17.5t-24 45.5t12 59.5t25 75t27 86.5q36 103 67 136q57 47 305 104q275 63 538 63q110 0 182 -81q62 -70 62 -147q0 -66 -98 -313q-155 -394 -317 -616q-45 -62 -89 -101q-64 -50 -168 -84q-176 -59 -228.5 -59t-103.5 13.5t-98.5 35t-88.5 49
t-72 54.5q-66 59 -66 96q0 35 85 113q87 80 143 80q38 0 92 -29l77 -44q25 -13 44.5 -13t54.5 28.5t75 75.5t82.5 108t83 125.5t77 128.5t63.5 117q60 115 60 140z" />
    <glyph glyph-name="dotlessi" unicode="&#x131;" horiz-adv-x="1020" 
d="M423 965q229 0 229 -136q0 -144 -225 -379q-23 -24 -34 -33q0 -34 16 -60q28 -44 54 -44t68 16t90.5 42.5t101.5 60.5t105 71l192 142q109 79 177 79q27 0 41.5 -19.5t14.5 -45.5t-26 -71.5t-71.5 -100t-106.5 -114t-132 -117t-147.5 -109.5t-152.5 -91
q-166 -87 -262.5 -87t-171 33.5t-132.5 89.5q-129 125 -129 278q0 141 84 286q77 131 196 220t221 89z" />
    <glyph glyph-name="IJ" unicode="&#x132;" horiz-adv-x="1869" 
d="M529 550q0 -46 61 -46q33 0 69 17q376 177 691 517l138 154q59 67 98.5 107.5t64.5 40.5t54 -17t52 -41q52 -53 52 -92q0 -266 -232 -710q-300 -573 -563 -742q-200 -127 -474 -190q-145 -34 -249 -34q-36 0 -66 26q-57 52 -57 120q0 106 221 230q223 124 520 169
q34 63 81 139q211 353 267 484q-270 -238 -396 -328.5t-210 -140.5q-186 -111 -298 -109q-121 2 -209 94q-87 91 -87 209q0 202 256 589q93 140 164 223q119 141 151 141t72 -20t76 -50q84 -73 84 -138q0 -53 -86 -179l-80 -113q-165 -227 -165 -310z" />
    <glyph glyph-name="ij" unicode="&#x133;" horiz-adv-x="1530" 
d="M681 1136.5q-34 -15.5 -76 -15.5t-81 14t-68 39q-63 54 -63 138q0 129 216 192q73 22 120 22t70.5 -10.5t38.5 -27.5q30 -34 30 -69.5t-8.5 -64.5t-24.5 -60t-39 -62t-52 -55.5t-63 -40zM1062 1201q-20 35 -20 76.5t20.5 73.5t53.5 57t75 43t85 29q86 23 133.5 23t67 -10
t33.5 -25q27 -29 27 -59.5t-11 -64.5t-31 -69.5t-46.5 -69t-58.5 -59.5q-70 -58 -120 -58t-88 14t-69 39t-51 60zM423 965q149 0 149 -136q0 -144 -225 -379q-23 -24 -34 -33q0 -34 16 -60q28 -44 55.5 -44t73.5 24.5t99.5 65.5t110.5 94t112 110q139 149 173.5 191t51.5 53
t36 19q39 15 70 15t50.5 -10t32.5 -25q28 -31 28 -68t-16.5 -99.5t-44.5 -139t-65 -165.5l-80 -181l224 201l290 247q48 40 85 40q79 0 79 -73q0 -75 -98 -192q-31 -37 -62 -66l-74 -66l-462 -384q-218 -188 -260 -238l-30 -36q-165 -234 -368 -234q-67 0 -108 50
q-39 47 -39 109t19.5 107.5t51 85t73 74.5t85.5 66l168 112q9 19 20 50q33 91 47.5 134t26.5 75q-104 -110 -241 -185t-237 -75q-112 0 -202 114q-92 115 -92 257q0 141 86 286q80 133 200 220q122 89 225 89z" />
    <glyph glyph-name="Jcircumflex" unicode="&#x134;" horiz-adv-x="1879" 
d="M1348 1562.5q-38 -24.5 -58.5 -42t-37 -17.5t-29.5 5.5t-24 15.5q-24 22 -24 41q0 35 20.5 56.5t56 50t79 57.5t92.5 56t99 49q107 46 164 46t97 -20.5t79 -52.5q57 -48 139 -151q15 -15 15 -36t-18.5 -43.5t-45.5 -40.5q-63 -41 -119 -41q-40 0 -147.5 77.5t-133 77.5
t-58 -12t-70.5 -31.5t-76 -44zM222 282q-18 -8 -40.5 -8t-50 32t-49.5 80q-48 108 -48 211q0 65 25 103l93 102q44 50 95 88q590 430 1195 462q85 5 132 5t76.5 -13.5t56.5 -35t51 -48t42 -52.5q38 -53 38 -75t-9 -51.5t-21 -64t-26 -68.5l-22 -58q-149 -385 -354 -723
q-68 -113 -113.5 -174.5t-76 -98.5t-65.5 -73t-75 -68.5t-82 -57.5q-92 -54 -182 -54q-60 0 -136 63q-80 67 -80 136q0 112 219 327q115 113 209 183.5t136 95.5q157 297 193 372l56 119q42 93 42 111q0 45 -48 45t-123 -23t-161 -62.5t-178.5 -92t-181 -111t-169 -120.5
t-142.5 -120q-137 -127 -150 -196q-13 -62 -76 -87z" />
    <glyph glyph-name="jcircumflex" unicode="&#x135;" horiz-adv-x="852" 
d="M300 1153.5q-38 -24.5 -58.5 -42t-37 -17.5t-29.5 5.5t-24 15.5q-24 22 -24 41q0 35 20.5 56.5t56 50t79 57.5t92.5 56t99 48q107 47 164 47t97 -20.5t79 -52.5q57 -48 139 -151q15 -15 15 -36t-18.5 -43.5t-45.5 -40.5q-63 -41 -119 -41q-40 0 -147.5 77.5t-133 77.5
t-58 -12t-70.5 -31.5t-76 -44zM-94 91q65 121 110 243l64 172q12 39 12 60.5t-6 35.5l-14 30q-19 42 -19 85.5t20.5 75.5t53.5 57t75 43t86 29q85 23 132.5 23t67 -10t32.5 -25q28 -31 28 -65.5t-11.5 -85.5t-32 -112.5t-48.5 -132.5l-59 -146q-19 -44 -44 -97l169 132
l271 201q47 33 61 44q36 28 74 28q69 0 84 -49q18 -63 -87 -197q-33 -42 -65.5 -70.5t-69.5 -56.5q-562 -407 -608.5 -443.5t-71.5 -58.5q-61 -102 -116 -171q-85 -120 -193 -185q-82 -49 -159.5 -49t-120 38t-42.5 101t21.5 119.5t57 109.5t80.5 100.5t92.5 89.5t93.5 76z
" />
    <glyph glyph-name="Kcommaaccent" unicode="&#x136;" horiz-adv-x="1871" 
d="M1554 1360q147 0 147 -81q0 -70 -111 -205q-14 -17 -60 -58l-114 -102l-340 -283q25 -45 85 -108t107 -103q102 -90 124.5 -90t57 17t77.5 44.5t91 62.5l252 191q36 28 72 28q75 0 75 -62q0 -81 -79 -189q-24 -32 -46 -54l-63 -58q-274 -251 -487 -332q-66 -26 -118 -26
t-100 18t-95 48t-91.5 69.5t-84.5 83.5q-73 80 -136 176l-184 -137q-294 -214 -359 -214q-70 0 -135 40q-19 11 -26 24q-37 37 -37 152t18.5 205.5t49.5 183t72 183.5t86 174t92 154.5t90 123.5q90 112 135.5 112t91.5 -8t83 -24q84 -38 84 -103q0 -39 -31 -84t-69 -106
q-102 -171 -142 -243l-67 -126q-59 -116 -59 -143q0 -23 38 -23q15 0 110 82l168 146l525 480q38 35 44 41q61 62 130.5 92.5t128.5 30.5zM870 -158q19 -25 19 -73.5t-25 -100.5t-65 -96t-90.5 -80t-102.5 -63q-177 -93 -255 -58q-13 6 -29 23.5t-16 28.5q0 24 38 38l38 21
q97 51 146 107q-90 10 -126 61q-21 28 -21 66q0 74 91 133.5t219 59.5t179 -67z" />
    <glyph glyph-name="kcommaaccent" unicode="&#x137;" horiz-adv-x="1530" 
d="M910 -48q-205 0 -404 262l-116 -86q-185 -132 -246 -132q-69 0 -128 52q-17 15 -25 32q-37 37 -37 193.5t35 293.5t91 254q88 184 273 404q104 150 255 246q128 81 214 81q47 0 79.5 -21t32.5 -57t-28 -79q-329 -480 -380 -560t-72 -123t-31 -65.5t-19 -46.5
q-21 -56 -21 -81t38 -25q35 0 183 181l134 166q74 93 153.5 128t138.5 35q167 0 167 -81q0 -73 -111 -205q-12 -14 -36 -38l-134 -124l-89 -79q94 -110 185 -155q21 -10 35.5 -10t52.5 18.5t85.5 48t100.5 66.5l274 200q36 28 72 28q75 0 75 -62q0 -81 -79 -189
q-24 -32 -46 -54l-63 -58q-274 -251 -487 -332q-66 -26 -122 -26zM594 -158q19 -25 19 -73.5t-25 -100.5t-65 -96t-90.5 -80t-102.5 -63q-177 -93 -255 -58q-13 6 -29 23.5t-16 28.5q0 24 38 38l38 21q97 51 146 107q-90 10 -126 61q-21 28 -21 66q0 74 91 133.5t219 59.5
t179 -67z" />
    <glyph glyph-name="kgreenlandic" unicode="&#x138;" horiz-adv-x="1530" 
d="M880 -48q-197 0 -392 246l-110 -80q-175 -122 -236 -122q-70 0 -135 40q-19 11 -26 24q-57 39 -57 197q0 309 122 526q135 241 362 241q47 0 79.5 -21t32.5 -49q0 -50 -25 -83.5t-49.5 -77t-45.5 -91.5q-47 -111 -47 -185q0 -23 38 -23q28 0 91 60q121 120 169 172l75 80
q26 28 35 35q61 62 130.5 92.5t128.5 30.5q147 0 147 -81q0 -73 -111 -205q-11 -12 -34 -34q-148 -135 -208 -186q89 -97 170 -136q19 -10 33.5 -10t52.5 18.5t85.5 48t100.5 66.5l274 200q36 28 72 28q75 0 75 -62q0 -81 -79 -189q-24 -32 -46 -54l-64 -58
q-268 -249 -486 -332q-66 -26 -122 -26z" />
    <glyph glyph-name="Lacute" unicode="&#x139;" horiz-adv-x="1700" 
d="M1587.5 1459.5q-21.5 18.5 -21.5 40t26.5 59.5t69.5 83.5t97.5 94t109.5 87.5q126 91 192 91q49 0 83 -30q65 -56 65 -120q0 -12 -5 -37q-19 -24 -77 -51l-101 -45q-80 -36 -151 -78l-109 -64q-83 -49 -120 -49t-58.5 18.5zM754 796q-151 -24 -247.5 -24t-160.5 14
t-120 43q-127 66 -147 183q-8 61 33 75q12 4 28.5 4t34.5 -8q65 -47 226 -71q37 -5 59 -5t58 2t76 8q97 14 156.5 46.5t108.5 71.5t92 77l83 74q84 75 153 98t108 23t73.5 -11.5t69.5 -31.5q88 -50 88 -104q0 -72 -80 -160q-83 -90 -201 -145q-364 -436 -417 -505l142 -52
q265 -100 398 -100q70 0 168 57q31 18 56 45q49 53 95 53t67.5 -27t14 -65t-30.5 -81.5t-58.5 -91t-82 -95t-99.5 -85.5q-121 -84 -230 -84q-70 0 -225 47l-371 109q-72 21 -136 36q-128 -110 -277 -134q-54 -8 -114 -8t-94 15.5t-52 40.5q-29 42 -29 130q0 51 80 139
q139 151 308 209q60 21 104.5 21t95.5 -7q175 213 196 274zM1189 932q-4 -5 -2 -4t9 6z" />
    <glyph glyph-name="lacute" unicode="&#x13a;" horiz-adv-x="1019" 
d="M1053 1631q-190 -101 -241 -101t-72.5 18.5t-21.5 40t19.5 52.5t51.5 67t74 73t86 67q101 67 167 67q49 0 83 -30q65 -56 65 -120q0 -12 -5 -37q-18 -22 -58 -37l-73 -26q-33 -12 -75 -34zM1182 706q64 0 64 -53q0 -65 -78 -155q-129 -150 -304 -292q-285 -228 -509 -228
q-158 0 -264 133q-107 135 -107 343q0 261 122 510q104 213 269 358q155 136 275 136q46 0 79 -27q60 -50 60 -112.5t-13 -125.5t-52 -130q-77 -135 -289 -311q-57 -98 -57 -232q0 -69 44 -130q45 -61 99 -61q73 0 283 151l177 136q57 45 112.5 67.5t88.5 22.5z" />
    <glyph glyph-name="Lcommaaccent" unicode="&#x13b;" horiz-adv-x="1870" 
d="M760 796q-151 -24 -247.5 -24t-160.5 14t-120 43q-127 66 -147 183q-8 61 33 75q12 4 28.5 4t34.5 -8q65 -47 226 -71q37 -5 59 -5t58 2t76 8q97 14 156.5 46.5t108.5 71.5t92 77l83 74q84 75 153 98t108 23t73.5 -11.5t69.5 -31.5q88 -50 88 -104q0 -72 -80 -160
q-83 -90 -201 -145q-364 -436 -417 -505l142 -52q265 -100 398 -100q70 0 168 57q31 18 56 45q49 53 95 53t67.5 -27t14 -65t-30.5 -81.5t-58.5 -91t-82 -95t-99.5 -85.5q-121 -84 -230 -84q-72 0 -227 47l-369 109q-72 21 -136 36q-128 -110 -277 -134q-54 -8 -114 -8
t-94 15.5t-52 40.5q-29 42 -29 130q0 51 80 139q139 151 308 209q60 21 104.5 21t95.5 -7q175 213 196 274zM1195 932q-4 -5 -2 -4t9 6zM870 -158q19 -25 19 -73.5t-25 -100.5t-65 -96t-90.5 -80t-102.5 -63q-177 -93 -255 -58q-13 6 -29 23.5t-16 28.5q0 24 38 38l38 21
q97 51 146 107q-90 10 -126 61q-21 28 -21 66q0 74 91 133.5t219 59.5t179 -67z" />
    <glyph glyph-name="lcommaaccent" unicode="&#x13c;" horiz-adv-x="1019" 
d="M1232 706q64 0 64 -53q0 -65 -78 -155q-129 -150 -304 -292q-285 -228 -509 -228q-161 0 -264 140q-107 146 -107 392q0 323 315 714q200 249 377 338q55 28 84.5 28t54 -9.5t45.5 -26.5q49 -41 49 -99t-32 -137.5t-93 -169.5q-129 -191 -349 -366q-57 -109 -57 -262
q0 -69 44 -130q45 -61 99 -61q74 0 283 153l178 137q109 87 200 87zM530 -158q19 -25 19 -73.5t-25 -100.5t-65 -96t-90.5 -80t-102.5 -63q-177 -93 -255 -58q-13 6 -29 23.5t-16 28.5q0 24 38 38l38 21q97 51 146 107q-90 10 -126 61q-21 28 -21 66q0 74 91 133.5t219 59.5
t179 -67z" />
    <glyph glyph-name="Lcaron" unicode="&#x13d;" horiz-adv-x="2042" 
d="M1731 1055q-10 5 -15 12l-16 19q-11 13 -11 29t21 27l42 24q98 54 142 107q-78 10 -110 61q-41 67 0 146q43 80 136 116q45 17 85 17t71.5 -5.5t57.5 -20.5q61 -34 63 -100t-18.5 -120.5t-55 -100.5t-78.5 -84t-89 -66q-155 -96 -225 -61zM754 796q-151 -24 -247.5 -24
t-160.5 14t-120 43q-127 66 -147 183q-8 61 33 75q12 4 28.5 4t34.5 -8q65 -47 226 -71q37 -5 59 -5t58 2t76 8q97 14 156.5 46.5t108.5 71.5t92 77l83 74q84 75 153 98t108 23t73.5 -11.5t69.5 -31.5q88 -50 88 -104q0 -72 -80 -160q-83 -90 -201 -145q-364 -436 -417 -505
l142 -52q265 -100 398 -100q70 0 168 57q31 18 56 45q49 53 95 53t67.5 -27t14 -65t-30.5 -81.5t-58.5 -91t-82 -95t-99.5 -85.5q-121 -84 -230 -84q-70 0 -225 47l-371 109q-72 21 -136 36q-128 -110 -277 -134q-54 -8 -114 -8t-94 15.5t-52 40.5q-29 42 -29 130
q0 51 80 139q139 151 308 209q60 21 104.5 21t95.5 -7q175 213 196 274zM1189 932q-4 -5 -2 -4t9 6z" />
    <glyph glyph-name="lcaron" unicode="&#x13e;" horiz-adv-x="1019" 
d="M988 1108q-10 5 -16 12l-16 20q-10 12 -10 28t20 27l44 23q97 55 141 108q-78 10 -109 61q-42 67 0 145q42 81 134 116q46 18 86 18t71.5 -5.5t58.5 -20.5q60 -34 62 -100t-18.5 -120.5t-55 -100.5t-78.5 -84t-89 -66q-155 -96 -225 -61zM1232 706q64 0 64 -53
q0 -65 -78 -155q-129 -150 -304 -292q-285 -228 -509 -228q-161 0 -264 140q-107 146 -107 392q0 323 315 714q200 249 377 338q55 28 84.5 28t54 -9.5t45.5 -26.5q49 -41 49 -99t-32 -137.5t-93 -169.5q-129 -191 -349 -366q-57 -109 -57 -262q0 -69 44 -130q45 -61 99 -61
q74 0 283 153l178 137q109 87 200 87z" />
    <glyph glyph-name="Ldot" unicode="&#x13f;" horiz-adv-x="1877" 
d="M754 796q-151 -24 -247.5 -24t-160.5 14t-120 43q-127 66 -147 183q-8 61 33 75q12 4 28.5 4t34.5 -8q65 -47 226 -71q37 -5 59 -5t58 2t76 8q97 14 156.5 46.5t108.5 71.5t92 77l83 74q84 75 153 98t108 23t73.5 -11.5t69.5 -31.5q88 -50 88 -104q0 -72 -80 -160
q-83 -90 -201 -145q-364 -436 -417 -505l142 -52q265 -100 398 -100q70 0 168 57q31 18 56 45q49 53 95 53t67.5 -27t14 -65t-30.5 -81.5t-58.5 -91t-82 -95t-99.5 -85.5q-121 -84 -230 -84q-70 0 -225 47l-371 109q-72 21 -136 36q-128 -110 -277 -134q-54 -8 -114 -8
t-94 15.5t-52 40.5q-29 42 -29 130q0 51 80 139q139 151 308 209q60 21 104.5 21t95.5 -7q175 213 196 274zM1189 932q-4 -5 -2 -4t9 6zM1402 628q-16 33 -16 70t17.5 65.5t45.5 50.5t63 37.5t70 25.5q72 20 112 20t61.5 -9.5t35.5 -25.5q27 -31 27 -68.5t-17 -81.5t-49 -86
q-76 -102 -171 -102q-130 0 -179 104z" />
    <glyph glyph-name="ldot" unicode="&#x140;" horiz-adv-x="1187" 
d="M1430 654q0 -89 -148 -222q-223 -203 -479 -337q-221 -116 -377 -116q-285 0 -380 220q-35 83 -35 189.5t26 203.5t71 196.5t104 197.5t125 187t135 165.5t134 132.5q137 119 214 119q46 0 79 -27q60 -50 60 -108t-32 -137.5t-93 -169.5q-129 -191 -349 -366
q-41 -79 -71 -270q-9 -54 -9 -91t18.5 -55t46.5 -26q34 -10 91 -10t112 22.5t121 56.5t136 74l227 137q40 25 67 42q70 45 138 45t68 -53zM853 898q-17 35 -17 75.5t19 71.5t50 54.5t69.5 40.5t77.5 28q73 22 120 22t70.5 -10.5t38.5 -27.5q30 -34 30 -69.5t-8.5 -64.5
t-24.5 -60t-39 -62t-52 -56q-66 -55 -123.5 -55t-96.5 14t-68 39t-46 60z" />
    <glyph glyph-name="Lslash" unicode="&#x141;" horiz-adv-x="1700" 
d="M528 40q-136 -109 -379 -109q-159 0 -175 75q-4 22 -4 40.5t11.5 47.5t34.5 65t56.5 75t77.5 70q101 73 215 73h29l107 167l-127 -20q-39 -6 -54.5 -9t-25.5 -1.5t-20 6.5q-23 13 -22.5 29.5t6 34.5t15.5 36q23 43 60 60q16 7 76 20l111 24q51 10 110 21l98 157
q44 71 89 152t114 165t147 136q150 99 372 99q85 0 116 -62q12 -22 12 -62.5t-31.5 -89t-86.5 -92.5q-116 -94 -289 -145q-20 -36 -52 -81l-72 -99l303 51q124 20 165.5 19t41.5 -65q0 -78 -61 -128q-19 -16 -39 -20l-144 -23q-50 -8 -109 -17l-117 -16q-129 -19 -203 -27
l-80 -123q-39 -62 -74 -128l291 -42q147 -21 171 -21t48 1t50 5q61 10 91 33q60 45 110 45t73.5 -25t14.5 -70t-39.5 -104.5t-81.5 -113.5q-120 -129 -280 -129q-62 0 -215 31l-251 52q-97 19 -184 32z" />
    <glyph glyph-name="lslash" unicode="&#x142;" horiz-adv-x="1019" 
d="M586 1674q-98 0 -206 -43q-34 -14 -59 6q-44 35 -44 63t10 42q51 47 196 108q156 66 245 66q50 0 169 -25q397 -84 481 -96.5t115.5 -12.5t55 6t47.5 14q67 20 98 20t47.5 -20.5t16.5 -42.5t-13.5 -33.5t-52 -37t-93.5 -50.5q-137 -64 -266 -64q-29 0 -110 11l-268 37
q-147 21 -246.5 36.5t-122.5 15.5zM1232 706q64 0 64 -53q0 -65 -78 -155q-129 -150 -304 -292q-285 -228 -509 -228q-161 0 -264 140q-107 146 -107 392q0 245 178 515q155 236 355 379q124 88 203 88q46 0 79 -27q60 -50 60 -108t-24 -122.5t-75 -135.5
q-102 -140 -325 -317q-57 -109 -57 -262q0 -69 44 -130q45 -61 99 -61q74 0 283 153l178 137q109 87 200 87z" />
    <glyph glyph-name="Nacute" unicode="&#x143;" horiz-adv-x="2041" 
d="M1565.5 1459.5q-21.5 18.5 -21.5 40t26.5 59.5t69.5 83.5t97.5 94t109.5 87.5q126 91 192 91q49 0 83 -30q65 -56 65 -120q0 -12 -5 -37q-19 -24 -77 -51l-101 -45q-80 -36 -151 -78l-109 -64q-83 -49 -120 -49t-58.5 18.5zM213 42q-62 -79 -101.5 -87.5t-65.5 -1.5
t-46 23q-42 36 -42 96q0 44 27 88q583 927 634 1004q120 178 139 200l25 30q112 129 291 129q139 0 190 -61q12 -13 12.5 -50t3.5 -118l5 -172q3 -91 7 -186l6 -186q8 -180 14 -310q39 69 79 161l85 194q116 260 224 411q68 97 224 97q115 0 206 -50q55 -30 54 -53
q0 -21 -15 -40l-21 -29q-71 -99 -140 -206l-134 -213q-282 -466 -327 -535t-68.5 -96.5t-61 -46.5t-85.5 -34q-104 -33 -173 -33q-116 0 -157 33q-44 40 -124 464l-34 188q-16 96 -29 191q-33 -51 -85 -121l-294 -392z" />
    <glyph glyph-name="nacute" unicode="&#x144;" horiz-adv-x="1531" 
d="M923.5 1051.5q-21.5 18.5 -21.5 40t26.5 59.5t69.5 83.5t97.5 94t109.5 87.5q126 91 192 91q49 0 83 -30q65 -56 65 -120q0 -12 -5 -37q-19 -24 -77 -51l-101 -45q-80 -36 -151 -78l-109 -64q-83 -49 -120 -49t-58.5 18.5zM1113 537q0 -91 53 -91q130 0 338 176l27 23
q81 54 131.5 54t64 -15t13.5 -48q0 -74 -75 -157q-112 -136 -307 -258q-226 -142 -405 -142q-125 0 -157 139q-9 36 -13 69q-10 80 -21 89t-43.5 -1.5t-77 -35t-98.5 -59.5q-286 -190 -329 -217q-103 -64 -139 -64t-70.5 15t-60.5 38q-54 51 -54 104q0 303 132 530
q88 153 216 212q65 31 140 31q137 0 137 -90q0 -55 -65 -180l-30 -59q-32 -61 -31 -69q6 -30 27 -30q23 0 68 34l184 137l92 64q159 104 234 104q40 0 73 -32q61 -58 61 -101q0 -14 -2.5 -34t-5.5 -43l-4 -47q-3 -24 -3 -46z" />
    <glyph glyph-name="Ncommaaccent" unicode="&#x145;" horiz-adv-x="2041" 
d="M213 42q-62 -79 -101.5 -87.5t-65.5 -1.5t-46 23q-42 36 -42 96q0 44 27 88q583 927 634 1004q120 178 139 200l25 30q112 129 291 129q139 0 190 -61q12 -13 12.5 -50t3.5 -118l5 -172q3 -91 7 -186l6 -186q8 -180 14 -310q39 69 79 161l85 194q116 260 224 411
q68 97 224 97q115 0 206 -50q55 -30 54 -53q0 -21 -15 -40l-21 -29q-71 -99 -140 -206l-134 -213q-282 -466 -327 -535t-68.5 -96.5t-61 -46.5t-85.5 -34q-104 -33 -173 -33q-116 0 -157 33q-44 40 -124 464l-34 188q-16 96 -29 191q-33 -51 -85 -121l-294 -392zM802 -158
q20 -25 20 -73.5t-25 -100.5t-65 -96t-90.5 -80t-101.5 -63q-178 -93 -256 -58q-13 6 -29 23.5t-16 28.5q0 24 38 38l39 21q96 51 145 107q-90 10 -127 61q-20 28 -20 66q0 74 91 133.5t219 59.5t178 -67z" />
    <glyph glyph-name="ncommaaccent" unicode="&#x146;" horiz-adv-x="1531" 
d="M1113 537q0 -91 53 -91q130 0 338 176l27 23q81 54 131.5 54t64 -15t13.5 -48q0 -74 -75 -157q-112 -136 -307 -258q-226 -142 -405 -142q-125 0 -157 139q-9 36 -13 69q-10 80 -21 89t-43.5 -1.5t-77 -35t-98.5 -59.5q-286 -190 -329 -217q-103 -64 -139 -64t-70.5 15
t-60.5 38q-54 51 -54 104q0 303 132 530q88 153 216 212q65 31 140 31q137 0 137 -90q0 -55 -65 -180l-30 -59q-32 -61 -31 -69q6 -30 27 -30q23 0 68 34l184 137l92 64q159 104 234 104q40 0 73 -32q61 -58 61 -101q0 -14 -2.5 -34t-5.5 -43l-4 -47q-3 -24 -3 -46z
M870 -158q19 -25 19 -73.5t-25 -100.5t-65 -96t-90.5 -80t-102.5 -63q-177 -93 -255 -58q-13 6 -29 23.5t-16 28.5q0 24 38 38l38 21q97 51 146 107q-90 10 -126 61q-21 28 -21 66q0 74 91 133.5t219 59.5t179 -67z" />
    <glyph glyph-name="Ncaron" unicode="&#x147;" horiz-adv-x="2041" 
d="M1229 1733q0 21 18.5 43.5t46.5 40.5q62 41 118 41q37 0 135 -80l49 -39q56 -42 76 -42t56.5 13t79.5 34q100 47 154 95q14 11 30 11t29.5 -6t24.5 -16q24 -20 24 -40q0 -35 -20.5 -56.5t-56 -50t-79 -57.5t-92.5 -56t-98 -48q-108 -47 -181 -47q-48 0 -144 73
q-81 62 -125.5 114t-44.5 73zM213 42q-62 -79 -101.5 -87.5t-65.5 -1.5t-46 23q-42 36 -42 96q0 44 27 88q583 927 634 1004q120 178 139 200l25 30q112 129 291 129q139 0 190 -61q12 -13 12.5 -50t3.5 -118l5 -172q3 -91 7 -186l6 -186q8 -180 14 -310q39 69 79 161
l85 194q116 260 224 411q68 97 224 97q115 0 206 -50q55 -30 54 -53q0 -21 -15 -40l-21 -29q-71 -99 -140 -206l-134 -213q-282 -466 -327 -535t-68.5 -96.5t-61 -46.5t-85.5 -34q-104 -33 -173 -33q-116 0 -157 33q-44 40 -124 464l-34 188q-16 96 -29 191
q-33 -51 -85 -121l-294 -392z" />
    <glyph glyph-name="ncaron" unicode="&#x148;" horiz-adv-x="1531" 
d="M895.5 1076.5q-46.5 -12.5 -86 -12.5t-79.5 20.5t-78 52.5q-58 48 -140 151q-15 15 -15 36t18.5 43.5t46.5 40.5q62 41 102.5 41t72.5 -24t64.5 -52.5t63 -52.5t47 -24t39 5.5t51 15t61 22t63.5 27.5q70 34 94 54.5t40 20.5t29.5 -6t24.5 -15q24 -21 24 -41
q0 -35 -20.5 -56.5t-56 -50t-79 -57.5t-92.5 -56t-98.5 -48.5t-96 -34zM1113 537q0 -91 53 -91q130 0 338 176l27 23q81 54 131.5 54t64 -15t13.5 -48q0 -74 -75 -157q-112 -136 -307 -258q-226 -142 -405 -142q-125 0 -157 139q-9 36 -13 69q-10 80 -21 89t-43.5 -1.5
t-77 -35t-98.5 -59.5q-286 -190 -329 -217q-103 -64 -139 -64t-70.5 15t-60.5 38q-54 51 -54 104q0 303 132 530q88 153 216 212q65 31 140 31q137 0 137 -90q0 -55 -65 -180l-30 -59q-32 -61 -31 -69q6 -30 27 -30q23 0 68 34l184 137l92 64q159 104 234 104q40 0 73 -32
q61 -58 61 -101q0 -14 -2.5 -34t-5.5 -43l-4 -47q-3 -24 -3 -46z" />
    <glyph glyph-name="Eng" unicode="&#x14a;" horiz-adv-x="2041" 
d="M213 42q-62 -79 -101.5 -87.5t-65.5 -1.5t-46 23q-42 36 -42 96q0 44 27 88q583 927 634 1004q120 178 139 200l25 30q112 129 291 129q139 0 190 -61q12 -13 13 -46t5.5 -103t10.5 -148t13 -161l30 -324q8 -78 15 -143q192 432 422 766q66 96 206 96q105 0 190 -49
q53 -31 53 -54q0 -26 -55.5 -91t-122.5 -165t-128 -204t-115 -208l-189 -371q-41 -80 -74 -138l-190 -274q0 -1 -0.5 -1t-29.5 -29.5t-102 -76t-153.5 -83.5t-162.5 -63.5t-158 -43.5q-150 -34 -212.5 -34t-86.5 8t-41 22q-39 31 -31 74q27 148 131 218q85 56 322 76
q115 10 167 53q29 24 36 69q-76 147 -179 643q-18 84 -33 166q-33 -51 -85 -121l-294 -392z" />
    <glyph glyph-name="eng" unicode="&#x14b;" horiz-adv-x="1531" 
d="M378 929q137 0 137 -90q0 -55 -65 -180l-30 -59q-32 -61 -31 -69q6 -30 27 -30q23 0 77 41l121 92q274 206 380 206q47 0 101 -52q51 -50 51 -81q0 -74 -34.5 -178.5t-98.5 -257.5l-18 -43l243 190l273 202q27 19 39 28q35 28 72 28q70 0 85 -49q18 -63 -87 -197
q-33 -42 -69 -74t-95 -73q-504 -347 -568.5 -394.5t-92.5 -74.5l-1 1q-84 -164 -138 -238t-109 -111.5t-115 -61.5q-118 -48 -212 -48t-129 13.5t-51 24.5t-25 24q-15 20 -15 69.5t30 85.5t78.5 63.5t109 53t120.5 62.5q143 90 204 242q52 113 88 216l50 149
q-42 -20 -98 -54l-115 -74q-262 -177 -315.5 -204.5t-83 -27.5t-64 15t-60.5 38q-54 51 -54 104q0 303 132 530q88 153 216 212q65 31 140 31z" />
    <glyph glyph-name="Omacron" unicode="&#x14c;" horiz-adv-x="2214" 
d="M992 1619q-35 0 -35 41q0 39 22.5 79t42.5 56.5t44 28.5q49 27 87 27h579q16 0 30 -11.5t14 -31.5q0 -40 -26.5 -84.5t-63 -75t-74.5 -30.5zM1463 1382q49 17 109.5 17t122 -9t129.5 -29t136 -51t122 -74q121 -96 121 -228q0 -156 -165 -342q-236 -266 -676 -474
q-277 -130 -556 -184q-138 -26 -268.5 -26t-225 35.5t-154 88.5t-86.5 114t-27 129t40.5 159t105 180.5t145 174t160.5 156.5q138 123 265.5 211.5t215.5 139.5t147 78q100 47 122 47t49.5 -13t60.5 -31q82 -46 107 -69zM532 276q18 -1 67 -1t142 25t190 67.5t194.5 99
t186.5 118.5t166.5 126.5t134.5 124.5q122 127 122 193q0 68 -82 101q-55 23 -118 23q-105 0 -173 -18q-292 -137 -569 -358q-198 -158 -283 -299q-44 -73 -44 -135.5t66 -66.5z" />
    <glyph glyph-name="omacron" unicode="&#x14d;" horiz-adv-x="1359" 
d="M433 1210q-35 0 -35 41q0 39 22.5 79t42.5 56.5t43 29.5q50 26 88 26h579q16 0 30 -11.5t14 -31.5q0 -40 -26.5 -84.5t-63 -75t-74.5 -30.5zM1067 616q0 -54 92 -54q68 0 179 66l78 44q38 21 65.5 21t43.5 -17t16 -47t-20 -69.5t-55 -83t-82 -86t-100 -76.5
q-121 -75 -224 -75q-109 0 -174 37q-20 12 -39 25q-107 -122 -310 -224q-216 -108 -377 -108q-169 0 -266 133q-80 108 -80 219q0 160 171 305q126 106 243.5 161t213.5 85q200 63 361 63q72 0 128.5 -27.5t84.5 -55.5q63 -63 63 -161q0 -29 -6 -45t-6 -30zM249 427l-1 -3
v-1q0 -43 20 -56q45 -28 96 -14.5t97 33.5q114 49 206 124q-16 32 -16 66q0 72 63 144q-80 0 -216 -75q-89 -49 -146 -98q-103 -86 -103 -120z" />
    <glyph glyph-name="Obreve" unicode="&#x14e;" horiz-adv-x="2214" 
d="M1075 1668q-51 62 -51 93t16.5 56.5t41.5 45.5q56 45 113 45q28 0 56 -46l25 -42q53 -87 129 -87q97 0 158 30q86 42 151 100q17 14 42 14t48 -19t23 -43.5t-22 -58t-70 -81.5t-106 -86q-131 -86 -247 -86q-170 0 -307 165zM1463 1382q49 17 109.5 17t122 -9t129.5 -29
t136 -51t122 -74q121 -96 121 -228q0 -156 -165 -342q-236 -266 -676 -474q-277 -130 -556 -184q-138 -26 -268.5 -26t-225 35.5t-154 88.5t-86.5 114t-27 129t40.5 159t105 180.5t145 174t160.5 156.5q138 123 265.5 211.5t215.5 139.5t147 78q100 47 122 47t49.5 -13
t60.5 -31q82 -46 107 -69zM532 276q18 -1 67 -1t142 25t190 67.5t194.5 99t186.5 118.5t166.5 126.5t134.5 124.5q122 127 122 193q0 68 -82 101q-55 23 -118 23q-105 0 -173 -18q-292 -137 -569 -358q-198 -158 -283 -299q-44 -73 -44 -135.5t66 -66.5z" />
    <glyph glyph-name="obreve" unicode="&#x14f;" horiz-adv-x="1359" 
d="M753 1064q-113 0 -212 72q-79 57 -136 155q-12 21 -12 42.5t12.5 41t32.5 33.5q44 31 84 31t62 -23l48 -50q69 -72 133.5 -72t109.5 11.5t83 30.5q62 30 127 88q17 14 42 14t48 -19t23 -43.5t-22 -58t-70 -81.5t-106 -86q-131 -86 -247 -86zM1067 616q0 -54 92 -54
q68 0 179 66l78 44q38 21 65.5 21t43.5 -17t16 -47t-20 -69.5t-55 -83t-82 -86t-100 -76.5q-121 -75 -224 -75q-109 0 -174 37q-20 12 -39 25q-107 -122 -310 -224q-216 -108 -377 -108q-169 0 -266 133q-80 108 -80 219q0 160 171 305q126 106 243.5 161t213.5 85
q200 63 361 63q72 0 128.5 -27.5t84.5 -55.5q63 -63 63 -161q0 -29 -6 -45t-6 -30zM249 427l-1 -3v-1q0 -43 20 -56q45 -28 96 -14.5t97 33.5q114 49 206 124q-16 32 -16 66q0 72 63 144q-80 0 -216 -75q-89 -49 -146 -98q-103 -86 -103 -120z" />
    <glyph glyph-name="Ohungarumlaut" unicode="&#x150;" horiz-adv-x="2214" 
d="M1546 1439.5q-26 18.5 -32 40.5t9.5 61.5t44 87.5t66.5 99t78 92q93 95 155 95q53 0 95 -34q83 -66 68 -133q-6 -30 -52 -60l-78 -52q-33 -20 -66 -48l-130 -112q-64 -55 -84 -55q-48 0 -74 18.5zM942 1432.5q-26 18.5 -32 40.5t9.5 61.5t44 87.5t66.5 99t78 93
q93 94 155 94q53 0 95 -34q83 -66 68 -133q-6 -30 -52 -60l-78 -51q-33 -21 -66 -48l-130 -112q-64 -56 -84 -56q-48 0 -74 18.5zM1463 1382q49 17 109.5 17t122 -9t129.5 -29t136 -51t122 -74q121 -96 121 -228q0 -156 -165 -342q-236 -266 -676 -474q-277 -130 -556 -184
q-138 -26 -268.5 -26t-225 35.5t-154 88.5t-86.5 114t-27 129t40.5 159t105 180.5t145 174t160.5 156.5q138 123 265.5 211.5t215.5 139.5t147 78q100 47 122 47t49.5 -13t60.5 -31q82 -46 107 -69zM532 276q18 -1 67 -1t142 25t190 67.5t194.5 99t186.5 118.5t166.5 126.5
t134.5 124.5q122 127 122 193q0 68 -82 101q-55 23 -118 23q-105 0 -173 -18q-292 -137 -569 -358q-198 -158 -283 -299q-44 -73 -44 -135.5t66 -66.5z" />
    <glyph glyph-name="ohungarumlaut" unicode="&#x151;" horiz-adv-x="1359" 
d="M764 1088.5q-26 18.5 -32 40.5t9.5 61.5t44 87.5t66.5 99t78 93q93 94 155 94q53 0 95 -34q83 -66 68 -133q-6 -30 -52 -60l-78 -51q-33 -21 -66 -48l-130 -112q-64 -56 -84 -56q-48 0 -74 18.5zM268.5 1078.5q-21.5 -15.5 -52 -15.5t-56.5 18.5t-32 40.5t9.5 61.5
t44 87.5t66.5 99t78 92q93 95 155 95q53 0 95 -34q83 -66 68 -133q-6 -30 -52 -60l-78 -52q-33 -20 -66 -48l-130 -112q-28 -24 -49.5 -39.5zM1067 616q0 -54 92 -54q68 0 179 66l78 44q38 21 65.5 21t43.5 -17t16 -47t-20 -69.5t-55 -83t-82 -86t-100 -76.5
q-121 -75 -224 -75q-109 0 -174 37q-20 12 -39 25q-107 -122 -310 -224q-216 -108 -377 -108q-169 0 -266 133q-80 108 -80 219q0 160 171 305q126 106 243.5 161t213.5 85q200 63 361 63q72 0 128.5 -27.5t84.5 -55.5q63 -63 63 -161q0 -29 -6 -45t-6 -30zM249 427l-1 -3
v-1q0 -43 20 -56q45 -28 96 -14.5t97 33.5q114 49 206 124q-16 32 -16 66q0 72 63 144q-80 0 -216 -75q-89 -49 -146 -98q-103 -86 -103 -120z" />
    <glyph glyph-name="OE" unicode="&#x152;" horiz-adv-x="3573" 
d="M2220 -38q-471 0 -597 225q-265 -153 -567 -202q-80 -13 -149.5 -13t-165 10t-189 32.5t-179.5 58t-152 87.5q-144 112 -144 275q0 192 164 377q215 241 636 411q384 155 673 155q125 0 217 -50l32 -18q21 -12 21 -26q0 -32 -66 -42.5t-126 -26t-111 -35.5
q-95 -36 -181 -91q159 24 256.5 24t158 -9t122 -34.5t107.5 -59.5q100 -74 100 -160q0 -42 -6 -81q56 15 160 34q-102 46 -102 143q0 112 124 198q259 177 962 212q100 5 141 5q199 0 199 -102q0 -142 -229 -174q-65 -9 -125.5 -9t-113 4.5t-97.5 12.5q-97 17 -133 38
q-316 -77 -316 -176q0 -61 64 -100t202 -47q48 -4 68.5 -26t20.5 -55.5t-31 -53.5t-76 -20q-340 -3 -562 -99q-115 -51 -158 -104q-20 -23 -20 -38q0 -101 246 -101t445.5 23.5t338.5 51.5t218.5 51.5t112.5 23.5q75 0 75 -73q0 -100 -270 -215q-359 -153 -801 -200
q-104 -11 -197 -11zM617 552q-51 -57 -83 -108q-63 -102 -63 -144.5t53.5 -56.5t145 -14t171.5 12.5t163 35t165.5 52.5t158.5 65.5t141 74t113 77.5q103 85 103 150q0 155 -201 209q-70 19 -112 19t-86 -6t-94 -14q-101 -17 -197 -38q-234 -155 -378 -314z" />
    <glyph glyph-name="oe" unicode="&#x153;" horiz-adv-x="2040" 
d="M2229 739q48 0 48 -54q0 -36 -24.5 -90.5t-70.5 -102t-105.5 -98.5t-137 -107t-169.5 -111t-194 -99q-226 -98 -420 -98q-189 0 -316 135q-41 43 -68 96q-213 -157 -451 -206q-75 -16 -140.5 -16t-114.5 19t-86 50t-62 71t-40 82q-30 78 -30 150.5t25.5 128t68.5 103.5
q68 75 185.5 148.5t213.5 110t191 59.5q188 47 320 47q82 0 156 -83q22 -24 39 -52l39 24q196 117 454 117q87 0 128 -26q75 -49 90 -147q16 -110 -141 -243q-26 -22 -47.5 -37.5t-62.5 -43.5q-89 -61 -253 -145q68 -35 110 -35t85.5 13t98.5 37t117.5 57.5t126.5 73.5
q143 89 248 182q55 51 140 81q28 9 49 9zM1126 467q68 35 99 54l63 37q124 78 124 110q0 38 -46 62q-13 7 -40.5 7t-67 -17t-70.5 -46q-69 -65 -69 -156q0 -29 7 -51zM360.5 390q12.5 -9 25.5 -9t40 8.5t62.5 24.5t75.5 38t78 48q83 59 113 122q5 10 5 28t-8 36
q-20 43 -62.5 43t-80.5 -13.5t-76 -35t-73.5 -48.5t-63.5 -54q-59 -57 -65.5 -85.5t-3 -47t12 -32.5t21 -23z" />
    <glyph glyph-name="Racute" unicode="&#x154;" horiz-adv-x="2038" 
d="M1194.5 1459.5q-21.5 18.5 -21.5 40t26.5 59.5t69.5 83.5t97.5 94t109.5 87.5q126 91 192 91q49 0 83 -30q65 -56 65 -120q0 -12 -5 -37q-19 -24 -77 -51l-100 -45q-81 -36 -152 -78l-108 -64q-84 -49 -121 -49t-58.5 18.5zM126 843q-64 0 -64 61q0 28 29 101.5t50 114.5
q48 96 98 133q80 59 625 107q237 20 345 20t153.5 -3t94.5 -10.5t98 -19t93 -28.5q95 -37 133 -92q119 -173 119 -282q0 -122 -186 -239q-56 -36 -120 -72q-233 -126 -273 -149q84 -163 329 -337q29 -20 46 -30q75 -44 177 14q28 17 57 17t51 -21.5t22 -47.5
q0 -119 -159 -256q-118 -102 -213 -102q-77 0 -335 226q-146 128 -237 229t-125 150.5t-34 85.5t17.5 64t47.5 54q47 40 134 85.5t142 86.5t95 85q88 93 88 168q0 49 -30 82q-55 59 -102 59q-81 0 -198 -11l-122 -216q-233 -423 -318 -762q-34 -132 -257 -132
q-184 0 -235 86q-17 29 -12.5 56.5t26.5 72t60 111.5l89 152l109 179l123 193l128 192q-349 -75 -509 -162q-24 -13 -50 -13z" />
    <glyph glyph-name="racute" unicode="&#x155;" 
d="M753.5 1051.5q-21.5 18.5 -21.5 40t26.5 59.5t69.5 83.5t97.5 94t109.5 87.5q126 91 192 91q49 0 83 -30q65 -56 65 -120q0 -12 -5 -37q-19 -24 -77 -51l-101 -45q-80 -36 -151 -78l-109 -64q-83 -49 -120 -49t-58.5 18.5zM-54 330q-19 0 -37.5 9t-34.5 29
q-35 44 -35 120q0 81 97 202q94 117 219 202q134 92 230 92q85 0 115 -48l14 -22q16 -25 32 -25t50 3l142 10q33 3 52 3t43.5 -13.5t43.5 -35.5q42 -50 42 -110q0 -62 -137 -195l-66 -66q-71 -73 -71 -92t18 -33.5t39 -14.5t47.5 11.5t65.5 34t89 54.5q137 90 183 124l83 59
q85 60 121 60t59 -15.5t23 -53.5t-39 -102t-84.5 -111t-88.5 -87t-101.5 -86.5t-129.5 -94t-150 -85.5q-179 -87 -329 -87q-219 0 -267 113q-15 34 -15 76t16 90.5t42 96.5q52 95 123 168q60 63 60 75q0 19 -21.5 24t-63.5 5q-18 0 -77 -52l-98 -90q-156 -142 -204 -142z
" />
    <glyph glyph-name="Rcommaaccent" unicode="&#x156;" horiz-adv-x="2038" 
d="M126 843q-64 0 -64 61q0 28 29 101.5t50 114.5q48 96 98 133q80 59 625 107q237 20 345 20t153.5 -3t94.5 -10.5t98 -19t93 -28.5q95 -37 133 -92q119 -173 119 -282q0 -122 -186 -239q-56 -36 -120 -72q-233 -126 -273 -149q84 -163 329 -337q29 -20 46 -30
q75 -44 177 14q28 17 57 17t51 -21.5t22 -47.5q0 -119 -159 -256q-118 -102 -213 -102q-77 0 -335 226q-146 128 -237 229t-125 150.5t-34 85.5t17.5 64t47.5 54q47 40 134 85.5t142 86.5t95 85q88 93 88 168q0 49 -30 82q-55 59 -102 59q-81 0 -198 -11l-122 -216
q-233 -423 -318 -762q-34 -132 -257 -132q-184 0 -235 86q-17 29 -12.5 56.5t26.5 72t60 111.5l89 152l109 179l123 193l128 192q-349 -75 -509 -162q-24 -13 -50 -13zM1040 -158q19 -25 19 -73.5t-25 -100.5t-65 -96t-90.5 -80t-102.5 -63q-177 -93 -255 -58
q-13 6 -29 23.5t-16 28.5q0 24 38 38l38 21q97 51 146 107q-90 10 -126 61q-21 28 -21 66q0 74 91 133.5t219 59.5t179 -67z" />
    <glyph glyph-name="rcommaaccent" unicode="&#x157;" 
d="M-54 330q-19 0 -37.5 9t-34.5 29q-35 44 -35 120q0 81 97 202q94 117 219 202q134 92 230 92q85 0 115 -48l14 -22q16 -25 32 -25t50 3l142 10q33 3 52 3t43.5 -13.5t43.5 -35.5q42 -50 42 -110q0 -62 -137 -195l-66 -66q-71 -73 -71 -92t18 -33.5t39 -14.5t47.5 11.5
t65.5 34t89 54.5q137 90 183 124l83 59q85 60 121 60t59 -15.5t23 -53.5t-39 -102t-84.5 -111t-88.5 -87t-101.5 -86.5t-129.5 -94t-150 -85.5q-179 -87 -329 -87q-219 0 -267 113q-15 34 -15 76t16 90.5t42 96.5q52 95 123 168q60 63 60 75q0 19 -21.5 24t-63.5 5
q-18 0 -77 -52l-98 -90q-156 -142 -204 -142zM58 -107q54 16 100 16t83 -5.5t68 -20.5q70 -34 70 -98.5t-25 -116.5t-65 -96t-90.5 -80t-102.5 -63q-177 -93 -255 -58q-13 6 -29 23.5t-16 28.5q0 24 38 38l38 21q97 51 146 107q-90 10 -126 61q-21 28 -21 65.5t25 72.5
t66.5 62t95.5 43z" />
    <glyph glyph-name="Rcaron" unicode="&#x158;" horiz-adv-x="2038" 
d="M1256.5 1485.5q-46.5 -12.5 -78 -12.5t-70 20.5t-80.5 52.5q-89 68 -155 151q-15 15 -15 36t18.5 43.5t45.5 40.5q63 41 119 41q37 0 135 -80l49 -39q56 -42 76 -42t56.5 13t79.5 34q100 47 154 95q14 11 30 11t29.5 -6t24.5 -16q24 -20 24 -40q0 -35 -20.5 -56.5
t-56 -50t-79 -57.5t-92.5 -56t-98.5 -48.5t-96 -34zM126 843q-64 0 -64 61q0 28 29 101.5t50 114.5q48 96 98 133q80 59 625 107q237 20 345 20t153.5 -3t94.5 -10.5t98 -19t93 -28.5q95 -37 133 -92q119 -173 119 -282q0 -122 -186 -239q-56 -36 -120 -72
q-233 -126 -273 -149q84 -163 329 -337q29 -20 46 -30q75 -44 177 14q28 17 57 17t51 -21.5t22 -47.5q0 -119 -159 -256q-118 -102 -213 -102q-77 0 -335 226q-146 128 -237 229t-125 150.5t-34 85.5t17.5 64t47.5 54q47 40 134 85.5t142 86.5t95 85q88 93 88 168
q0 49 -30 82q-55 59 -102 59q-81 0 -198 -11l-122 -216q-233 -423 -318 -762q-34 -132 -257 -132q-184 0 -235 86q-17 29 -12.5 56.5t26.5 72t60 111.5l89 152l109 179l123 193l128 192q-349 -75 -509 -162q-24 -13 -50 -13z" />
    <glyph glyph-name="rcaron" unicode="&#x159;" 
d="M725.5 1076.5q-46.5 -12.5 -86 -12.5t-79.5 20.5t-78 52.5q-58 48 -140 151q-15 15 -15 36t18.5 43.5t46.5 40.5q62 41 102.5 41t72.5 -24t64.5 -52.5t63 -52.5t47 -24t39 5.5t51 15t61 22t63.5 27.5q70 34 94 54.5t40 20.5t29.5 -6t24.5 -15q24 -21 24 -41
q0 -35 -20.5 -56.5t-56 -50t-79 -57.5t-92.5 -56t-98.5 -48.5t-96 -34zM-54 330q-19 0 -37.5 9t-34.5 29q-35 44 -35 120q0 81 97 202q94 117 219 202q134 92 230 92q85 0 115 -48l14 -22q16 -25 32 -25t50 3l142 10q33 3 52 3t43.5 -13.5t43.5 -35.5q42 -50 42 -110
q0 -62 -137 -195l-66 -66q-71 -73 -71 -92t18 -33.5t39 -14.5t47.5 11.5t65.5 34t89 54.5q137 90 183 124l83 59q85 60 121 60t59 -15.5t23 -53.5t-39 -102t-84.5 -111t-88.5 -87t-101.5 -86.5t-129.5 -94t-150 -85.5q-179 -87 -329 -87q-219 0 -267 113q-15 34 -15 76
t16 90.5t42 96.5q52 95 123 168q60 63 60 75q0 19 -21.5 24t-63.5 5q-18 0 -77 -52l-98 -90q-156 -142 -204 -142z" />
    <glyph glyph-name="Sacute" unicode="&#x15a;" horiz-adv-x="2044" 
d="M1227.5 1459.5q-21.5 18.5 -21.5 40t26.5 59.5t69.5 83.5t97.5 94t109.5 87.5q126 91 192 91q49 0 83 -30q65 -56 65 -120q0 -12 -5 -37q-19 -24 -77 -51l-101 -45q-80 -36 -151 -78l-109 -64q-83 -49 -120 -49t-58.5 18.5zM1640 1006q-99 0 -138 94q-144 0 -316 -70
q-107 -44 -144 -81t-39.5 -58t20.5 -35.5t64.5 -27.5t96.5 -26q288 -67 365 -93q153 -51 229 -112q72 -61 72 -166q0 -87 -53.5 -147t-141.5 -107t-196.5 -83.5t-229 -62.5t-237.5 -43q-229 -32 -391 -32q-295 0 -455 71q-60 27 -98 135q-30 89 -30 146.5t10 63.5t41 0.5
t81 -18.5l120 -32q279 -70 590 -70q229 0 388 41q94 25 100 56q4 27 -148 67q-69 19 -160 40q-441 107 -532 138t-118.5 55t-45.5 53q-33 57 -33 108.5t5.5 79.5t15.5 52q21 49 53 67q257 144 755 253q443 98 729 98q58 0 87 -20q50 -37 44 -79t-25.5 -77.5t-48.5 -64
t-64.5 -50t-73.5 -35.5q-76 -28 -148 -28z" />
    <glyph glyph-name="sacute" unicode="&#x15b;" 
d="M535.5 1051.5q-21.5 18.5 -21.5 40t26.5 59.5t69.5 83.5t97.5 94t109.5 87.5q126 91 192 91q49 0 83 -30q65 -56 65 -120q0 -12 -5 -37q-19 -24 -77 -51l-101 -45q-80 -36 -151 -78l-109 -64q-83 -49 -120 -49t-58.5 18.5zM634 974q10 -20 10 -52.5t-33 -73.5
q26 -27 66.5 -62.5t78.5 -77.5q92 -103 92 -197q0 -62 -85 -151q-26 -28 -57 -52q104 40 250 159l117 96q102 85 136.5 98t62.5 13t54.5 -14t26.5 -45.5t-10 -61t-24 -54.5q-20 -36 -58 -74q-105 -99 -203.5 -181.5t-203.5 -141.5q-222 -124 -492 -124q-151 0 -262 77
q-46 32 -70.5 66.5t-24.5 54t13 41t35 44.5t50.5 46t58.5 41q70 41 104.5 41t52.5 -8.5t33 -18.5q41 -28 58 -28q41 0 41 56q0 52 -55 125q-22 30 -46 59t-40 57q-32 -37 -80 -76l-97 -82q-101 -87 -187 -83q-50 4 -50 111q0 19 3 37q5 31 61 75t81.5 60.5t43.5 29.5l106 72
q0 102 118 187q112 80 222 80q70 0 103 -68z" />
    <glyph glyph-name="Scircumflex" unicode="&#x15c;" horiz-adv-x="2044" 
d="M1298 1562.5q-38 -24.5 -58.5 -42t-37 -17.5t-29.5 5.5t-24 15.5q-24 22 -24 41q0 35 20.5 56.5t56 50t79 57.5t92.5 56t99 49q107 46 164 46t97 -20.5t79 -52.5q57 -48 139 -151q15 -15 15 -36t-18.5 -43.5t-45.5 -40.5q-63 -41 -119 -41q-40 0 -147.5 77.5t-133 77.5
t-58 -12t-70.5 -31.5t-76 -44zM1640 1006q-99 0 -138 94q-144 0 -316 -70q-107 -44 -144 -81t-39.5 -58t20.5 -35.5t64.5 -27.5t96.5 -26q288 -67 365 -93q153 -51 229 -112q72 -61 72 -166q0 -87 -53.5 -147t-141.5 -107t-196.5 -83.5t-229 -62.5t-237.5 -43
q-229 -32 -391 -32q-295 0 -455 71q-60 27 -98 135q-30 89 -30 146.5t10 63.5t41 0.5t81 -18.5l120 -32q279 -70 590 -70q229 0 388 41q94 25 100 56q4 27 -148 67q-69 19 -160 40q-441 107 -532 138t-118.5 55t-45.5 53q-33 57 -33 108.5t5.5 79.5t15.5 52q21 49 53 67
q257 144 755 253q443 98 729 98q58 0 87 -20q50 -37 44 -79t-25.5 -77.5t-48.5 -64t-64.5 -50t-73.5 -35.5q-76 -28 -148 -28z" />
    <glyph glyph-name="scircumflex" unicode="&#x15d;" 
d="M379 1153.5q-38 -24.5 -58.5 -42t-37 -17.5t-29.5 5.5t-24 15.5q-24 22 -24 41q0 35 20.5 56.5t56 50t79 57.5t92.5 56t98 48q108 47 165 47t97 -20.5t78 -52.5q58 -48 140 -151q15 -15 15 -36t-18.5 -43.5t-46.5 -40.5q-62 -41 -118 -41q-40 0 -147.5 77.5t-133 77.5
t-58 -12t-70.5 -31.5t-76 -44zM634 974q10 -20 10 -52.5t-33 -73.5q26 -27 66.5 -62.5t78.5 -77.5q92 -103 92 -197q0 -62 -85 -151q-26 -28 -57 -52q104 40 250 159l117 96q102 85 136.5 98t62.5 13t54.5 -14t26.5 -45.5t-10 -61t-24 -54.5q-20 -36 -58 -74
q-105 -99 -203.5 -181.5t-203.5 -141.5q-222 -124 -492 -124q-151 0 -262 77q-46 32 -70.5 66.5t-24.5 54t13 41t35 44.5t50.5 46t58.5 41q70 41 104.5 41t52.5 -8.5t33 -18.5q41 -28 58 -28q41 0 41 56q0 52 -55 125q-22 30 -46 59t-40 57q-32 -37 -80 -76l-97 -82
q-101 -87 -187 -83q-50 4 -50 111q0 19 3 37q5 31 61 75t81.5 60.5t43.5 29.5l106 72q0 102 118 187q112 80 222 80q70 0 103 -68z" />
    <glyph glyph-name="Scedilla" unicode="&#x15e;" horiz-adv-x="2044" 
d="M666 -42q-40 -2 -133.5 -2t-204 19.5t-163.5 43t-77 61t-40 82.5q-30 89 -30 146.5t10 63.5t41 0.5t81 -18.5l120 -32q279 -70 590 -70q229 0 388 41q94 25 100 56q4 27 -148 67q-69 19 -160 40q-441 107 -532 138t-118.5 55t-45.5 53q-33 57 -33 108.5t5.5 79.5t15.5 52
q21 49 53 67q257 144 755 253q443 98 729 98q58 0 87 -20q50 -37 44 -79t-25.5 -77.5t-48.5 -64t-64.5 -50t-73.5 -35.5q-76 -28 -148 -28q-99 0 -138 94q-144 0 -316 -70q-107 -44 -144 -81t-39.5 -58t20.5 -35.5t64.5 -27.5t96.5 -26q288 -67 365 -93q153 -51 229 -112
q72 -61 72 -166q0 -87 -49.5 -142.5t-121 -97.5t-159.5 -75q-166 -63 -391 -105q-30 -16 -67 -33l-72 -32q-89 -41 -122 -68q206 -57 206 -178q0 -99 -180 -224q-95 -65 -157 -89t-86 -24t-40 22t-16 46.5t23 49.5l50 53q74 75 74 133q0 13 -24 31l-51 40q-75 59 -75 97
t74 123z" />
    </font>
</defs>
</svg>
